SplineFontDB: 3.2
FontName: SeriousShannsLightItalic
FullName: Serious Shanns Light Italic
FamilyName: Serious Shanns Light Italic
Weight: Light
Copyright: https://github.com/kaBeech/serious-sans/blob/main/LICENSE
Version: 6.0.0
ItalicAngle: -11.8
UnderlinePosition: 0
UnderlineWidth: 0
Ascent: 800
Descent: 200
InvalidEm: 0
sfntRevision: 0x00001999
LayerCount: 2
Layer: 0 0 "Back" 1
Layer: 1 0 "Fore" 0
XUID: [1021 329 -1817886000 6804199]
StyleMap: 0x0040
FSType: 4
OS2Version: 3
OS2_WeightWidthSlopeOnly: 0
OS2_UseTypoMetrics: 0
CreationTime: 1532631502
ModificationTime: 315532800
PfmFamily: 81
TTFWeight: 300
TTFWidth: 5
LineGap: 0
VLineGap: 0
Panose: 0 0 0 0 0 0 0 0 0 0
OS2TypoAscent: 613
OS2TypoAOffset: 0
OS2TypoDescent: -188
OS2TypoDOffset: 0
OS2TypoLinegap: 98
OS2WinAscent: 778
OS2WinAOffset: 0
OS2WinDescent: 308
OS2WinDOffset: 0
HheadAscent: 796
HheadAOffset: 0
HheadDescent: -317
HheadDOffset: 0
OS2SubXSize: 317
OS2SubYSize: 293
OS2SubXOff: 0
OS2SubYOff: 37
OS2SupXSize: 317
OS2SupYSize: 293
OS2SupXOff: 0
OS2SupYOff: 171
OS2StrikeYSize: 0
OS2StrikeYPos: 132
OS2CapHeight: 576
OS2XHeight: 485
OS2Vendor: 'NONE'
OS2CodePages: 00000001.00000000
OS2UnicodeRanges: 00000001.00000000.00000000.00000000
MarkAttachClasses: 1
DEI: 91125
LangName: 1033 "" "" "Normal" "FontForge 2.0 : Serious Shanns Light Italic : 11-6-2024" "" "Version 0.1.2"
Encoding: UnicodeBmp
Compacted: 1
UnicodeInterp: none
NameList: AGL For New Fonts
DisplaySize: -48
AntiAlias: 1
FitToEm: 0
WinInfo: 64 16 4
BeginPrivate: 8
BlueValues 32 [-39 -6 490 521 685 718 765 769]
OtherBlues 11 [-304 -292]
BlueScale 9 0.0291667
BlueShift 1 3
StdHW 4 [67]
StdVW 4 [65]
StemSnapH 23 [61 62 63 65 67 94 130]
StemSnapV 14 [40 58 65 125]
EndPrivate
BeginChars: 65537 122

StartChar: .notdef
Encoding: 65536 -1 0
Width: 590
GlyphClass: 1
Flags: HMW
HStem: 688 20G<241 564 241 241>
LayerCount: 2
Fore
SplineSet
223 737 m 1
 596 737 l 1
 367 -255 l 1
 -6 -255 l 1
 223 737 l 1
564 708 m 1
 241 708 l 1
 25 -226 l 1
 349 -226 l 1
 564 708 l 1
EndSplineSet
Validated: 1
EndChar

StartChar: exclam
Encoding: 33 33 11
Width: 590
GlyphClass: 2
Flags: HMW
HStem: -13 130<194.5 257.5>
VStem: 161 131<27.5 80.5>
LayerCount: 2
Fore
SplineSet
312 274 m 0
 308 262 302 253 293 247 c 0
 284 241 276 237 267 237 c 2
 264 237 l 2
 255 237 249 240 246 245 c 0
 244 247 243 250 243 254 c 0
 243 258 244 264 246 272 c 0
 249 281 252 290 256 300 c 0
 260 310 263 318 265 325 c 0
 267 332 270 347 276 371 c 0
 282 395 288 423 294 454 c 0
 300 485 306 515 313 544 c 0
 320 573 325 593 327 603 c 0
 329 613 335 634 344 668 c 0
 353 702 358 724 360 732 c 0
 364 747 371 759 379 766 c 0
 387 773 397 777 407 777 c 2
 410 777 l 2
 418 777 424 775 427 771 c 0
 429 769 430 764 430 759 c 0
 430 754 428 748 427 742 c 0
 426 736 414 691 393 609 c 0
 372 527 356 462 345 411 c 0
 334 360 327 330 324 320 c 0
 321 310 316 295 312 274 c 0
292 75 m 0
 292 70 291 64 290 57 c 0
 286 39 278 24 263 11 c 0
 248 -2 230 -10 209 -12 c 0
 207 -12 204 -13 202 -13 c 0
 187 -13 176 -7 169 3 c 0
 163 12 161 22 161 33 c 0
 161 38 162 44 163 51 c 0
 168 68 177 83 194 96 c 0
 213 110 231 117 250 117 c 0
 265 117 278 112 285 102 c 0
 290 95 292 86 292 75 c 0
EndSplineSet
Validated: 1
EndChar

StartChar: quotedbl
Encoding: 34 34 12
Width: 590
GlyphClass: 2
Flags: HMW
HStem: 448 323<174.5 263 179 263 257 328 257 329>
LayerCount: 2
Fore
SplineSet
263 771 m 2
 271 771 278 769 284 765 c 0
 285 763 287 760 288 756 c 0
 289 752 289 748 288 741 c 0
 282 714 271 669 255 607 c 0
 239 545 228 502 220 479 c 0
 216 468 210 461 202 456 c 0
 194 451 187 448 180 448 c 2
 179 448 l 2
 170 448 162 452 156 457 c 0
 154 459 152 462 152 466 c 0
 152 470 153 474 154 478 c 0
 165 512 176 556 187 609 c 0
 198 662 207 706 214 741 c 0
 215 748 218 753 221 757 c 0
 224 762 228 765 232 766 c 0
 241 769 250 771 257 771 c 2
 263 771 l 2
405 607 m 0
 390 545 378 502 370 479 c 0
 366 468 360 461 352 456 c 0
 344 451 336 448 329 448 c 2
 328 448 l 2
 319 448 311 452 305 457 c 0
 303 459 302 463 302 466 c 0
 302 469 303 473 304 478 c 0
 314 512 325 556 336 609 c 0
 347 662 356 706 363 741 c 0
 364 748 367 753 371 757 c 0
 375 761 378 765 382 766 c 0
 391 769 399 771 406 771 c 2
 412 771 l 2
 417 771 421 771 424 770 c 0
 427 769 431 767 434 765 c 0
 437 763 438 758 438 751 c 0
 438 743 427 695 405 607 c 0
EndSplineSet
Validated: 1
EndChar

StartChar: numbersign
Encoding: 35 35 13
Width: 590
GlyphClass: 2
Flags: HMW
HStem: 205 57<397 435 374 454> 457 60<298 408 274 432 298 516 298 473>
LayerCount: 2
Fore
SplineSet
178 203 m 1
 169 203 l 1
 137 126 115 74 103 47 c 0
 96 36 87 26 74 18 c 0
 65 13 57 10 51 10 c 0
 49 10 45 11 43 12 c 0
 39 12 37 14 36 16 c 0
 34 20 32 26 32 34 c 0
 32 44 34 55 40 67 c 0
 49 86 71 131 102 202 c 1
 55 202 l 2
 43 202 35 204 31 208 c 0
 29 210 26 214 26 217 c 0
 26 218 27 221 27 223 c 0
 29 232 34 241 41 247 c 0
 48 253 60 257 73 257 c 0
 78 257 85 258 95 258 c 0
 105 258 114 260 125 260 c 1
 207 456 l 1
 188 456 l 1
 150 455 l 1
 146 455 l 2
 136 455 129 457 126 461 c 0
 124 464 123 468 123 473 c 2
 123 480 l 2
 124 489 129 497 137 503 c 0
 145 509 155 514 168 514 c 2
 169 514 l 2
 181 514 200 515 224 515 c 2
 231 515 l 1
 297 677 l 2
 304 692 314 702 323 707 c 0
 330 710 335 712 340 712 c 0
 342 712 347 711 349 711 c 0
 358 709 364 705 366 698 c 0
 367 696 368 692 368 689 c 0
 368 683 365 675 361 666 c 2
 298 517 l 1
 432 517 l 1
 493 670 l 2
 500 685 508 695 518 700 c 0
 524 703 530 705 536 705 c 0
 538 705 541 704 544 704 c 0
 553 702 560 698 562 691 c 0
 562 689 563 686 563 684 c 0
 563 677 562 669 557 659 c 0
 544 633 524 586 498 519 c 1
 517 519 l 1
 527 519 l 2
 538 519 548 515 553 509 c 0
 558 504 560 500 560 495 c 0
 560 494 559 492 559 491 c 0
 557 482 551 473 544 467 c 0
 537 461 528 457 516 457 c 2
 473 457 l 1
 397 262 l 1
 454 262 l 2
 464 262 470 260 471 258 c 0
 473 254 474 248 473 239 c 0
 471 228 465 219 460 214 c 0
 454 208 446 205 435 205 c 2
 374 205 l 1
 343 124 322 70 310 43 c 0
 303 31 293 22 281 16 c 0
 273 12 266 10 260 10 c 0
 258 10 253 11 250 12 c 0
 244 13 241 18 240 25 c 0
 240 28 239 32 239 34 c 0
 239 43 242 52 247 63 c 0
 260 90 280 137 307 204 c 1
 288 204 l 1
 178 203 l 1
408 457 m 1
 274 457 l 1
 192 261 l 1
 230 262 274 263 322 263 c 2
 330 263 l 1
 355 323 381 387 408 457 c 1
EndSplineSet
Validated: 1
EndChar

StartChar: dollar
Encoding: 36 36 14
Width: 590
GlyphClass: 2
Flags: HMW
HStem: -17 60<176 210 186 210 190 210>
VStem: 155 63 421 69<235 287>
LayerCount: 2
Fore
SplineSet
132 -8 m 0
 115 -2 102 4 91 13 c 0
 70 31 56 52 49 76 c 0
 48 82 47 89 47 95 c 0
 47 101 49 107 51 112 c 0
 55 121 61 127 70 131 c 0
 77 134 83 137 86 137 c 0
 89 137 93 138 94 138 c 2
 99 138 l 2
 100 138 102 135 104 133 c 0
 106 131 110 125 113 118 c 0
 122 96 133 77 148 64 c 0
 163 50 183 43 208 43 c 2
 210 43 l 1
 218 43 l 1
 245 161 268 268 288 365 c 1
 277 366 268 368 262 369 c 0
 256 370 250 371 246 371 c 0
 228 373 213 378 200 387 c 0
 187 396 177 406 170 419 c 0
 160 438 155 458 155 480 c 0
 155 487 156 494 158 503 c 0
 163 526 171 548 182 569 c 0
 192 590 205 610 221 628 c 0
 237 646 257 661 279 674 c 0
 301 687 326 697 353 702 c 2
 360 704 l 1
 365 725 371 747 376 769 c 0
 379 784 384 795 390 803 c 0
 396 811 402 815 411 815 c 2
 413 815 l 2
 420 815 425 814 427 811 c 0
 429 808 430 803 430 797 c 0
 430 791 428 785 427 778 c 2
 413 711 l 1
 426 710 l 2
 439 710 457 706 479 700 c 0
 501 694 517 689 528 684 c 0
 535 681 540 676 542 670 c 0
 542 668 543 664 543 660 c 0
 543 656 541 651 539 644 c 0
 538 639 536 634 532 631 c 0
 528 628 524 626 521 626 c 2
 512 626 l 2
 506 626 500 627 494 629 c 0
 489 630 483 634 476 638 c 0
 469 642 460 646 449 649 c 0
 438 652 424 655 409 655 c 2
 400 656 l 1
 387 596 369 518 348 421 c 1
 360 419 l 2
 384 415 404 408 421 399 c 0
 439 389 452 378 462 366 c 0
 472 354 479 341 483 326 c 0
 487 311 490 295 490 279 c 0
 490 263 488 247 483 227 c 0
 476 198 466 170 450 144 c 0
 434 118 417 96 397 76 c 0
 377 56 356 40 333 26 c 0
 310 12 286 1 261 -6 c 2
 255 -8 l 1
 246 -52 240 -82 238 -96 c 0
 234 -107 228 -117 220 -123 c 0
 212 -129 204 -132 195 -132 c 2
 194 -132 l 2
 192 -132 189 -131 187 -131 c 0
 184 -129 182 -125 182 -118 c 0
 182 -113 183 -106 185 -97 c 0
 190 -81 196 -54 204 -17 c 1
 190 -17 l 1
 186 -17 l 2
 166 -17 149 -14 132 -8 c 0
232 468 m 0
 245 450 264 437 290 429 c 2
 301 426 l 1
 313 480 329 555 349 651 c 1
 331 645 l 2
 303 636 279 623 259 603 c 0
 239 583 226 560 221 533 c 0
 219 526 218 520 218 513 c 0
 218 496 223 481 232 468 c 0
421 241 m 0
 421 253 419 266 414 281 c 0
 410 294 402 306 390 317 c 0
 378 328 363 338 344 346 c 2
 332 352 l 1
 329 338 l 1
 329 338 318 287 297 188 c 0
 285 133 275 88 267 53 c 1
 287 62 l 2
 319 76 347 95 371 120 c 0
 395 145 410 173 417 205 c 0
 419 217 421 229 421 241 c 0
EndSplineSet
Validated: 1
EndChar

StartChar: percent
Encoding: 37 37 15
Width: 590
GlyphClass: 2
Flags: HMW
HStem: -16 52<329.5 365 338 365> 184 49<392.5 393.5> 444 51<197.5 232 206 232> 645 48<261.5 266>
VStem: 141 41<522.5 546.5> 273 41<63.5 86.5> 304 41<589.5 628> 435 35<99 143> 435 45<129.5 169>
LayerCount: 2
Fore
SplineSet
164 461 m 0xfa
 153 472 145 486 143 503 c 0
 142 510 141 518 141 527 c 0
 141 536 142 548 145 561 c 0
 154 600 170 631 193 656 c 0
 216 681 245 693 278 693 c 0
 304 693 323 683 335 664 c 0
 342 653 345 638 345 618 c 0
 345 601 342 581 336 559 c 0
 327 521 311 493 290 473 c 0
 269 453 242 444 207 444 c 2
 206 444 l 2
 189 444 175 450 164 461 c 0xfa
41 12 m 0
 63 44 107 104 172 192 c 2
 367 470 l 2
 433 563 479 629 505 670 c 0
 513 680 522 686 532 688 c 0
 535 688 539 689 541 689 c 0
 546 689 550 687 555 684 c 0
 558 683 560 681 561 680 c 0
 562 679 563 675 563 673 c 0
 563 665 559 654 548 641 c 0
 515 600 439 497 321 330 c 0
 206 163 127 51 85 -9 c 0
 76 -21 68 -29 61 -34 c 0
 56 -37 51 -39 47 -39 c 0
 43 -39 40 -38 37 -36 c 0
 34 -34 30 -31 29 -29 c 0
 28 -27 27 -24 27 -21 c 0
 27 -12 32 -1 41 12 c 0
230 495 m 2
 232 495 l 2
 249 495 263 501 274 514 c 0
 285 527 294 543 300 563 c 0
 302 574 304 585 304 594 c 0
 304 605 303 615 298 623 c 0
 289 638 276 645 256 645 c 0
 239 645 224 638 212 623 c 0
 201 610 192 592 186 570 c 0
 184 560 182 551 182 542 c 0
 182 533 183 526 186 519 c 0
 193 505 208 497 230 495 c 2
296 1 m 0
 285 12 278 26 275 43 c 0
 274 50 273 59 273 68 c 0xfc80
 273 77 275 88 277 101 c 0
 285 140 302 171 325 196 c 0
 348 221 376 233 409 233 c 0
 422 233 434 231 443 226 c 0
 453 221 462 214 469 204 c 0
 476 194 480 179 480 159 c 0
 480 142 477 122 470 100 c 1xfd
 470 99 l 1
 459 61 443 32 422 12 c 0
 401 -7 374 -16 341 -16 c 2
 338 -16 l 2
 321 -16 307 -10 296 1 c 0
362 36 m 2
 365 36 l 2
 381 36 395 42 406 55 c 0
 417 68 426 83 431 103 c 0
 433 114 435 125 435 134 c 0
 435 152 431 165 420 174 c 0
 411 181 400 184 387 184 c 0
 370 184 356 176 344 162 c 0
 332 149 323 131 318 110 c 0
 316 100 314 91 314 82 c 0
 314 73 316 66 319 59 c 0
 326 45 340 37 362 36 c 2
EndSplineSet
Validated: 1
EndChar

StartChar: ampersand
Encoding: 38 38 16
Width: 590
GlyphClass: 2
Flags: HMW
HStem: -29 69 657 55
VStem: 49 71<105.001 142.501> 227 64<541.001 542.001> 394 71<8.00098 34>
LayerCount: 2
Fore
SplineSet
461 5 m 0
 456 -11 449 -20.9990234375 441 -23.9990234375 c 0
 436 -25.9990234375 432 -27.9990234375 428 -27.9990234375 c 0
 423 -27.9990234375 419 -25.9990234375 415 -23.9990234375 c 0
 406 -17.9990234375 399 -6.9990234375 394 8.0009765625 c 0
 394 12.0009765625 392 22.0009765625 390 38.0009765625 c 0
 388 54.0009765625 386 65.0009765625 384 73.0009765625 c 2
 379 97.0009765625 l 1
 363 79.0009765625 l 2
 361 77.0009765625 356 70.0009765625 348 62.0009765625 c 2
 330 44.0009765625 l 2
 311 25.0009765625 298 13.0009765625 290 8.0009765625 c 0
 284 4.0009765625 276 0.0009765625 267 -5.9990234375 c 0
 258 -11.9990234375 249 -16.9990234375 241 -18.9990234375 c 0
 233 -20.9990234375 224 -23.9990234375 213 -25.9990234375 c 0
 202 -27.9990234375 192 -28.9990234375 182 -28.9990234375 c 0
 150 -28.9990234375 123 -19.9990234375 101 -2.9990234375 c 0
 79 14.0009765625 63 37.0009765625 55 66.0009765625 c 0
 51 81.0009765625 49 97.0009765625 49 113.000976562 c 0
 49 129.000976562 51 145.000976562 55 162.000976562 c 0
 83 284.000976562 148 367.000976562 252 411.000976562 c 2
 263 416.000976562 l 1
 247 460.000976562 238 486.000976562 236 491.000976562 c 0
 234 497.000976562 232 505.000976562 230 513.000976562 c 0
 228 521.000976562 227 528.000976562 227 533.000976562 c 0
 227 551.000976562 229 569.000976562 233 587.000976562 c 0
 238 609.000976562 249 632.000976562 267 653.000976562 c 0
 276 664.000976562 287 675.000976562 299 683.000976562 c 0
 311 691.000976562 326 698.000976562 344 704.000976562 c 0
 362 710.000976562 380 712.000976562 401 712.000976562 c 0
 418 712.000976562 434 710.000976562 448 704.000976562 c 0
 462 698.000976562 474 690.000976562 484 680.000976562 c 0
 494 670.000976562 500 657.000976562 504 640.000976562 c 0
 505.888671875 631.974609375 506.885742188 623.279296875 506.885742188 614.020507812 c 0
 506.885742188 603.668945312 505.639648438 592.61328125 503 581 c 0
 498 561 491 542 482 525 c 0
 473 508 464 493 454 481 c 0
 444 469 432 458 418 447 c 0
 404 436 391 427 380 421 c 0
 369 415 357 409 342 402 c 2
 333 397 l 1
 336 387 l 2
 343 366 355 335 372 294 c 0
 389 253 400 227 405 214 c 2
 413 191 l 1
 428 213 440 232 448 244 c 0
 456 256 463 266 468 273 c 0
 473 280 477 286 479 289 c 0
 493 305 504 315 513 318 c 0
 515 319 519 320 521 320 c 0
 525 320 529 318 534 316 c 0
 539 313 541 307 541 300 c 0
 541 287 534 272 523 255 c 0
 519 249 507 236 487 215 c 0
 467 194 448 174 431 153 c 1
 436 137 443 116 450 93 c 0
 457 70 461 55 462 50 c 0
 463 45 465 38 465 30 c 0
 465 22 463 14 461 5 c 0
380 657.000976562 m 0
 355 657.000976562 335 648.000976562 320 631.000976562 c 0
 308 617.000976562 299 598.000976562 294 575.000976562 c 0
 292 566.000976562 291 556.000976562 291 546.000976562 c 0
 291 536.000976562 292 526.000976562 294 515.000976562 c 0
 297 493.000976562 304 474.000976562 313 458.000976562 c 2
 318 450.000976562 l 1
 328 453.000976562 l 2
 343 458.000976562 357 463.000976562 368 468.000976562 c 0
 379 473.000976562 390 480.000976562 401 489.000976562 c 0
 412 498.000976562 422 508.000976562 429 521.000976562 c 0
 436 534.000976562 442 550.000976562 446 567.000976562 c 0
 448 576.000976562 450 585.000976562 450 593.000976562 c 0
 450 610.000976562 445 623.000976562 436 634.000976562 c 0
 422 649.000976562 403 657.000976562 380 657.000976562 c 0
133 82.0009765625 m 0
 148 54.0009765625 173 40.0009765625 206 40.0009765625 c 0
 221 40.0009765625 238 43.0009765625 258 49.0009765625 c 0
 265 51.0009765625 273 56.0009765625 281 61.0009765625 c 0
 289 66.0009765625 294 69.0009765625 299 72.0009765625 c 0
 304 75.0009765625 309 80.0009765625 316 87.0009765625 c 0
 323 94.0009765625 329 99.0009765625 331 102.000976562 c 0
 333 105.000976562 338 109.000976562 344 116.000976562 c 0
 350 123.000976562 354 127.000976562 355 128.000976562 c 2
 360 133.000976562 l 1
 354 163.000976562 349 186.000976562 345 201.000976562 c 0
 340 217.000976562 330 242.000976562 316 277.000976562 c 0
 302 312.000976562 292 337.000976562 286 354.000976562 c 2
 281 366.000976562 l 1
 269 361.000976562 l 2
 248 352.000976562 229 341.000976562 212 327.000976562 c 0
 195 313.000976562 181 298.000976562 170 282.000976562 c 0
 159 266.000976562 150 249.000976562 143 232.000976562 c 0
 136 215.000976562 131 197.000976562 126 177.000976562 c 0
 122 162.000976562 120 149.000976562 120 136.000976562 c 0
 120 115.000976562 124 97.0009765625 133 82.0009765625 c 0
EndSplineSet
Validated: 524289
EndChar

StartChar: quotesingle
Encoding: 39 39 17
Width: 590
GlyphClass: 2
Flags: HMW
HStem: 458 302<255 334 255 334>
LayerCount: 2
Fore
SplineSet
335 760 m 2
 343 760 350 758 356 754 c 0
 357 753 359 750 360 746 c 0
 361 742 360 737 359 730 c 0
 353 704 344 663 330 608 c 0
 316 553 305 513 297 490 c 0
 293 479 287 470 279 465 c 0
 271 460 264 458 257 458 c 2
 255 458 l 2
 245 459 237 463 232 468 c 0
 230 470 229 473 229 477 c 0
 229 481 230 484 231 489 c 0
 241 524 251 563 261 609 c 0
 271 655 280 696 287 731 c 0
 287 737 289 743 293 747 c 0
 297 751 301 754 305 755 c 0
 314 758 322 760 329 760 c 2
 334 760 l 1
 335 760 l 2
EndSplineSet
Validated: 1
EndChar

StartChar: parenleft
Encoding: 40 40 18
Width: 590
GlyphClass: 2
Flags: HMW
HStem: -119 60<230.5 273> 745 57<438.5 471.5>
VStem: 103 71<140.5 147.5>
LayerCount: 2
Fore
SplineSet
269 -59 m 0
 277 -59 282 -61 284 -64 c 0
 285 -65 287 -67 287 -71 c 0
 287 -75 285 -81 284 -90 c 0
 282 -98 278 -104 270 -110 c 0
 262 -116 255 -119 249 -119 c 0
 212 -119 181 -105 157 -76 c 0
 132 -45 116 -3 108 52 c 0
 105 77 103 103 103 130 c 0
 103 165 105 203 111 244 c 0
 118 293 134 356 158 433 c 0
 182 510 208 574 237 623 c 0
 250 644 265 666 283 687 c 0
 301 708 320 727 341 744 c 0
 362 761 384 775 406 786 c 0
 428 797 448 802 468 802 c 0
 475 802 480 801 482 799 c 0
 484 797 486 793 486 788 c 0
 486 785 486 781 485 776 c 0
 483 765 478 757 471 752 c 0
 464 747 457 745 448 745 c 0
 429 745 412 740 394 729 c 0
 376 718 359 703 344 685 c 0
 315 651 290 609 268 558 c 0
 251 523 234 475 217 414 c 0
 200 353 189 304 183 268 c 0
 177 232 174 197 174 164 c 0
 174 117 179 76 188 41 c 0
 195 12 206 -11 219 -29 c 0
 234 -49 250 -59 269 -59 c 0
EndSplineSet
Validated: 1
EndChar

StartChar: parenright
Encoding: 41 41 19
Width: 590
GlyphClass: 2
Flags: HMW
HStem: -119 60<136.5 140.5> 745 57<318.5 348.5>
VStem: 421 65<551.5 571>
LayerCount: 2
Fore
SplineSet
486 571 m 0
 486 532 482 488 475 438 c 0
 464 361 450 298 434 250 c 0
 411 177 383 113 349 57 c 0
 315 1 279 -42 239 -73 c 0
 199 -104 160 -119 121 -119 c 0
 116 -119 111 -117 107 -112 c 0
 105 -110 104 -106 104 -102 c 2
 104 -96 l 2
 107 -81 112 -71 118 -66 c 0
 124 -61 132 -59 141 -59 c 0
 158 -59 178 -50 200 -31 c 0
 221 -14 241 10 262 38 c 0
 283 66 302 99 322 139 c 0
 342 179 357 218 370 259 c 0
 382 297 394 348 405 410 c 0
 416 472 421 522 421 560 c 0
 421 582 420 603 417 624 c 0
 414 645 409 663 402 682 c 0
 395 701 385 716 371 728 c 0
 357 740 341 745 322 745 c 0
 315 745 309 747 305 751 c 0
 303 753 302 755 302 759 c 0
 302 763 303 768 304 773 c 0
 305 778 308 784 311 788 c 0
 314 792 317 795 319 796 c 0
 326 800 332 802 339 802 c 0
 358 802 376 797 393 787 c 0
 410 777 424 764 436 747 c 0
 448 730 459 711 467 690 c 0
 475 669 481 648 483 627 c 0
 485 610 486 592 486 571 c 0
EndSplineSet
Validated: 1
EndChar

StartChar: asterisk
Encoding: 42 42 20
Width: 590
GlyphClass: 2
Flags: HMW
HStem: 305 80<94.5 117> 313 71<483 503.5> 319 52<386.5 396.5 345 414>
VStem: 213 62 313 66<145 173>
LayerCount: 2
Fore
SplineSet
339 129 m 0x98
 332 129 326 131 321 134 c 0
 319 135 316 137 315 139 c 0
 314 141 313 144 313 146 c 0
 312 173 305 213 292 264 c 2
 285 290 l 1
 270 268 l 2
 226 206 198 165 187 145 c 0
 184 139 179 134 174 131 c 0
 169 129 163 126 158 126 c 2
 152 126 l 2
 150 126 146 126 142 127 c 0
 138 128 133 130 131 132 c 0
 129 134 126 137 125 141 c 0
 124 145 123 148 123 151 c 2
 123 159 l 2
 123 166 127 173 133 182 c 2
 237 312 l 1
 210 311 l 2
 159 307 121 305 97 305 c 0
 92 305 87 307 84 308 c 0
 81 309 78 312 76 315 c 0
 73 320 71 325 71 331 c 2
 73 341 l 2
 73 346 75 351 77 356 c 0
 84 369 91 378 100 382 c 0
 105 384 109 385 114 385 c 2
 117 385 l 2
 145 383 192 379 259 374 c 1
 253 391 l 2
 238 440 224 477 213 503 c 0
 211 509 210 515 210 521 c 0
 210 527 211 534 213 540 c 0
 217 551 223 559 231 562 c 0
 237 566 243 568 249 568 c 0
 254 568 260 566 265 562 c 0
 270 558 274 552 275 545 c 0
 278 529 289 483 309 406 c 1
 325 426 l 2
 360 471 388 509 408 540 c 0
 413 549 420 556 427 560 c 0
 434 564 441 566 446 566 c 0
 451 566 456 564 459 561 c 2
 460 561 l 2
 462 560 465 557 466 552 c 0
 466 550 467 546 467 543 c 0
 467 530 463 518 453 507 c 0
 426 476 394 437 359 390 c 2
 345 371 l 1x38
 369 371 l 2
 424 371 465 375 491 382 c 0
 495 383 499 384 501 384 c 0x58
 506 384 510 381 512 378 c 0
 516 373 519 367 519 362 c 0
 519 357 517 350 513 341 c 0
 506 328 499 319 491 315 c 0
 489 314 486 313 484 313 c 0
 482 313 480 314 479 314 c 0
 463 317 435 319 393 319 c 0x38
 380 319 361 318 336 318 c 1
 377 187 l 2
 378 182 379 176 379 170 c 0
 379 164 378 159 376 154 c 0
 373 145 368 138 362 134 c 0
 356 130 348 129 339 129 c 0x98
EndSplineSet
Validated: 1
EndChar

StartChar: plus
Encoding: 43 43 21
Width: 590
GlyphClass: 2
Flags: HMW
HStem: 370 59<246 275 246 275>
LayerCount: 2
Fore
SplineSet
152 369 m 2
 141 369 133 371 131 376 c 0
 129 379 127 383 127 388 c 0
 127 390 128 394 128 397 c 0
 130 407 135 415 142 422 c 0
 149 428 157 431 168 431 c 2
 171 431 l 2
 214 430 245 429 265 429 c 2
 275 429 l 1
 284 469 293 508 300 547 c 0
 301 557 305 565 310 570 c 0
 317 577 326 580 338 580 c 2
 341 580 l 2
 348 580 354 578 358 575 c 0
 359 574 360 571 360 567 c 0
 360 563 359 559 357 553 c 0
 346 514 336 472 325 427 c 1
 443 427 l 2
 453 427 459 425 460 423 c 0
 461 421 463 418 463 413 c 0
 463 406 461 398 458 391 c 0
 456 387 453 383 450 379 c 0
 445 373 438 370 429 370 c 2
 429 370 427 371 425 371 c 0
 415 371 401 372 381 372 c 0
 361 372 338 371 311 371 c 1
 306 347 300 323 295 298 c 0
 290 273 286 258 285 253 c 0
 282 240 277 232 272 227 c 0
 266 223 259 220 251 220 c 0
 244 220 239 221 236 223 c 0
 233 225 232 229 232 235 c 0
 232 239 232 243 233 248 c 2
 261 370 l 1
 246 370 l 1
 152 369 l 2
EndSplineSet
Validated: 1
EndChar

StartChar: comma
Encoding: 44 44 22
Width: 590
GlyphClass: 2
Flags: HMW
VStem: 178 234
LayerCount: 2
Fore
SplineSet
178 -185 m 2
 178 -182 l 2
 178 -176 181 -169 188 -161 c 0
 206 -140 235 -95 274 -27 c 0
 313 41 338 89 349 116 c 0
 351 123 357 129 363 133 c 0
 369 137 375 139 380 139 c 2
 381 139 l 2
 387 139 393 138 398 137 c 0
 403 135 408 131 410 125 c 0
 411 123 412 120 412 117 c 0
 412 114 410 108 408 101 c 0
 395 68 370 19 334 -48 c 0
 298 -115 273 -157 259 -172 c 0
 247 -185 234 -195 219 -200 c 0
 211 -202 204 -204 198 -204 c 0
 195 -204 191 -203 189 -202 c 0
 186 -201 183 -198 181 -196 c 0
 179 -193 178 -189 178 -185 c 2
EndSplineSet
Validated: 1
EndChar

StartChar: hyphen
Encoding: 45 45 23
Width: 590
GlyphClass: 2
Flags: HMW
HStem: 255 62<177.5 217.5> 264 56<387 414.5>
LayerCount: 2
Fore
SplineSet
200 317 m 0x80
 235 317 277 317 326 318 c 0
 375 319 403 320 410 320 c 0x40
 419 320 425 318 427 316 c 0
 429 312 430 306 429 298 c 0
 427 287 421 278 416 273 c 0
 410 267 402 264 391 264 c 0
 383 264 351 262 296 259 c 0
 241 256 202 255 181 255 c 0
 174 255 168 256 165 258 c 0
 162 260 161 264 161 270 c 0
 161 274 162 278 163 283 c 0
 164 294 168 303 173 308 c 0
 180 314 189 317 200 317 c 0x80
EndSplineSet
Validated: 1
EndChar

StartChar: period
Encoding: 46 46 24
Width: 590
GlyphClass: 2
Flags: HMW
HStem: -2 130<261.5 325.5 269 325.5>
VStem: 229 131<37.5 90.5>
LayerCount: 2
Fore
SplineSet
360 85 m 0
 360 80 359 74 358 68 c 0
 354 49 346 34 331 21 c 0
 316 8 298 0 277 -2 c 2
 269 -2 l 2
 254 -2 244 3 237 13 c 0
 232 22 229 32 229 43 c 0
 229 49 230 55 231 61 c 0
 235 79 246 94 263 107 c 0
 282 121 299 128 318 128 c 0
 333 128 345 123 352 113 c 0
 357 105 360 96 360 85 c 0
EndSplineSet
Validated: 1
EndChar

StartChar: slash
Encoding: 47 47 25
Width: 590
GlyphClass: 2
Flags: W
LayerCount: 2
Fore
SplineSet
-10 -31 m 0
 -10 -28 -9 -24 -9 -20 c 0
 -7 -3 1 12 12 27 c 0
 140 187 250 329 343 454 c 0
 402 530 465 617 532 714 c 0
 539 723 545 730 553 734 c 0
 561 738 568 741 574 741 c 0
 580 741 585 739 591 737 c 0
 597 733 601 727 601 719 c 0
 601 710 594 698 585 683 c 0
 561 649 497 566 392 433 c 0
 287 300 223 218 200 185 c 0
 185 164 161 129 127 80 c 0
 93 31 72 1 64 -10 c 0
 51 -27 36 -38 21 -45 c 0
 14 -47 9 -49 5 -49 c 0
 1 -49 -3 -48 -5 -46 c 2
 -6 -46 l 2
 -8 -44 -10 -38 -10 -31 c 0
EndSplineSet
Validated: 1
EndChar

StartChar: zero
Encoding: 48 48 26
Width: 590
GlyphClass: 2
Flags: HMW
HStem: -12 60<211 211.5> 649 57<370 371>
VStem: 63 77<133.5 211>
LayerCount: 2
Fore
SplineSet
74 211 m 0
 75 218 78 235 84 261 c 0
 90 287 95 308 99 324 c 0
 103 340 109 361 116 388 c 0
 123 415 130 438 136 458 c 0
 142 478 150 500 160 522 c 0
 170 544 179 565 188 582 c 0
 210 623 238 653 273 674 c 0
 308 695 348 706 392 706 c 0
 414 706 435 702 453 693 c 0
 471 684 486 671 498 655 c 0
 510 639 518 618 523 591 c 0
 525 578 526 564 526 548 c 0
 526 532 524 516 522 496 c 0
 517 463 509 425 500 383 c 0
 491 341 480 298 468 256 c 0
 456 214 445 181 434 159 c 0
 414 117 394 82 374 57 c 0
 365 45 357 34 346 26 c 0
 335 18 325 11 315 6 c 0
 305 1 294 -3 282 -5 c 0
 270 -7 258 -10 246 -11 c 0
 234 -12 220 -12 203 -12 c 0
 178 -12 155 -7 134 3 c 0
 113 13 98 27 86 46 c 0
 74 65 66 88 64 116 c 0
 64 123 63 130 63 137 c 0
 63 159 67 184 74 211 c 0
276 616 m 0
 253 594 232 559 212 511 c 0
 205 494 198 473 192 451 c 0
 186 429 179 402 172 370 c 0
 165 338 160 315 158 302 c 2
 144 232 l 2
 144 230 142 226 142 221 c 0
 142 216 140 212 140 210 c 2
 125 160 l 1
 161 198 l 1
 263 321 358 447 449 576 c 1
 454 581 l 1
 451 588 l 2
 442 608 430 622 414 633 c 0
 399 644 381 649 361 649 c 0
 328 649 299 638 276 616 c 0
264 53 m 0
 277 56 291 61 304 70 c 0
 331 86 354 117 375 162 c 0
 379 171 386 194 396 230 c 0
 407 266 419 307 431 354 c 0
 443 401 451 446 458 489 c 2
 466 542 l 1
 436 498 l 1
 343 352 246 230 142 131 c 1
 137 127 l 1
 138 120 l 2
 143 93 154 74 171 62 c 0
 184 53 201 48 221 48 c 0
 237 48 251 50 264 53 c 0
EndSplineSet
Validated: 1
EndChar

StartChar: one
Encoding: 49 49 27
Width: 590
GlyphClass: 2
Flags: HMW
HStem: 3 67
LayerCount: 2
Fore
SplineSet
498 47 m 2
 498 40 l 2
 496 29 491 21 484 14 c 0
 477 7 466 3 451 3 c 0
 248 5 133 7 111 7 c 0
 102 7 97 9 95 13 c 0
 93 16 91 19 91 23 c 0
 91 27 93 31 93 35 c 0
 95 46 98 55 105 62 c 0
 112 69 121 72 132 72 c 0
 160 72 208 71 275 70 c 1
 282 103 288 129 290 146 c 0
 290 151 293 168 299 197 c 2
 313 262 l 2
 315 275 322 300 330 336 c 0
 338 372 345 399 349 417 c 0
 364 481 379 549 399 620 c 1
 372 598 l 2
 325 558 291 534 271 525 c 0
 269 524 267 523 265 523 c 0
 261 523 256 527 252 532 c 0
 247 539 246 545 246 551 c 0
 246 553 247 555 247 557 c 0
 248 566 251 574 256 581 c 0
 261 588 268 595 279 604 c 0
 298 619 317 636 338 653 c 2
 385 692 l 2
 396 699 406 705 415 710 c 0
 424 715 431 718 436 718 c 0
 445 718 454 713 463 704 c 0
 470 697 475 691 475 686 c 2
 475 685 l 1
 475 685 461 633 434 529 c 0
 407 430 392 373 389 357 c 0
 375 290 363 234 354 190 c 0
 349 165 341 124 332 67 c 1
 357 67 391 66 431 65 c 0
 453 65 468 64 474 64 c 0
 480 64 486 63 489 62 c 0
 492 61 495 59 495 58 c 0
 497 56 498 52 498 47 c 2
EndSplineSet
Validated: 1
EndChar

StartChar: two
Encoding: 50 50 28
Width: 590
GlyphClass: 2
Flags: HMW
HStem: -5 59 0 64<400 406> 650 60<379.5 391.5>
VStem: 472 68<578.5 582>
LayerCount: 2
Fore
SplineSet
222 -5 m 0xb0
 195 -6 166 -7 135 -7 c 0
 104 -7 80 -6 63 -4 c 0
 59 -4 57 -1 55 1 c 0
 52 5 49 12 49 23 c 0
 49 38 54 57 59 81 c 0
 66 108 77 137 95 167 c 0
 113 197 136 227 165 256 c 0
 192 284 219 307 248 324 c 0
 317 365 364 393 385 409 c 0
 414 431 436 456 449 482 c 0
 456 496 463 514 468 536 c 0
 470 549 472 560 472 571 c 0
 472 593 466 610 454 623 c 0
 437 641 409 650 374 650 c 0
 350 650 327 642 302 625 c 0
 277 608 257 590 241 569 c 0
 228 553 218 544 212 544 c 2
 208 544 l 2
 207 544 205 544 203 545 c 0
 201 546 196 549 191 551 c 0
 186 554 185 559 185 566 c 0
 185 572 191 584 200 603 c 0
 207 615 217 627 230 639 c 0
 243 651 258 662 275 673 c 0
 292 684 311 693 331 700 c 0
 351 707 370 710 389 710 c 0
 451 710 493 695 518 664 c 0
 533 645 540 620 540 588 c 0
 540 569 538 548 533 525 c 0
 520 472 497 430 465 398 c 0
 441 374 403 347 352 318 c 0
 336 308 316 296 289 281 c 0
 259 265 232 246 210 223 c 0
 188 200 171 176 158 151 c 0
 145 127 133 101 125 73 c 2
 121 58 l 1
 168 56 208 54 241 54 c 0
 266 54 285 55 301 56 c 0
 317 57 330 58 341 59 c 0
 352 60 371 62 400 64 c 2x70
 409 64 l 2
 413 64 417 65 421 65 c 0
 425 65 429 64 431 64 c 0
 432 63 434 61 436 60 c 2
 436 56 l 1
 436 52 l 2
 436 45 434 37 431 29 c 0
 428 21 422 14 416 8 c 0
 412 3 408 0 404 0 c 0
 364 0 305 -1 222 -5 c 0xb0
EndSplineSet
Validated: 1
EndChar

StartChar: three
Encoding: 51 51 29
Width: 590
GlyphClass: 2
Flags: HMW
HStem: -12 60<226.5 248.5> 330 76<256.5 277> 650 60<354.5 368.5>
VStem: 394 74<214.5 271> 456 69<584.5 585.5>
LayerCount: 2
Fore
SplineSet
461 201 m 0xf0
 446 136 416 84 372 45 c 0
 330 7 279 -12 218 -12 c 0
 199 -12 181 -9 163 -2 c 0
 145 4 130 12 117 22 c 0
 104 32 93 44 84 56 c 0
 75 68 69 80 67 91 c 0
 66 96 65 101 65 107 c 0
 65 113 67 119 69 125 c 0
 74 135 80 142 88 146 c 0
 96 150 103 152 108 152 c 0
 110 152 113 151 115 151 c 0
 122 149 127 143 132 132 c 0
 141 110 155 90 175 73 c 0
 193 56 214 48 239 48 c 0
 275 48 307 60 335 84 c 0
 363 108 382 140 390 179 c 0
 392 194 394 208 394 221 c 0
 394 248 388 271 373 289 c 0
 351 316 308 330 246 330 c 0
 243 330 239 332 237 333 c 0
 235 334 232 337 230 341 c 0
 227 346 225 352 225 359 c 0
 225 361 226 365 226 368 c 0
 228 380 233 389 239 396 c 0
 245 403 252 406 261 406 c 0
 310 406 351 418 384 442 c 0
 420 466 443 501 452 546 c 0
 454 557 456 566 456 575 c 0xe8
 456 596 449 612 434 625 c 0
 414 642 387 650 350 650 c 0
 338 650 325 647 311 642 c 0
 306 640 300 636 294 632 c 0
 288 628 283 624 280 622 c 0
 277 620 273 614 267 608 c 2
 254 595 l 2
 252 593 248 587 243 580 c 0
 232 567 223 560 216 558 c 0
 214 558 212 557 210 557 c 0
 205 557 201 559 196 562 c 0
 194 564 191 566 190 568 c 0
 189 570 189 574 189 577 c 0
 189 588 194 600 203 615 c 0
 218 640 239 662 265 680 c 0
 278 689 294 697 311 702 c 0
 328 707 345 710 364 710 c 0
 428 710 474 695 500 666 c 0
 517 648 525 624 525 593 c 0
 525 576 522 556 517 535 c 0
 513 516 507 500 499 485 c 0
 491 470 482 458 472 448 c 0
 462 438 451 429 438 421 c 0
 425 413 413 408 401 403 c 0
 390 398 378 394 365 392 c 2
 317 381 l 1
 365 368 l 2
 386 363 403 356 417 348 c 0
 431 340 443 330 452 317 c 0
 463 302 468 283 468 259 c 0
 468 242 466 222 461 201 c 0xf0
EndSplineSet
Validated: 1
EndChar

StartChar: four
Encoding: 52 52 30
Width: 590
GlyphClass: 2
Flags: HMW
HStem: 236 55<264.5 369 356 357>
VStem: 313 50 313 63<17 62 19 62>
LayerCount: 2
Fore
SplineSet
320 -1 m 0xa0
 315 5 313 11 313 17 c 2
 313 19 l 1
 318 40 326 78 337 134 c 2
 357 236 l 1
 305 236 l 2
 224 236 164 232 123 223 c 0
 119 223 115 222 112 222 c 0
 109 222 105 222 103 223 c 0
 99 225 96 228 94 231 c 0
 92 238 90 246 90 255 c 0
 90 260 92 266 93 274 c 0
 94 282 97 290 101 297 c 0
 112 315 135 345 172 387 c 0
 207 429 249 480 299 542 c 0
 349 604 387 650 411 679 c 0
 421 690 431 699 441 705 c 0
 451 711 460 713 467 713 c 2
 468 713 l 1
 474 713 l 2
 481 713 488 711 493 708 c 0
 498 705 500 699 500 691 c 2
 500 691 499 689 499 688 c 0
 498 665 492 629 483 581 c 0
 474 533 466 491 459 458 c 2
 423 291 l 1
 444 291 461 290 474 290 c 0
 484 290 490 287 492 285 c 0
 494 281 494 275 493 267 c 0
 491 256 486 247 481 242 c 0
 475 235 467 232 455 232 c 0
 443 232 428 233 411 234 c 1
 389 129 376 69 376 55 c 0
 376 36 371 20 363 7 c 0xc0
 356 -5 348 -11 339 -11 c 0
 332 -11 326 -8 320 -1 c 0xa0
438 640 m 1
 410 610 l 1
 301 481 223 380 177 308 c 2
 163 287 l 1
 188 289 l 2
 220 291 259 292 303 292 c 0
 321 292 343 291 369 291 c 1
 398 423 418 526 431 600 c 2
 438 640 l 1
EndSplineSet
Validated: 1
EndChar

StartChar: five
Encoding: 53 53 31
Width: 590
GlyphClass: 2
Flags: HMW
HStem: -6 60<198.5 215.5> 433 64<320 380.5> 633 62<487.5 545.5 530 545.5> 639 61
VStem: 413 70<327 379.5>
LayerCount: 2
Fore
SplineSet
476 299 m 0xd8
 465 250 449 207 429 168 c 0
 410 129 388 97 365 72 c 0
 342 47 316 27 288 14 c 0
 260 1 231 -6 200 -6 c 0
 176 -6 153 -3 133 3 c 0
 112 9 96 17 84 26 c 0
 72 35 64 45 57 56 c 0
 50 67 44 78 41 89 c 0
 40 96 40 102 40 108 c 0
 40 114 40 121 42 126 c 0
 46 134 53 140 62 145 c 0
 73 150 81 152 85 152 c 0
 86 152 88 151 90 151 c 0
 92 151 95 150 96 148 c 0
 98 144 101 138 104 131 c 0
 115 103 131 83 152 70 c 0
 169 59 188 54 209 54 c 0
 254 54 296 75 332 117 c 0
 367 159 392 213 407 282 c 0
 411 302 413 319 413 335 c 0
 413 356 409 374 402 389 c 0
 395 405 385 417 370 424 c 0
 358 430 344 433 328 433 c 0
 312 433 295 430 278 426 c 0
 268 424 256 418 240 409 c 0
 236 407 230 403 223 398 c 0
 216 393 211 389 209 387 c 0
 207 385 198 376 183 363 c 0
 172 354 159 348 145 347 c 0
 144 347 143 346 142 346 c 0
 137 346 132 348 127 350 c 0
 120 353 117 364 117 383 c 0
 117 396 119 412 123 432 c 0
 127 452 132 473 138 494 c 0
 144 515 151 538 158 563 c 0
 165 588 169 606 171 619 c 1
 170 623 l 2
 168 627 167 632 167 638 c 0
 167 640 168 644 168 646 c 0
 168 656 171 665 175 673 c 0
 179 681 183 687 189 692 c 0
 195 697 201 700 206 700 c 0
 227 700 275 699 353 698 c 0
 434 697 497 696 541 696 c 0
 542 696 544 695 545 695 c 0xe8
 546 695 547 693 547 692 c 0
 549 687 551 682 551 676 c 2
 551 672 l 2
 551 664 548 657 546 650 c 0
 545 647 543 644 542 642 c 0
 541 640 539 637 537 636 c 0
 535 635 533 633 531 633 c 0
 529 633 525 631 522 631 c 2
 515 631 l 2
 514 631 510 632 505 632 c 0
 500 632 495 633 490 633 c 0
 485 633 472 634 451 636 c 0
 430 638 411 640 395 641 c 0
 379 642 358 643 329 643 c 0
 300 643 266 641 229 639 c 1
 226 626 221 604 213 572 c 0
 205 540 200 517 197 502 c 0
 194 487 188 454 178 403 c 1
 203 430 l 2
 223 450 246 465 275 478 c 0
 304 491 336 497 369 497 c 0
 392 497 412 492 428 482 c 0
 446 473 457 459 466 442 c 0
 477 421 483 395 483 364 c 0
 483 343 481 321 476 299 c 0xd8
EndSplineSet
Validated: 1
EndChar

StartChar: six
Encoding: 54 54 32
Width: 590
GlyphClass: 2
Flags: HMW
HStem: -10 60<216.5 251> 405 64<314.5 381.5>
VStem: 83 58<186.5 192> 426 71<299 358>
LayerCount: 2
Fore
SplineSet
485 248 m 0
 477 213 463 178 444 146 c 0
 425 114 404 86 381 64 c 0
 360 42 337 23 311 10 c 0
 285 -3 259 -10 233 -10 c 0
 200 -10 171 -3 148 12 c 0
 125 27 109 48 99 75 c 0
 89 102 83 134 83 171 c 0
 83 213 90 260 103 313 c 0
 116 370 133 421 154 465 c 0
 175 509 197 547 219 578 c 0
 240 609 264 635 290 656 c 0
 316 677 344 693 372 704 c 0
 402 715 435 722 472 725 c 2
 479 725 l 2
 488 725 496 723 501 720 c 0
 503 719 504 716 505 714 c 0
 506 712 507 709 507 708 c 2
 507 704 l 2
 507 699 502 692 493 684 c 0
 484 676 476 670 467 668 c 0
 460 667 449 664 434 661 c 0
 419 658 406 654 395 651 c 0
 385 648 373 643 360 637 c 0
 333 624 303 601 272 567 c 0
 256 549 240 525 223 494 c 0
 206 463 193 436 184 412 c 2
 166 362 l 1
 204 399 l 2
 225 422 250 440 278 452 c 0
 306 464 337 469 369 469 c 0
 394 469 416 466 435 458 c 0
 454 450 467 438 478 421 c 0
 491 401 497 375 497 341 c 0
 497 314 493 283 485 248 c 0
242 378 m 0
 213 360 186 337 162 309 c 2
 160 307 l 1
 152 276 146 251 144 232 c 0
 142 221 141 209 141 197 c 0
 141 176 144 156 150 136 c 0
 155 120 161 105 170 92 c 0
 179 79 190 69 205 61 c 0
 218 54 233 50 249 50 c 2
 251 50 l 2
 273 50 297 59 319 78 c 0
 341 97 361 119 378 147 c 0
 397 175 409 203 416 232 c 0
 423 262 426 288 426 310 c 0
 426 335 421 355 411 369 c 0
 401 382 389 392 376 397 c 0
 363 402 348 405 329 405 c 0
 300 405 271 396 242 378 c 0
EndSplineSet
Validated: 1
EndChar

StartChar: seven
Encoding: 55 55 33
Width: 590
GlyphClass: 2
Flags: HMW
HStem: 634 68
LayerCount: 2
Fore
SplineSet
536 631 m 0
 523 611 500 581 468 541 c 0
 437 501 404 459 373 417 c 0
 342 375 302 319 255 249 c 0
 208 179 161 107 114 33 c 0
 103 16 92 4 80 -3 c 0
 71 -8 64 -11 57 -11 c 2
 52 -11 l 2
 48 -10 44 -7 42 -4 c 0
 40 -1 39 3 39 9 c 0
 39 15 42 24 48 37 c 0
 95 105 144 173 193 241 c 0
 240 309 280 362 311 403 c 0
 342 444 369 483 396 522 c 0
 423 561 444 592 457 616 c 2
 465 633 l 1
 445 634 l 2
 420 634.5 394.5 634.75 368.125 634.75 c 0
 341.75 634.75 314.5 634.5 286 634 c 0
 229 633 191 629 171 624 c 0
 169 624 167 623 166 623 c 0
 165 623 163 624 162 624 c 0
 160 625 157 628 156 630 c 0
 154 637 152 646 153 658 c 0
 155 666 160 673 165 679 c 0
 170 685 177 690 190 692 c 0
 221 699 273 702 343 702 c 0
 365 702 410 700 476 697 c 0
 508 696 525 695 527 695 c 0
 537 695 544 691 549 682 c 0
 550 680 552 676 552 673 c 0
 552 670 551 667 551 665 c 0
 550 656 545 644 536 631 c 0
EndSplineSet
Validated: 524289
EndChar

StartChar: eight
Encoding: 56 56 34
Width: 590
GlyphClass: 2
Flags: HMW
HStem: -16 61<233.5 238> 658 48<350.5 390.5 365 390.5>
VStem: 66 58<122.5 164> 173 60 423 67<217.5 249.5> 462 62<550 586>
LayerCount: 2
Fore
SplineSet
490 244 m 0xf8
 490 233 488 221 485 207 c 0
 475 163 455 122 424 85 c 0
 407 65 391 49 372 34 c 0
 353 19 331 7 305 -2 c 0
 279 -11 252 -16 224 -16 c 0
 195 -16 169 -12 148 -3 c 0
 127 6 110 16 99 29 c 0
 88 42 79 58 74 77 c 0
 69 96 66 113 66 132 c 0
 66 151 68 172 73 194 c 0
 78 215 88 237 104 262 c 0
 120 287 141 310 165 331 c 0
 187 353 211 368 233 376 c 2
 257 384 l 1
 235 398 l 2
 211 413 194 432 184 457 c 0
 177 473 173 489 173 505 c 0
 173 514 174 523 176 531 c 0
 178 539 181 547 184 556 c 0
 186 565 191 574 197 586 c 0
 203 598 208 609 215 620 c 0
 222 631 232 641 243 652 c 0
 254 663 265 672 278 680 c 0
 291 688 306 694 324 699 c 0
 342 704 360 706 380 706 c 0
 401 706 419 704 437 699 c 0
 455 694 469 688 479 681 c 0
 489 674 497 664 504 654 c 0
 511 644 517 634 519 624 c 0
 522 611 524 595 524 577 c 0xf4
 524 563 522 548 519 533 c 0
 518 526 515 519 512 512 c 0
 509 505 505 499 501 493 c 0
 497 487 491 481 485 475 c 0
 479 469 473 464 468 459 c 0
 460 452 444 441 421 426 c 2
 376 396 l 1
 394 386 l 2
 413 376 429 365 442 352 c 0
 455 339 465 327 472 315 c 0
 479 303 484 292 486 279 c 0
 488 266 490 255 490 244 c 0xf8
422 638 m 0
 405 651 387 658 366 658 c 2
 365 658 l 2
 336 658 310 646 284 622 c 0
 258 598 242 570 236 541 c 0
 234 534 233 527 233 521 c 0
 233 502 239 486 251 471 c 0
 266 453 292 435 329 417 c 2
 333 415 l 1
 337 416 l 1
 364 428 389 444 413 465 c 0
 440 486 455 506 459 526 c 0
 461 535 462 545 462 555 c 0
 462 565 460 576 457 587 c 0
 451 608 439 625 422 638 c 0
134 114 m 0
 145 92 160 74 181 63 c 0
 201 51 222 45 245 45 c 0
 262 45 279 49 297 55 c 0
 315 61 332 70 348 81 c 0
 364 92 378 107 391 126 c 0
 404 145 413 165 418 186 c 0
 421 199 423 212 423 223 c 0xf8
 423 233 421 244 418 257 c 0
 415 270 410 282 402 294 c 0
 395 306 384 318 370 330 c 0
 356 342 339 353 318 363 c 2
 315 365 l 1
 311 364 l 2
 267 351 228 328 195 295 c 0
 159 262 136 227 127 189 c 0
 125 179 124 169 124 159 c 0
 124 143 127 128 134 114 c 0
EndSplineSet
Validated: 1
EndChar

StartChar: nine
Encoding: 57 57 35
Width: 590
GlyphClass: 2
Flags: HMW
HStem: 248 64<232 296> 667 60<340 385.5 351 385.5>
VStem: 112 68<412.5 427> 461 57<522.5 530.5>
LayerCount: 2
Fore
SplineSet
495 382 m 0
 482 330 465 283 444 241 c 0
 423 199 399 162 375 133 c 0
 352 104 326 79 298 58 c 0
 270 37 241 22 211 11 c 0
 179 0 145 -7 108 -10 c 0
 106 -10 104 -11 102 -11 c 0
 93 -11 86 -8 80 -5 c 0
 78 -4 75 -2 74 0 c 0
 73 2 73 6 73 10 c 0
 73 16 78 22 86 30 c 0
 94 38 104 44 113 46 c 0
 120 48 131 51 147 55 c 0
 163 59 179 62 192 65 c 0
 203 68 217 73 232 79 c 0
 265 92 295 114 324 145 c 0
 342 165 358 188 375 214 c 0
 392 241 406 265 415 286 c 2
 437 341 l 1
 395 300 l 2
 376 280 355 266 331 259 c 0
 307 252 278 248 243 248 c 0
 221 248 200 253 182 266 c 0
 162 279 147 295 136 316 c 0
 125 337 117 362 114 390 c 0
 113 399 112 408 112 417 c 0
 112 437 114 456 119 476 c 0
 128 512 140 546 159 577 c 0
 178 608 198 635 220 657 c 0
 241 679 264 696 290 708 c 0
 316 720 344 727 371 727 c 0
 400 727 425 721 446 710 c 0
 472 696 491 673 503 642 c 0
 513 615 518 583 518 546 c 0
 518 499 510 444 495 382 c 0
452 581 m 0
 447 597 441 611 432 624 c 0
 423 637 411 647 396 655 c 0
 383 663 368 667 352 667 c 2
 351 667 l 2
 329 667 305 659 282 642 c 0
 259 625 240 603 223 577 c 0
 206 551 194 523 188 494 c 0
 182 468 180 445 180 425 c 0
 180 400 185 378 194 361 c 0
 211 328 241 312 283 312 c 0
 309 312 336 319 363 333 c 0
 391 347 415 366 437 391 c 1
 440 393 l 1
 445 415 450 445 457 485 c 0
 459 496 461 508 461 520 c 0
 461 541 458 561 452 581 c 0
EndSplineSet
Validated: 1
EndChar

StartChar: colon
Encoding: 58 58 36
Width: 590
GlyphClass: 2
Flags: HMW
HStem: 52 131<239.5 284 244 284> 319 131<309 345 309 345>
VStem: 210 108<80 151.5 84 151.5> 271 109<343 424 351 424>
LayerCount: 2
Fore
SplineSet
271 351 m 2xd0
 273 369 279 392 286 419 c 0
 287 426 290 432 294 436 c 0
 298 440 304 443 310 445 c 0
 320 448 329 450 338 450 c 2
 345 450 l 2
 355 450 364 448 372 443 c 0
 377 440 380 433 380 424 c 2
 380 419 l 1
 376 398 368 376 357 352 c 0
 352 341 345 332 335 327 c 0
 325 322 318 319 311 319 c 2
 309 319 l 2
 297 320 288 323 281 327 c 0
 277 329 274 331 273 334 c 0
 272 337 271 340 271 343 c 2
 271 351 l 2xd0
210 80 m 2xe0
 210 84 l 1
 215 110 l 2
 215 112 218 117 219 122 c 0
 220 127 223 137 228 152 c 0
 229 158 232 163 236 167 c 0
 240 171 245 175 250 177 c 0
 261 181 270 183 278 183 c 2
 284 183 l 2
 290 183 296 182 301 180 c 0
 306 178 309 175 313 170 c 0
 317 165 319 160 319 153 c 2
 319 153 318 152 318 151 c 0
 317 129 310 106 299 83 c 0
 294 73 286 65 275 60 c 0
 264 55 255 52 247 52 c 2
 244 52 l 2
 235 52 226 56 218 62 c 0
 213 67 210 73 210 80 c 2xe0
EndSplineSet
Validated: 1
EndChar

StartChar: semicolon
Encoding: 59 59 37
Width: 590
GlyphClass: 2
Flags: HMW
HStem: 277 131<365 399 365 399>
VStem: 326 109<306 382 310 382>
LayerCount: 2
Fore
SplineSet
399 408 m 2
 408 408 418 406 427 401 c 0
 429 400 432 398 433 394 c 0
 434 390 435 386 435 382 c 2
 435 377 l 1
 431 356 423 334 412 310 c 0
 407 299 399 290 390 285 c 0
 381 280 373 277 366 277 c 2
 365 277 l 2
 349 279 337 285 330 294 c 0
 328 297 326 301 326 306 c 2
 326 310 l 2
 328 328 333 351 340 378 c 0
 342 384 346 390 350 394 c 0
 354 398 360 401 366 403 c 0
 372 405 377 407 382 407 c 0
 387 407 392 408 394 408 c 2
 399 408 l 2
347 77 m 0
 341 56 301 -30 227 -182 c 0
 222 -193 215 -201 207 -206 c 0
 199 -211 192 -213 185 -213 c 2
 183 -213 l 2
 174 -213 166 -210 160 -204 c 0
 158 -202 156 -198 156 -194 c 0
 156 -190 157 -187 158 -183 c 0
 163 -168 178 -129 204 -67 c 0
 230 -5 250 41 265 74 c 0
 269 83 272 90 276 95 c 0
 280 100 285 103 287 104 c 0
 294 106 300 107 305 107 c 0
 306 107 309 106 311 106 c 0
 322 106 332 104 341 99 c 0
 346 97 349 92 349 87 c 0
 349 85 348 81 347 77 c 0
EndSplineSet
Validated: 1
EndChar

StartChar: less
Encoding: 60 60 38
Width: 590
GlyphClass: 2
Flags: HMW
HStem: 680 20G<519 525>
LayerCount: 2
Fore
SplineSet
548 669 m 0
 548 663 545 657 540 650 c 0
 531 639 514 626 491 611 c 0
 451 585 388 543 304 483 c 0
 220 423 161 383 130 362 c 1
 140 352 l 2
 160 332 181 307 204 279 c 0
 227 251 247 226 264 203 c 0
 281 180 299 155 320 131 c 0
 341 107 360 88 377 74 c 0
 397 58 406 45 406 35 c 0
 406 32 404 27 401 20 c 0
 398 15 394 10 388 7 c 0
 382 4 374 1 365 0 c 2
 359 0 l 2
 352 0 344 2 335 5 c 0
 322 10 307 21 289 38 c 0
 271 55 252 77 231 102 c 0
 210 127 191 152 171 178 c 0
 151 204 129 230 106 258 c 0
 83 286 64 308 47 324 c 0
 44 327 42 333 42 341 c 0
 42 351 44 361 49 370 c 0
 54 379 59 385 66 389 c 0
 108 418 158 454 215 496 c 0
 272 538 325 576 372 610 c 0
 419 644 460 671 495 691 c 0
 506 697 515 700 523 700 c 0
 527 700 531 700 533 698 c 0
 541 692 546 684 547 675 c 0
 547 673 548 671 548 669 c 0
EndSplineSet
Validated: 1
EndChar

StartChar: equal
Encoding: 61 61 39
Width: 590
GlyphClass: 2
Flags: HMW
HStem: 259 50 259 58 455 61<184.5 189.5>
LayerCount: 2
Fore
SplineSet
190 516 m 2x20
 192 516.000976562 l 2
 228.318359375 514.829101562 268.068359375 514.34375 311.25 514.34375 c 0
 341.784179688 514.34375 374.034179688 514.5859375 408 515 c 0
 440 515 458 516 465 516 c 0
 475 516 482 515 483 513 c 0
 484 511 485 507 485 502 c 0
 485 495 483 487 480 479 c 0
 476 470 471 463 464 461 c 0
 461 460 458 459 456 459 c 2
 449 459 l 2
 435 459 422 460 410 460 c 2
 376 460 l 1
 273 457 l 2
 231 456 200 455 179 455 c 0
 168 455 159 458 154 463 c 0
 151 466 149 470 149 475 c 0
 149 477 150 480 150 482 c 0
 152 492 158 500 165 507 c 0
 172 513 179 516 190 516 c 2x20
150 317.000976562 m 2x60
 170 317.000976562 193 316.000976562 221 316.000976562 c 0
 249 316.000976562 282 318.000976562 322 318.000976562 c 2
 420 320.000976562 l 2
 431 320.000976562 437 318.000976562 438 316.000976562 c 0
 440 313.000976562 440 307.000976562 439 298.000976562 c 0
 437 288.000976562 434 280.000976562 429 273.000976562 c 0
 427 269.000976562 423 266.000976562 419 265.000976562 c 0
 415 264.000976562 412 264.000976562 410 264.000976562 c 2
 403 264.000976562 l 2
 388 264.000976562 371 265.000976562 351 265.000976562 c 0
 331 265.000976562 290 263.000976562 226 261.000976562 c 0
 182 260.000976562 149 259.000976562 129 259.000976562 c 0
 118 259.000976562 110 261.000976562 107 266.000976562 c 0
 105 269.000976562 104 273.000976562 104 278.000976562 c 0
 104 281.000976562 105 285.000976562 105 288.000976562 c 0
 106 296.000976562 111 303.000976562 119 309.000976562 c 0xa0
 127 315.000976562 136 317.000976562 148 317.000976562 c 2
 150 317.000976562 l 2x60
EndSplineSet
Validated: 524289
EndChar

StartChar: greater
Encoding: 62 62 40
Width: 590
GlyphClass: 2
Flags: HMW
HStem: 687 20G<225 231 231 234.5>
LayerCount: 2
Fore
SplineSet
231 707 m 2
 238 707 246 705 255 702 c 0
 268 697 283 686 302 669 c 0
 321 652 339 631 359 606 c 0
 379 581 399 555 419 529 c 0
 439 503 461 477 483 449 c 0
 505 421 526 399 543 383 c 0
 546 380 548 374 548 366 c 0
 548 356 546 346 541 337 c 0
 536 328 531 322 524 318 c 0
 482 290 432 254 375 212 c 0
 318 170 266 131 219 97 c 0
 172 63 130 36 95 16 c 0
 84 10 75 7 67 7 c 0
 62 7 59 7 57 9 c 0
 53 12 49 16 47 20 c 0
 45 24 43 26 43 30 c 0
 43 34 42 37 42 38 c 0
 42 44 45 50 50 57 c 0
 59 68 75 81 99 96 c 0
 140 122 203 164 287 224 c 0
 371 284 430 324 461 345 c 1
 450 355 l 2
 430 375 410 400 387 428 c 0
 364 456 344 481 327 504 c 0
 310 527 291 552 270 576 c 0
 249 600 231 619 213 633 c 0
 193 649 184 662 184 672 c 0
 184 677 186 682 189 687 c 0
 192 692 197 697 203 700 c 0
 209 703 216 706 225 707 c 2
 231 707 l 2
EndSplineSet
Validated: 1
EndChar

StartChar: question
Encoding: 63 63 41
Width: 590
GlyphClass: 2
Flags: HMW
HStem: -2 130<137.5 201.5 145 201.5> 650 60<321 334>
VStem: 104 132<37.5 90.5> 417 69<578.5 582>
LayerCount: 2
Fore
SplineSet
486 588 m 0
 486 569 483 548 478 525 c 0
 474 508 467 493 459 479 c 0
 451 465 442 453 432 443 c 0
 422 433 410 424 397 415 c 0
 384 406 371 396 357 387 c 0
 343 378 331 368 318 357 c 0
 305 346 294 333 282 318 c 0
 270 303 261 286 254 267 c 0
 248 252 240 240 231 232 c 0
 226 227 220 225 213 225 c 0
 211 225 207 227 202 227 c 0
 197 228 192 231 189 233 c 0
 184 237 182 242 182 249 c 0
 182 259 186 272 193 287 c 0
 201 304 211 320 223 335 c 0
 235 350 245 364 257 375 c 0
 269 386 282 397 295 407 c 0
 308 417 321 427 333 436 c 0
 345 445 357 454 368 464 c 0
 379 474 388 485 396 497 c 0
 404 509 410 522 413 535 c 0
 416 548 417 560 417 571 c 0
 417 593 411 610 399 623 c 0
 381 641 353 650 315 650 c 0
 305 650 295 648 284 643 c 0
 273 638 263 633 255 627 c 0
 247 621 238 613 228 604 c 0
 218 595 210 587 205 581 c 0
 200 575 193 567 185 558 c 0
 172 543 162 534 155 534 c 0
 154 534 151 533 150 533 c 0
 149 533 146 534 144 535 c 0
 142 536 137 538 132 540 c 0
 127 543 124 548 124 555 c 0
 124 564 129 576 140 592 c 0
 160 619 186 645 217 669 c 0
 233 681 251 691 271 699 c 0
 291 707 311 710 331 710 c 0
 394 710 438 695 463 664 c 0
 478 645 486 620 486 588 c 0
236 85 m 0
 236 80 235 74 234 68 c 0
 230 49 221 34 206 21 c 0
 191 8 173 0 153 -2 c 2
 145 -2 l 2
 130 -2 120 3 113 13 c 0
 107 22 104 32 104 43 c 0
 104 48 105 54 106 61 c 0
 111 79 121 94 138 107 c 0
 156 121 174 128 194 128 c 0
 209 128 221 123 228 113 c 0
 233 105 236 96 236 85 c 0
EndSplineSet
Validated: 1
EndChar

StartChar: at
Encoding: 64 64 42
Width: 590
GlyphClass: 2
Flags: HMW
HStem: -117 61<175 222.5 190 222.5> 114 53<388.5 419.5> 130 56<253.5 261.5> 394 52<322 351.5 322 351.5> 625 65<374.5 411 388 404>
VStem: 36 60<100 118.5> 167 53<198 229> 352 33 503 51<460 533.5>
LayerCount: 2
Fore
SplineSet
426 49 m 2xdf80
 426 47 424 42 422 36 c 0
 420 30 416 22 410 12 c 0
 405 3 400 -6 395 -13 c 0
 390 -20 384 -28 376 -38 c 0
 368 -48 360 -55 352 -62 c 0
 344 -69 335 -77 323 -84 c 0
 311 -91 299 -97 287 -102 c 0
 275 -107 260 -111 244 -113 c 0
 228 -115 212 -117 195 -117 c 2
 190 -117 l 2
 160 -117 133 -109 111 -93 c 0
 89 -77 71 -55 58 -26 c 0
 43 8 36 50 36 99 c 0
 36 138 40 180 51 225 c 0
 65 283 82 338 102 388 c 0
 122 438 143 481 166 518 c 0
 189 555 216 586 242 612 c 0
 268 638 295 658 322 671 c 0
 349 684 375 690 401 690 c 0
 421 690 439 689 454 686 c 0
 469 683 484 677 496 669 c 0
 508 661 518 652 526 640 c 0
 534 628 541 611 546 591 c 0
 551 571 554 547 554 520 c 0
 554 463 543 388 522 295 c 0
 511 248 495 206 474 171 c 0
 463 153 451 139 438 129 c 0
 425 119 411 114 397 114 c 0
 380 114 368 119 361 128 c 0
 355 136 352 148 352 163 c 0
 352 169 352 176 353 184 c 2
 362 251 l 1
 330 192 l 2
 308 150 279 130 244 130 c 0xbf80
 212 130 190 140 178 161 c 0
 171 173 167 188 167 208 c 0
 167 225 170 245 175 268 c 0
 180 291 188 312 198 333 c 0
 208 354 218 370 230 384 c 0
 242 398 255 410 268 420 c 0
 281 430 295 436 308 440 c 0
 321 444 333 446 344 446 c 0
 359 446 374 443 388 436 c 0
 399 431 407 425 412 417 c 0
 413 414 414 411 414 409 c 0
 414 407 413 405 412 403 c 0
 406 394 400 389 394 387 c 0
 389 386 384 385 381 385 c 0
 376 385 365 387 349 392 c 0
 342 393 336 394 332 394 c 2
 322 394 l 2
 312 393 302 389 292 383 c 0
 282 377 273 371 265 362 c 0
 257 353 249 343 242 329 c 0
 235 315 230 300 226 283 c 0
 222 266 220 252 220 241 c 2
 220 229 l 2
 220 217 224 207 230 199 c 0
 237 190 247 186 260 186 c 0
 283 186 302 195 317 215 c 0
 330 233 342 261 352 301 c 0
 353 307 361 313 374 318 c 0
 384 322 392 324 399 324 c 0
 403 324 407 323 409 322 c 2
 410 321 l 1
 410 321 409 319 409 317 c 0
 397 281 389 253 387 232 c 0
 386 222 385 213 385 205 c 0
 385 197 386 191 388 186 c 0
 390 179 395 174 400 171 c 0
 405 169 410 167 415 167 c 0xdf80
 424 167 433 173 441 186 c 0xbf80
 447 196 453 208 458 223 c 0
 467 248 474 272 479 293 c 0
 486 327 493 360 497 391 c 0
 501 422 503 449 503 471 c 0
 503 489 501 506 498 522 c 0
 495 538 492 552 488 563 c 0
 484 574 478 584 470 592 c 0
 462 600 455 607 448 611 c 0
 441 615 434 619 425 621 c 0
 416 623 409 625 404 625 c 2
 388 625 l 2
 361 625 334 617 307 599 c 0
 280 581 254 557 230 526 c 0
 206 495 184 457 164 413 c 0
 144 369 128 320 116 267 c 0
 103 208 96 156 96 112 c 0
 96 88 98 68 102 51 c 0
 108 27 117 6 128 -11 c 0
 139 -28 152 -39 166 -46 c 0
 180 -53 197 -56 214 -56 c 0
 231 -56 248 -54 263 -51 c 0
 278 -48 290 -43 301 -38 c 0
 312 -33 322 -26 333 -18 c 0
 344 -10 352 -1 358 6 c 0
 364 13 372 22 380 32 c 0
 385 39 389 44 393 48 c 0
 398 54 402 58 404 59 c 0
 406 59 408 61 410 62 c 0
 412 63 415 63 417 62 c 0
 419 61 422 59 423 58 c 0
 424 57 426 53 426 51 c 2
 426 49 l 2xdf80
410 321 m 1024
EndSplineSet
Validated: 1
EndChar

StartChar: A
Encoding: 65 65 43
Width: 590
GlyphClass: 2
Flags: HMW
HStem: 276 43<439 439 439 449>
VStem: 444 72<66 126> 449 57 463 62
LayerCount: 2
Fore
SplineSet
436 276 m 1xa0
 361 273 291 265 229 253 c 1
 196 196 162 131 127 58 c 0
 118 40 109 28 98 23 c 0
 93 21 87 19 83 19 c 0
 79 19 76 20 73 21 c 0
 70 22 67 25 66 28 c 0
 65 31 64 35 64 39 c 0
 64 49 69 63 77 81 c 0
 86 102 116 157 170 245 c 1
 168 256 165 258 163 252 c 1
 158 255 156 259 156 263 c 0
 156 264 157 266 157 268 c 0
 158 275 162 282 171 289 c 0
 180 296 191 301 202 305 c 1
 203 314 205 315 206 307 c 1
 315 499 396 627 449 691 c 0
 460 704 470 712 477 717 c 0
 484 722 491 725 497 725 c 2
 498 725 l 1
 502 725 l 2
 509 725 514 723 519 720 c 0
 523 718 525 712 525 705 c 2x90
 525 700 l 1
 518 617 514 500 510 348 c 0
 508 289 506 241 506 201 c 0xa0
 506 137 509 98 513 84 c 0
 515 78 516 72 516 68 c 0xc0
 516 64 515 60 514 56 c 0
 511 47 505 41 500 35 c 0
 495 29 489 24 482 22 c 0
 477 20 474 19 471 19 c 0
 467 19 462 20 459 22 c 0
 452 26 447 37 445 54 c 0
 445 62 444 81 444 111 c 0
 444 141 447 197 449 276 c 1
 445 285 441 285 436 276 c 1xa0
440 610 m 2
 403 565 347 470 272 324 c 1
 262 303 l 1
 284 306 l 2
 342 313 393 318 439 319 c 2
 451 320 l 1
 463 637 l 1
 440 610 l 2
EndSplineSet
Validated: 1
EndChar

StartChar: B
Encoding: 66 66 44
Width: 590
GlyphClass: 2
Flags: HMW
HStem: 310 47<271 275 275 276> 642 43<347 364 364 367>
VStem: 431 72<211 215.5 211 215.5> 473 62<533.5 538.5>
LayerCount: 2
Fore
SplineSet
501 201 m 2xd0
 496 177 485 153 468 130 c 0
 451 107 429 85 404 65 c 0
 380 45 350 28 316 14 c 0
 282 0 246 -10 207 -14 c 1
 200.8125 -19.0625 194.625 -21.59375 188.4375 -21.59375 c 2
 174 -17 l 1
 167.8125 -22.0625 161.94140625 -24.59375 156.03125 -24.59375 c 0
 151.43359375 -24.59375 146.8125 -23.0625 142 -20 c 0
 122 -22 108 -23 98 -23 c 0
 92 -23 86 -22 80 -21 c 2
 78 -21 l 1
 75 -21 l 2
 67 -21 61 -18 58 -13 c 0
 56 -11 55 -7 55 -2 c 0
 55 3 56 8 58 14 c 0
 67 42 80 95 97 174 c 0
 114 253 131 335 147 419 c 0
 156 463 163 493 166 508 c 0
 169 523 174 544 181 570 c 0
 186 579 190 597 195 623 c 0
 198 639 204 651 212 658 c 0
 220 665 228 669 237 669 c 2
 241 669 l 1
 242 669 l 2
 253 672 263 675 273 677 c 0
 292 681 309 684 326 684 c 0
 335 684 342 685 347 685 c 2
 364 685 l 1
 374 685 l 2
 411 685 443 678 470 662 c 0
 497 646 515 624 526 595 c 0
 532 578 535 561 535 541 c 0
 535 526 533 509 529 492 c 0
 521 455 506 423 484 397 c 0
 462 371 436 352 407 340 c 1
 398 329 390 325 381 329 c 1
 387.459960938 320.38671875 393.405273438 315.89453125 399.57421875 315.89453125 c 0
 402 315.89453125 404.459960938 316.588867188 407 318 c 0
 424 311 441 300 457 287 c 0
 473 274 485 259 494 242 c 0
 500 231 503 220 503 211 c 2xe0
 501 201 l 2xd0
261 629 m 2
 255 627 l 1
 237 553 225 501 218 470 c 0
 211 439 204 402 195 360 c 1
 230 358 259 357 283 357 c 0
 301 357 318 359 333 362 c 0
 348 365 362 369 373 375 c 0
 384 381 395 388 405 397 c 0
 415 406 424 414 431 423 c 0
 438 432 444 441 449 451 c 0
 454 461 458 471 461 479 c 0
 464 487 468 496 470 506 c 0
 472 516 473 525 473 534 c 0xd0
 473 543 472 550 471 557 c 0
 468 574 462 587 453 598 c 0
 444 609 434 617 421 624 c 0
 401 636 379 642 355 642 c 0
 324 642 292 638 261 629 c 2
399 261 m 0
 388 271 372 280 351 289 c 0
 330 298 305 305 276 310 c 1
 275 310 l 2
 233 310 204 308 185 308 c 1
 163 194 146 109 135 54 c 1
 152 55 168 56 183 56 c 0
 198 56 209 57 216 57 c 0
 243 58 269 64 295 74 c 0
 321 84 343 94 361 108 c 0
 379 122 394 137 406 152 c 0
 419 167 427 182 430 196 c 0
 430 199 431 203 431 206 c 0xe0
 431 225 420 243 399 261 c 0
EndSplineSet
Validated: 524289
EndChar

StartChar: C
Encoding: 67 67 45
Width: 590
GlyphClass: 2
Flags: HMW
HStem: -31 67<158 208 169 208> 654 59<421 425.5> 701 21G
VStem: 23 77<126.5 190.5>
LayerCount: 2
Fore
SplineSet
176 -31 m 2xd0
 169 -31 l 2
 147 -31 127 -27 108 -18 c 0
 89 -9 74 2 62 17 c 0
 50 32 41 49 34 70 c 0
 27 91 23 114 23 139 c 0
 23 159 25 179 30 200 c 0
 41 249 56 297 76 343 c 0
 96 389 117 432 141 469 c 0
 163 506 187 540 213 571 c 0
 239 602 265 627 290 648 c 0
 315 669 341 685 365 696 c 0
 389 707 411 713 431 713 c 0
 452 713 470 710 487 705 c 1
 490 711 494 710 497 701 c 1xb0
 499 712 501 716 502 711 c 1
 506 720 511 727 518 732 c 0
 525 737 531 740 538 740 c 2
 543 741 l 2
 548 741 553 739 558 735 c 0
 564 730 567 723 567 713 c 0
 567 697 565 678 561 656 c 0
 560 647 558 635 554 621 c 0
 550 607 547 598 547 596 c 0
 545 583 537 570 526 557 c 0
 515 544 506 537 499 537 c 2
 494 537 l 2
 487 537 481 539 476 544 c 0
 472 547 470 552 470 558 c 0
 470 559 471 562 471 565 c 0
 472 571 477 588 484 616 c 0
 483 623 481 625 479 621 c 1
 476 623 470 629 461 637 c 0
 459 639 455 642 450 645 c 0
 441 651 431 654 420 654 c 0
 400 654 377 647 353 632 c 0
 329 617 305 596 281 570 c 0
 257 544 232 514 210 481 c 0
 188 448 167 409 149 367 c 0
 129 325 115 281 106 239 c 0
 102 219 100 200 100 181 c 0
 100 169 101 157 103 145 c 0
 107 114 117 88 135 68 c 0
 152 47 173 36 198 36 c 0
 218 36 236 38 256 43 c 0
 276 48 293 54 309 62 c 0
 325 70 339 76 351 84 c 0
 363 92 374 100 385 109 c 0
 393 114 400 119 405 121 c 0
 410 123 415 125 420 125 c 0
 423 125 426 124 428 122 c 0
 432 117 434 113 434 108 c 0
 434 97 426 82 409 64 c 0
 349 1 272 -31 176 -31 c 2xd0
EndSplineSet
Validated: 1
EndChar

StartChar: D
Encoding: 68 68 46
Width: 590
GlyphClass: 2
Flags: HMW
HStem: -31 61<260.5 307 273 307> 712 21G<257 261 257 257>
VStem: 257 4<688 688 712 712> 476 65<341 379>
LayerCount: 2
Fore
SplineSet
261 712 m 1
 257 712 l 1
 258 726 260 732 261 730 c 2
 261 712 l 1
261 687 m 1
 272 686 285 683 298 680 c 0
 315 676 331 671 348 664 c 0
 365 657 382 647 401 635 c 0
 420 623 437 609 454 593 c 0
 471 577 485 557 499 533 c 0
 513 509 523 484 530 457 c 0
 537 430 541 398 541 363 c 0
 541 319 536 272 524 222 c 0
 518 200 510 176 499 153 c 0
 488 130 475 107 458 85 c 0
 441 63 424 43 405 26 c 0
 387 9 367 -6 346 -16 c 0
 325 -26 302 -31 281 -31 c 2
 273 -31 l 2
 248 -31 223 -29 198 -27 c 0
 173 -25 153 -21 137 -17 c 0
 121 -13 106 -9 93 -5 c 0
 80 -1 72 0 69 0 c 0
 61 0 55 3 52 8 c 0
 50 10 49 15 49 20 c 0
 49 25 50 30 52 36 c 0
 61 68 75 125 94 207 c 0
 113 289 130 377 149 472 c 0
 156 509 162 533 165 545 c 0
 168 557 172 575 178 600 c 0
 184 625 188 640 189 645 c 0
 192 660 198 672 206 679 c 0
 214 686 222 690 231 690 c 0
 239 690 248 689 257 688 c 1
 252 654 246 628 240 611 c 0
 219 525 200 433 183 338 c 0
 175 287 167 243 158 208 c 0
 146 151 137 104 130 69 c 0
 132 60 136 58 138 65 c 1
 161 52 185 43 210 38 c 0
 235 33 265 30 298 30 c 0
 316 30 334 36 352 50 c 0
 370 64 386 81 400 102 c 0
 414 123 426 145 438 169 c 0
 450 193 459 218 464 241 c 0
 472 275 476 307 476 337 c 0
 476 421 447 489 387 540 c 0
 362 562 323 586 272 611 c 1
 272 616 l 1
 269 616 l 1
 269 617 l 1
 267 617 l 1
 267 618 l 1
 265 618 l 1
 265 619 l 1
 261 619 l 1
 261 687 l 1
EndSplineSet
Validated: 1
EndChar

StartChar: E
Encoding: 69 69 47
Width: 590
GlyphClass: 2
Flags: HMW
HStem: -20 63<98 178.5> -6 66<367.5 414 374 414> 312 62<155 193> 332 57<446.5 476> 615 59<399 420.5 375 427>
VStem: 20 77<27.5 74.5>
LayerCount: 2
Fore
SplineSet
386 -6 m 2x4c
 374 -6 l 2
 361 -6 340 -7 309 -9 c 0
 214 -16 146 -20 108 -20 c 0xac
 88 -20 74 -19 61 -18 c 0
 50 -18 41 -11 32 0 c 0
 25 9 20 21 20 34 c 0
 20 47 27 81 40 136 c 0
 50 180 61 228 74 279 c 0
 87 330 98 388 111 451 c 0
 119 491 125 517 128 530 c 0
 131 543 136 562 143 587 c 0
 150 612 153 627 154 634 c 0
 158 649 164 660 172 668 c 0
 180 676 189 680 198 680 c 1
 199 672 201 672 202 680 c 0
 206 680 209 679 212 678 c 0
 215 677 218 674 219 670 c 0
 220 659 222 656 223 661 c 1
 225 654 228 654 230 663 c 1
 278 670 339 674 411 674 c 0
 430 674 446 673 463 673 c 0
 499 672 527 669 548 667 c 0
 559 665 566 662 568 659 c 0
 568 658 569 655 569 653 c 0
 569 651 568 647 568 643 c 0
 568 639 566 634 564 630 c 0
 559 621 554 614 547 612 c 0
 544 610 541 609 539 609 c 0
 537 609 535 610 533 610 c 0
 490 613 448 615 406 615 c 0
 392 615 377 614 362 614 c 0
 307 613 260 609 218 602 c 1
 216 593 212 593 210 601 c 1
 190 526 174 450 158 373 c 1
 163 366 167 366 172 374 c 1
 214 374 273 376 346 381 c 0
 420 386 461 389 471 389 c 0x1c
 481 389 487 386 489 384 c 0
 491 380 491 374 490 366 c 0
 488 355 483 346 478 341 c 0
 472 335 463 332 452 332 c 0
 441 332 395 329 316 322 c 0
 237 315 184 312 155 312 c 1xac
 152 303 147 303 145 311 c 1
 135 267 127 225 118 184 c 0
 104 122 97 82 97 67 c 0
 97 63 98 57 98 50 c 0
 100 41 103 41 105 48 c 1
 110 46 117 44 127 44 c 0
 136 44 150 43 169 43 c 0
 188 43 214 44 246 45 c 0
 321 49 371 53 394 58 c 0
 402 59 408 60 412 60 c 0
 416 60 420 59 422 58 c 0
 424 57 426 55 427 54 c 0
 428 53 429 50 429 47 c 0
 429 44 430 41 430 39 c 0
 430 37 429 33 429 31 c 0
 427 20 422 11 414 3 c 0
 409 -4 401 -7 392 -7 c 0
 390 -7 388 -6 386 -6 c 2x4c
EndSplineSet
Validated: 1
EndChar

StartChar: F
Encoding: 70 70 48
Width: 590
GlyphClass: 2
Flags: HMW
HStem: 323 60<258 271> 619 63
LayerCount: 2
Fore
SplineSet
555 677 m 0
 566 676 572 673 573 671 c 0
 575 668 576 662 575 654 c 0
 573 645 567 636 560 629 c 0
 554 622 546 619 535 619 c 2
 533 619 l 2
 500 621 466 622 431 622 c 0
 366 622 294 618 215 611 c 1
 199 544 188 498 182 472 c 0
 176 446 169 414 161 376 c 1
 166 369 172 369 177 378 c 1
 202 381 229 383 258 383 c 2
 279 383 l 2
 316 382 349 379 379 376 c 0
 409 373 432 370 449 367 c 0
 455 366 459 363 462 362 c 0
 465 361 468 359 468 359 c 2
 469 357 470 354 470 350 c 2
 470 344 l 2
 468 335 463 326 457 319 c 0
 453 313 446 310 437 310 c 2
 435 310 l 2
 418 313 392 317 360 319 c 0
 328 321 291 323 251 323 c 0
 213 323 182 320 156 316 c 1
 154 307 151 307 149 315 c 1
 129 207 109 107 89 15 c 0
 85 4 78 -5 68 -12 c 0
 58 -19 48 -22 38 -22 c 0
 37 -22 35 -21 35 -21 c 2
 27 -21 21 -18 18 -13 c 0
 16 -11 15 -7 15 -2 c 0
 15 3 16 8 18 14 c 0
 27 43 39 100 58 183 c 0
 77 266 95 352 112 440 c 0
 121 484 128 515 131 530 c 0
 134 545 138 565 145 591 c 0
 150 601 155 619 160 645 c 0
 163 660 169 672 177 679 c 0
 185 686 194 690 203 690 c 2
 207 690 l 2
 212 690 215 689 218 688 c 0
 221 687 224 684 225 680 c 0
 225 669 227 667 228 672 c 1
 304 679 375 682 441 682 c 0
 486 682 524 680 555 677 c 0
EndSplineSet
Validated: 1
EndChar

StartChar: G
Encoding: 71 71 49
Width: 590
GlyphClass: 2
Flags: HMW
HStem: -31 67<159 208 170 208> 289 59<420.5 461> 666 58<425.5 429.5>
VStem: 24 78<126.5 190.5>
LayerCount: 2
Fore
SplineSet
546 687 m 0
 554 682 559 677 561 674 c 0
 564 669 565 664 565 658 c 0
 565 650 563 640 557 629 c 0
 555 623 548 618 541 615 c 0
 537 614 534 613 532 613 c 0
 530 613 526 615 522 615 c 0
 519 616 512 621 501 630 c 0
 490 639 477 647 463 654 c 0
 449 662 436 666 423 666 c 0
 403 666 381 658 357 643 c 0
 333 628 309 607 284 580 c 0
 259 553 234 522 212 487 c 0
 190 452 169 413 151 370 c 0
 131 327 116 283 107 239 c 0
 103 219 102 200 102 181 c 0
 102 169 102 157 104 145 c 0
 108 114 120 89 137 68 c 0
 155 47 175 36 200 36 c 0
 216 36 232 42 250 54 c 0
 268 66 286 80 301 97 c 0
 316 114 331 132 346 153 c 0
 361 174 374 195 385 215 c 0
 396 235 406 253 413 270 c 0
 415 275 418 281 420 289 c 1
 413 287 407 287 401 288 c 0
 364 286 328 282 291 276 c 0
 254 270 228 263 212 254 c 0
 209 252 206 250 204 250 c 0
 202 250 200 251 198 253 c 0
 194 257 191 262 191 268 c 2
 191 270 l 2
 192 291 205 308 230 320 c 0
 247 329 283 337 336 342 c 0
 376 346 408 348 433 348 c 0
 459 348 474 347 480 345 c 2
 486 341 l 2
 488 339 490 336 490 331 c 2
 490 328 l 2
 489 318 486 310 482 304 c 0
 478 298 473 293 466 291 c 0
 464 289 462 289 460 289 c 0
 459 282 457 275 454 266 c 0
 451 257 449 249 448 244 c 0
 443 230 436 214 427 195 c 0
 418 176 406 157 392 136 c 0
 378 115 363 94 345 74 c 0
 327 54 309 36 290 20 c 0
 271 4 252 -9 231 -18 c 0
 210 -27 191 -31 172 -31 c 2
 170 -31 l 2
 148 -31 128 -27 109 -18 c 0
 90 -9 76 2 64 17 c 0
 52 32 43 49 36 70 c 0
 29 91 24 114 24 139 c 0
 24 159 27 179 32 200 c 0
 44 251 59 300 79 347 c 0
 99 394 120 437 144 475 c 0
 166 513 190 548 216 580 c 0
 242 612 267 638 293 659 c 0
 319 680 344 696 368 707 c 0
 392 718 415 724 436 724 c 0
 458 724 485 718 512 705 c 0
 527 698 538 692 546 687 c 0
EndSplineSet
Validated: 1
EndChar

StartChar: H
Encoding: 72 72 50
Width: 590
GlyphClass: 2
Flags: HMW
HStem: 312 62<164 206.5 164 206.5>
LayerCount: 2
Fore
SplineSet
164 312 m 1
 162 304 160 297 159 293 c 0
 158 289 156 285 156 282 c 0
 137 215 117 126 95 15 c 0
 91 4 84 -5 74 -12 c 0
 64 -19 53 -22 44 -22 c 0
 43 -22 41 -21 41 -21 c 2
 34 -21 28 -18 24 -13 c 0
 22 -11 21 -7 21 -2 c 0
 21 3 22 8 24 14 c 0
 29 31 40 76 57 148 c 0
 66 186 80 248 102 334 c 0
 113 376 121 407 126 428 c 0
 131 449 137 479 146 520 c 0
 153 554 158 573 158 577 c 0
 160 586 162 597 166 612 c 0
 170 627 172 638 174 645 c 0
 178 660 185 672 193 679 c 0
 201 686 210 690 219 690 c 1
 219 682 221 682 221 690 c 1
 229 690 235 688 239 683 c 0
 241 680 243 675 243 670 c 0
 243 665 242 659 241 653 c 0
 240 647 235 633 229 611 c 0
 223 589 218 569 214 550 c 0
 210 531 205 506 198 470 c 0
 191 434 185 402 178 373 c 1
 183 366 186 366 191 374 c 1
 222 374 254 375 287 379 c 0
 320 383 349 388 376 392 c 0
 403 396 424 399 439 400 c 1
 441 411 443 421 444 430 c 0
 445 439 448 445 449 450 c 0
 455 470 460 497 466 533 c 0
 469 546 475 566 482 594 c 0
 489 622 495 639 496 645 c 0
 500 660 506 672 515 679 c 0
 524 686 532 690 541 690 c 1
 541 682 543 682 544 690 c 1
 553 690 560 688 564 683 c 0
 566 680 568 675 568 670 c 0
 568 665 567 657 565 648 c 0
 563 639 557 616 547 576 c 0
 537 536 529 502 522 472 c 0
 515 442 506 399 494 343 c 0
 485 297 470 236 450 161 c 0
 431 85 420 36 415 15 c 0
 412 4 405 -5 396 -12 c 0
 387 -19 378 -22 369 -22 c 0
 368 -22 366 -21 366 -21 c 2
 359 -21 353 -18 350 -13 c 0
 349 -11 347 -7 347 -2 c 0
 347 3 348 8 350 14 c 0
 376 107 400 211 424 327 c 1
 424 325 427 330 428 343 c 1
 423 334 418 334 413 342 c 1
 403 342 366 337 304 327 c 0
 242 317 196 312 171 312 c 2
 164 312 l 1
EndSplineSet
Validated: 1
EndChar

StartChar: I
Encoding: 73 73 51
Width: 590
GlyphClass: 2
Flags: HMW
HStem: -14 56<35 58> -6 53<287.501 289.5 265 304.501> 625 59<200.5 202 202 207 200.5 245>
LayerCount: 2
Fore
SplineSet
328 -7 m 0x60
 324 -7 313.000976562 -6 296.000976562 -6 c 0
 279.000976562 -6 257.000976562 -7 228.000976562 -8 c 1
 207.256835938 -13.333984375 186.512695312 -16.208984375 165.768554688 -16.208984375 c 2
 123 -12 l 1
 83 -13 56 -14 42 -14 c 0xa0
 28 -14 20 -12 16 -8 c 0
 14 -6 13 -2 13 1 c 0
 13 3 14 6 14 8 c 0
 15 17 19 26 26 32 c 0
 33 38 45 42 58 42 c 0
 85 43 132 45 200 47 c 1x60
 232 166 260 290 285 418 c 0
 291 448 294 465 294 470 c 0
 296 481 301 501 308 532 c 0
 310 541 313 555 318 575 c 0
 323 595 328 607 328 610 c 1
 328 607 330 611 331 624 c 1
 295 624 266 625 245 625 c 2
 202 625 l 2
 194 625 188 624 188 624 c 2
 178 624 171 626 168 631 c 0
 166 633 165 637 165 642 c 2
 165 649 l 2
 166 658 171 666 178 673 c 0
 185 680 194 684 207 684 c 0
 256 685 301 686 343 686 c 0
 426 686 496 683 554 676 c 0
 562 676 568 673 572 670 c 0
 576 667 578 663 578 657 c 0
 578 655 577 652 577 650 c 0
 575 641 569 631 561 622 c 0
 558 618 554 615 549 613 c 0
 546 612 543 611 541 611 c 0
 539 611 538 612 536 612 c 0
 519 614 471 618 394 623 c 1
 389 596 385 578 381 568 c 0
 365 504 350 436 337 365 c 0
 328 318 315 258 298 188 c 0
 281 118 270 71 265 47 c 1
 278 47 l 2
 301 47 348 46 417 46 c 0
 426 46 433 44 434 42 c 0xa0
 435 40 436 36 436 31 c 2
 436 23 l 2
 434 13 429 5 424 -2 c 0
 422 -6 419 -8 416 -9 c 0
 413 -10 410 -12 408 -12 c 0
 406 -12 403 -11 401 -11 c 0
 386 -9 363 -7 328 -7 c 0x60
EndSplineSet
Validated: 524289
EndChar

StartChar: J
Encoding: 74 74 52
Width: 590
GlyphClass: 2
Flags: HMW
HStem: -35 77<184 191.5> 611 65<525 543> 625 59<188 192 192 194 188 250>
VStem: 27 63<150 170.5 159.5 161.5>
LayerCount: 2
Fore
SplineSet
215 52 m 0xb0
 221 59 227 69 234 83 c 0
 247 112 262 159 277 224 c 0
 280 237 291 284 307 366 c 0
 323 445 340 531 361 623 c 1
 314 625 278 625 250 625 c 2
 192 625 l 2
 181 625 176 624 176 624 c 2
 166 624 159 626 156 631 c 0
 154 633 151 637 151 642 c 0
 151 644 152 647 152 649 c 0
 153 658 158 666 165 673 c 0
 172 680 182 684 194 684 c 0
 243 685 288 686 329 686 c 0
 411 686 481 683 539 676 c 0xd0
 547 676 553 673 557 670 c 0
 561 667 562 663 562 657 c 0
 562 655 561 652 561 650 c 0
 559 641 554 631 546 622 c 0
 542 618 539 615 534 613 c 0
 532 612 528 611 526 611 c 0
 524 611 521 612 519 612 c 0
 498 615 464 619 413 621 c 1
 407 595 400 563 393 523 c 0
 387 479 380 443 373 416 c 0
 367 384 360 349 352 309 c 0
 344 269 336 235 328 206 c 0
 311 146 293 98 276 62 c 0
 259 26 244 0 229 -14 c 0
 214 -28 199 -35 184 -35 c 0
 166 -35 148 -31 132 -24 c 0
 115 -17 101 -7 90 5 c 0
 79 17 69 31 60 46 c 0
 51 61 45 76 40 91 c 0
 35 106 31 118 30 129 c 0
 29 140 27 146 27 150 c 2
 27 159 l 2
 27 164 29 170 31 177 c 0
 33 184 36 191 39 197 c 0
 42 203 46 209 52 213 c 0
 58 217 65 221 72 222 c 0
 75 222 78 223 80 223 c 0
 85 223 89 221 91 218 c 0
 93 215 95 210 95 205 c 0
 95 203 94 199 94 196 c 0
 92 187 90 176 90 165 c 0
 90 154 92 142 95 128 c 0
 98 114 103 100 110 87 c 0
 117 74 129 64 144 55 c 0
 158 46 174 42 194 42 c 0
 201 42 209 45 215 52 c 0xb0
EndSplineSet
Validated: 1
EndChar

StartChar: K
Encoding: 75 75 53
Width: 590
GlyphClass: 2
Flags: HMW
HStem: -22 21G<55.5 61> 695 20G<541.999 544.999>
LayerCount: 2
Fore
SplineSet
33 10 m 0
 33 13 33.9990234375 18 35.9990234375 23 c 0
 44.9990234375 53 57.9990234375 110 76.9990234375 193 c 0
 94.9990234375 277 111.999023438 363 129.999023438 452 c 0
 138.999023438 496 145.999023438 526 148.999023438 541 c 0
 150.999023438 556 156.999023438 578 163.999023438 607 c 0
 170.999023438 635 175.999023438 653 176.999023438 660 c 0
 180.999023438 678 186.999023438 691 194.999023438 700 c 0
 202.999023438 709 210.999023438 714 219.999023438 714 c 1
 220.999023438 722 222.999023438 722 222.999023438 714 c 1
 230.999023438 714 236.999023438 711 240.999023438 703 c 0
 242.999023438 698 243.999023438 692 243.999023438 683 c 0
 243.999023438 678 242.999023438 674 241.999023438 669 c 0
 238.999023438 653 230.999023438 618 217.999023438 564 c 0
 204.999023438 509 191.999023438 452 178.999023438 391 c 1
 320.999023438 530 l 2
 361.999023438 573 401.999023438 611 443.999023438 642 c 0
 476.999023438 670 497.999023438 688 506.999023438 695 c 0
 515.999023438 704 524.999023438 710 531.999023438 712 c 0
 536.999023438 714 540.999023438 715 542.999023438 715 c 0
 546.999023438 715 550.999023438 711 553.999023438 703 c 0
 555.999023438 698 556.999023438 692 556.999023438 685 c 0
 556.999023438 676 547.999023438 665 530.999023438 651 c 0
 518.999023438 639 478.999023438 603 409.999023438 542 c 1
 345.999023438 478 285.999023438 419 230.999023438 366 c 1
 235.999023438 357 l 2
 249.999023438 334 274.999023438 296 310.999023438 245 c 0
 346.999023438 191 376.999023438 145 401.999023438 106 c 0
 426.977539062 71.0302734375 441.978515625 48.0400390625 444 39.0234375 c 0
 443.884765625 28.3505859375 441.852539062 17.7333984375 437 9 c 0
 433 0 428 -8 421 -13 c 0
 414 -18 409 -21 404 -21 c 0
 396 -21 389 -13 383 4 c 0
 379 13 363 36 336 73 c 0
 309 110 280 152 249 196 c 0
 218 245 196 283 183 310 c 2
 169 337 l 1
 158 286 l 1
 107 24 l 2
 103 9 96 -2 86 -10 c 0
 76 -18 66 -22 56 -22 c 0
 55 -22 53 -21 53 -21 c 2
 45 -21 39 -17 36 -8 c 0
 34 -3 33 3 33 10 c 0
EndSplineSet
Validated: 524289
EndChar

StartChar: L
Encoding: 76 76 54
Width: 590
GlyphClass: 2
Flags: HMW
HStem: -15 62.9962
LayerCount: 2
Fore
SplineSet
502 72 m 0
 505 63 505.999023438 54 504.999023438 44 c 0
 502.999023438 35 497.999023438 27 492.999023438 22 c 0
 487.999023438 17 477.999023438 12 463.999023438 10 c 0
 420.999023438 1 360.999023438 -5 283.999023438 -9 c 0
 204.999023438 -13 144.999023438 -15 104.999023438 -15 c 0
 96.9990234375 -15 90.9990234375 -12 87.9990234375 -7 c 0
 85.9990234375 -5 84.9990234375 -1 84.9990234375 4 c 0
 84.9990234375 9 85.9990234375 14 87.9990234375 20 c 0
 100.999023438 51 112.999023438 89 125.999023438 135 c 0
 148.999023438 206 169.999023438 275 187.999023438 341 c 0
 196.999023438 372 208.999023438 427 223.999023438 506 c 0
 238.999023438 585 246.999023438 629 247.999023438 636 c 0
 251.999023438 652 257.999023438 664 265.999023438 671 c 0
 273.999023438 678 281.999023438 682 289.999023438 682 c 1
 290.999023438 674 292.999023438 674 292.999023438 682 c 1
 299.999023438 682 305.999023438 679 309.999023438 674 c 0
 311.999023438 672 312.999023438 668 312.999023438 662 c 0
 312.999023438 656 311.999023438 650 310.999023438 645 c 0
 306.999023438 626 301.999023438 600 293.999023438 567 c 0
 284.999023438 517 274.999023438 475 264.999023438 441 c 0
 253.999023438 389 243.999023438 345 233.999023438 309 c 0
 227.999023438 281 217.999023438 240 202.999023438 187 c 0
 186.999023438 134 175.999023438 92 168.999023438 62 c 0
 168.411132812 54.35546875 167.477539062 49.8232421875 166.604492188 47.99609375 c 1
 180.645507812 47.9287109375 189.180664062 47 194 47 c 0
 238 47 290 51 350 58 c 0
 414 65 460 72 485 78 c 1
 492 78 l 2
 497 78 500 76 502 72 c 0
EndSplineSet
Validated: 524289
EndChar

StartChar: M
Encoding: 77 77 55
Width: 590
GlyphClass: 2
Flags: HMW
HStem: 664 20G
VStem: 36 1<-14.5 -10> 413 62<39 84 51.5 71>
LayerCount: 2
Fore
SplineSet
233 -7 m 1
 226 -7 221 -5 218 -1 c 0
 215 4 212 11 212 19 c 0
 212 51 217 124 226 239 c 0
 235 354 243 464 252 570 c 0
 254 610 259 648 262 684 c 1
 252 651 241 616 230 578 c 0
 215 529 200 470 182 403 c 0
 172 364 159 316 143 257 c 0
 134 224 125 194 117 167 c 0
 107 137 99 113 94 95 c 0
 89 78 84 65 83 58 c 0
 79 37 72 20 62 8 c 0
 53 -4 46 -10 37 -10 c 1
 37 -19 36 -19 36 -10 c 1
 35 -10 33 -8 32 -7 c 0
 28 -5 25 6 25 25 c 0
 25 33 28 44 31 58 c 0
 33 66 36 79 42 98 c 0
 48 118 57 144 68 178 c 0
 79 214 89 241 94 260 c 2
 141 412 l 2
 149 441 158 477 171 519 c 0
 195 601 213 649 224 666 c 0
 231 679 239 689 250 695 c 0
 261 701 271 704 279 704 c 2
 283 704 l 1
 284 704 l 2
 293 704 300 702 305 697 c 0
 310 691 311 681 311 667 c 2
 311 659 l 2
 311 606 300 483 278 291 c 0
 268 198 262 137 260 107 c 1
 267 97 275 95 282 102 c 1
 308 201 332 289 355 368 c 0
 372 425 391 482 412 539 c 0
 433 595 449 638 463 668 c 0
 467 678 473 686 480 692 c 0
 488 698 495 702 501 703 c 0
 507 703 513 704 516 704 c 2
 524 704 l 1
 528 704 l 1
 540 704 l 2
 542 704 547 703 551 702 c 0
 555 700 558 697 559 695 c 0
 560 693 561 689 562 683 c 0
 563 679 564 674 564 668 c 2
 564 665 l 2
 562 644 547 546 518 370 c 0
 490 195 475 96 475 72 c 0
 475 31 464 6 444 -4 c 0
 440 -6 437 -7 434 -7 c 0
 431 -7 426 -5 423 -2 c 0
 416 3 413 17 413 39 c 2
 413 44 l 2
 413 98 446 294 511 632 c 1
 504 642 495 644 487 639 c 1
 447 537 417 446 395 363 c 0
 373 286 351 212 328 143 c 0
 305 74 290 32 282 17 c 0
 275 1 259 -7 237 -7 c 1
 236 -15 234 -15 233 -7 c 1
EndSplineSet
Validated: 1
EndChar

StartChar: N
Encoding: 78 78 56
Width: 590
GlyphClass: 2
Flags: HMW
HStem: -12 21G<31 37.5> 685 20G<215.5 218.5 545.5 552.5>
LayerCount: 2
Fore
SplineSet
462 190 m 0
 448 133 437 90 429 63 c 0
 420 35 414 18 411 11 c 0
 404 -6 390 -14 368 -14 c 1
 367 -22 365 -22 364 -14 c 1
 357 -14 352 -12 349 -7 c 0
 345 -2 342 5 342 13 c 0
 340 26 333 56 320 101 c 2
 281 246 l 2
 268 295 254 349 241 410 c 0
 228 471 220 523 216 565 c 0
 214 595 210 624 208 653 c 1
 203 626 198 597 193 567 c 0
 181 494 168 425 154 362 c 0
 139 298 123 233 106 167 c 0
 89 103 79 63 77 49 c 0
 74 27 67 11 58 2 c 0
 50 -7 42 -12 33 -12 c 0
 29 -12 26 -10 24 -8 c 0
 22 -6 20 3 20 17 c 0
 20 25 22 35 25 48 c 0
 27 62 41 114 63 204 c 2
 122 443 l 2
 138 512 152 578 163 640 c 0
 165 653 168 664 173 673 c 0
 177 683 182 690 188 695 c 0
 195 699 200 702 205 703 c 0
 210 704 214 705 217 705 c 0
 220 705 224 704 226 704 c 0
 235 704 242 702 247 697 c 0
 251 692 254 682 254 668 c 0
 256 625 273 543 303 422 c 0
 332 301 358 204 380 130 c 0
 384 115 388 102 392 92 c 1
 395 103 399 116 402 132 c 0
 417 195 438 288 463 409 c 0
 490 530 505 609 509 649 c 0
 511 664 516 677 524 688 c 0
 533 699 541 705 550 705 c 0
 555 705 560 704 562 703 c 0
 564 702 567 700 568 698 c 0
 569 693 570 685 570 673 c 0
 570 671 569 664 568 654 c 0
 568 643 556 590 534 495 c 0
 513 397 489 295 462 190 c 0
EndSplineSet
Validated: 1
EndChar

StartChar: O
Encoding: 79 79 57
Width: 590
GlyphClass: 2
Flags: HMW
HStem: -24 72<200 201> 649 44<374 375.5>
VStem: 59 70<138.5 181.5> 466 65<517 533 517 534>
LayerCount: 2
Fore
SplineSet
506 367 m 0
 498 329 488 291 477 252 c 0
 466 213 455 183 444 161 c 0
 430 130 415 104 399 82 c 0
 384 61 368 43 353 29 c 0
 338 15 322 5 304 -3 c 0
 286 -11 268 -17 250 -20 c 0
 232 -23 212 -24 190 -24 c 0
 157 -24 128 -12 106 10 c 0
 84 32 69 62 62 101 c 0
 60 116 59 131 59 146 c 0
 59 161 63 189 70 231 c 0
 71 234 73 240 74 248 c 0
 81 278 86 302 91 320 c 0
 96 338 102 362 111 392 c 0
 128 448 150 501 179 551 c 0
 201 593 231 627 271 653 c 0
 311 679 353 693 395 693 c 0
 416 693 436 688 455 679 c 0
 474 670 489 657 502 639 c 0
 515 621 523 598 528 570 c 0
 530 556 531 541 531 525 c 0
 531 509 529 492 527 473 c 0
 522 440 514 405 506 367 c 0
255 55 m 0
 271 60 287 67 303 77 c 0
 319 87 333 101 347 118 c 0
 361 135 373 154 384 176 c 0
 389 184 396 204 405 237 c 0
 414 269 425 307 436 351 c 0
 447 395 456 439 463 481 c 0
 465 494 466 507 466 519 c 0
 466 549 461 576 448 598 c 0
 437 617 424 630 408 639 c 0
 397 646 383 649 368 649 c 0
 335 649 304 635 276 606 c 0
 249 579 226 541 206 492 c 0
 179 428 157 352 140 265 c 0
 133 225 129 194 129 169 c 0
 129 140 133 116 140 97 c 0
 145 83 154 71 166 62 c 0
 178 53 192 48 208 48 c 0
 224 48 239 50 255 55 c 0
EndSplineSet
Validated: 1
EndChar

StartChar: P
Encoding: 80 80 58
Width: 590
GlyphClass: 2
Flags: HMW
HStem: 230 69<249.5 272.5 247.5 285.5> 642 45<351 396.5>
VStem: 183 3 479 62<538.5 539.5>
LayerCount: 2
Fore
SplineSet
244 633 m 1
 240 614 234 587 225 551 c 0
 216 515 207 478 199 440 c 0
 191 402 182 361 173 319 c 1
 182 315 l 2
 204 304 231 299 264 299 c 0
 281 299 296 301 311 304 c 0
 326 307 339 311 351 316 c 0
 363 321 373 328 383 336 c 0
 393 344 403 352 410 360 c 0
 417 368 424 378 431 389 c 0
 438 400 443 409 447 418 c 0
 451 427 455 437 459 448 c 0
 463 459 467 469 469 476 c 0
 471 483 474 493 476 504 c 0
 478 515 479 526 479 535 c 0
 479 544 479 551 478 558 c 0
 475 575 468 588 459 599 c 0
 450 610 441 618 428 625 c 0
 417 632 405 637 394 639 c 0
 383 641 372 642 361 642 c 0
 341 642 303 639 244 633 c 1
82 141 m 0
 89 163 95.0009765625 193 101.000976562 231 c 0
 108.000976562 258 116.000976562 294 123.000976562 337 c 0
 132.000976562 379 138.000976562 414 144.000976562 442 c 0
 154.786132812 490.04296875 168.455078125 547.69921875 185.0078125 614.96875 c 0
 184.359375 615.579101562 183.536132812 618.640625 183 624 c 1
 182 617 180 619 180 628 c 0
 180 630 179 632 179 634 c 0
 179 636 180 640 181 642 c 0
 183 649 186 655 191 660 c 0
 196 665 201 668 205 669 c 0
 226 674 256 679 296 682 c 0
 336 685 363 687 378 687 c 0
 415 687 449 680 476 665 c 0
 503 650 522 627 533 598 c 0
 539 581 541 563 541 543 c 0
 541 534 540 516 536 489 c 0
 527 453 514 420 495 388 c 0
 476 356 456 328 432 305 c 0
 410 282 384 263 356 250 c 0
 328 237 300 230 271 230 c 0
 228 230 194 233 172 240 c 1
 167 233 164 235 160 244 c 1
 153 207 148 176 144 151 c 0
 140 126 133 81 122 14 c 0
 120 4 113 -4 103 -10 c 0
 93 -16 84 -19 74 -19 c 0
 64 -19 57 -16 52 -11 c 0
 50 -9 48 -5 48 -1 c 0
 48 3 50 7 52 14 c 0
 59 42 69 84 82 141 c 0
EndSplineSet
Validated: 524289
EndChar

StartChar: Q
Encoding: 81 81 59
Width: 590
GlyphClass: 2
Flags: HMW
HStem: -39 20G -24 72 649 44
VStem: 61 71 233 46<146.5 196.5> 464 65
LayerCount: 2
Fore
SplineSet
237 48 m 1x7c
 251 48 l 1
 248 63 l 2
 241 92 236 115 234 132 c 0
 234 138 233 144 233 149 c 0
 233 174 240 193 255 204 c 0
 260 208 265 210 269 210 c 0
 271 210 272 210 274 208 c 0
 276 206 279 200 279 193 c 0
 281 160 290 123 302 82 c 2
 306 67 l 1
 317 75 l 2
 347 96 372 129 389 173 c 0
 394 183 400 203 408 234 c 0
 417 265 426 303 437 349 c 0
 448 395 456 439 461 481 c 0
 463 494 464 507 464 519 c 0
 464 552 458 579 445 601 c 0
 435 618 423 631 407 639 c 0
 396 646 382 649 367 649 c 0
 334 649 303 635 275 608 c 0
 247 581 225 543 205 494 c 0
 174 423 152 347 139 264 c 0
 135 240 132 218 132 197 c 0
 132 184 134 171 136 158 c 0
 141 125 150 99 166 79 c 0
 183 58 203 48 228 48 c 2
 237 48 l 1x7c
346 -211 m 0
 339 -209 334.000976562 -203.999023438 331.000976562 -194.999023438 c 0
 326.000976562 -182.999023438 317.000976562 -159.999023438 305.000976562 -127.999023438 c 0
 293.000976562 -95.9990234375 281.000976562 -59.9990234375 268.000976562 -18.9990234375 c 1xbc
 266.000976562 -27.9990234375 261.000976562 -27.9990234375 258.000976562 -20.9990234375 c 1
 243.000976562 -22.9990234375 227.000976562 -23.9990234375 210.000976562 -23.9990234375 c 0
 187.000976562 -23.9990234375 166.000976562 -19.9990234375 146.000976562 -10.9990234375 c 0
 126.000976562 -1.9990234375 111.000976562 10.0009765625 99.0009765625 25.0009765625 c 0
 87.0009765625 40.0009765625 77.0009765625 60.0009765625 70.0009765625 81.0009765625 c 0
 63.0009765625 102.000976562 61.0009765625 126.000976562 61.0009765625 152.000976562 c 0
 61.0009765625 178.000976562 63.0009765625 205.000976562 68.0009765625 232.000976562 c 0
 93.0009765625 360.000976562 131.000976562 465.000976562 178.000976562 547.000976562 c 0
 200.000976562 589.000976562 231.000976562 623.000976562 271.000976562 651.000976562 c 0
 311.000976562 679.000976562 352.000976562 693.000976562 394.000976562 693.000976562 c 0
 439.000976562 693.000976562 474.000976562 677.000976562 499.000976562 644.000976562 c 0
 512.000976562 627.000976562 520.000976562 605.000976562 525.000976562 576.000976562 c 0
 527.000976562 561.000976562 529.000976562 545.000976562 529.000976562 528.000976562 c 0
 529.000976562 511.000976562 527.000976562 493.000976562 525.000976562 473.000976562 c 0
 519.000976562 427.000976562 508.000976562 372.000976562 492.000976562 307.000976562 c 0
 476.000976562 242.000976562 459.000976562 191.000976562 444.000976562 155.000976562 c 0
 416.000976562 86.0009765625 379.000976562 36.0009765625 332.000976562 7.0009765625 c 1
 329.427734375 -1.5751953125 326.119140625 -4.267578125 323.967773438 -0.4453125 c 1
 340.645507812 -42.5927734375 357.341796875 -83.77734375 375 -124 c 0
 380 -144 386 -155 391 -158 c 0
 391 -160 392 -163 392 -165 c 0
 392 -167 392 -170 391 -173 c 0
 389 -180 384 -187 379 -193 c 0
 374 -199 371 -205 367 -207 c 0
 362 -210 357 -212 352 -212 c 0
 350 -212 348 -211 346 -211 c 0
EndSplineSet
Validated: 524289
EndChar

StartChar: R
Encoding: 82 82 60
Width: 590
GlyphClass: 2
Flags: HMW
VStem: 70 1<-21 -19> 250 3 253 4<682 682> 479 64<459.5 483>
LayerCount: 2
Fore
SplineSet
407 -17 m 0xd0
 401 -15 396 -9 392 0 c 0
 385 15 376 32 363 53 c 0
 350 74 335 97 316 122 c 0
 297 147 276 172 250 197 c 0
 224 222 199 242 173 257 c 0
 171.296875 255.296875 169.709960938 254.40625 168.16015625 254.40625 c 0
 165.159179688 254.40625 162.296875 257.74609375 159 265 c 1
 159 253.838867188 157.525390625 248.57421875 156.475585938 248.57421875 c 0
 156.302734375 248.57421875 156.141601562 248.716796875 156 249 c 1
 149 210 141 165 134 112 c 0
 127 59 123 27 121 14 c 0
 119 4 113 -4 103 -10 c 0
 93 -16 84 -19 73 -19 c 2
 71 -19 l 1
 71 -23 70.75 -25 70.5 -25 c 0
 70.25 -25 70 -23 70 -19 c 1
 61 -19 54 -16 50 -11 c 0
 49 -9 47 -5 47 -1 c 0
 47 3 48 8 50 14 c 0
 61 49 69 79 75 104 c 0
 81 129 95 189 116 284 c 0
 118 298 125 325 136 365 c 0
 147 407 157 446 164 483 c 0
 168 505 172 537 178 576 c 0
 184 615 188 638 190 645 c 1
 138.037109375 468.625 112.037109375 380.375 112 380.375 c 1
 112 380.375 137.962890625 468.875 190 646 c 1
 190 643.215820312 190.158203125 641.85546875 190.348632812 641.85546875 c 0
 190.63671875 641.85546875 191 644.9765625 191 651 c 0
 192 661 197 670 206 678 c 0
 213 686 222 690 232 690 c 0
 241 690 247 688 250 685 c 0
 250.5625 679.9375 251.44140625 677.40625 252.102539062 677.40625 c 0
 252.6171875 677.40625 253 678.9375 253 682 c 1
 253.5 678 254.25 676 255 676 c 0
 255.75 676 256.5 678 257 682 c 1xb0
 301 680 342 672 377 661 c 0
 412 649 442 635 464 619 c 0
 486 603 505 584 518 563 c 0
 531 542 540 523 542 502 c 0
 542 495 543 487 543 479 c 0
 543 466 541 453 539 440 c 0
 532 409 519 383 499 363 c 0
 490 354 479 345 466 337 c 0
 453 329 440 323 426 318 c 0
 413 313 398 308 381 304 c 0
 364 300 348 295 331 293 c 0
 314 291 295 289 274 287 c 1
 267.8125 281.9375 261.625 279.40625 255.4375 279.40625 c 2
 241 284 l 1
 249.36328125 270.060546875 258.590820312 263.893554688 267.076171875 263.893554688 c 0
 267.721679688 263.893554688 268.36328125 263.9296875 269 264 c 0
 318 230 358 190 391 146 c 0
 425 102 446 64 453 33 c 1
 453 30 l 2
 453 22 451 15 447 8 c 0
 442 -1 435 -7 428 -12 c 0
 422 -16 417 -18 412 -18 c 0
 411 -18 409 -17 407 -17 c 0xd0
399 368 m 0
 411 372 422 377 433 384 c 0
 455 397 470 417 476 442 c 0
 478 449 479 456 479 463 c 0
 479 477 476 491 469 504 c 0
 459 524 445 540 428 554 c 0
 412 568 393 581 372 592 c 0
 332 613 294 628 254 636 c 2
 244 638 l 1
 233 581 224 535 218 500 c 0
 217 493 214 480 209 462 c 0
 204 444 194 407 177 350 c 1
 189 347 l 2
 196 346 206 345 217 345 c 2
 220 345 l 2
 222 345 232 346 251 347 c 0
 321 350 370 357 399 368 c 0
EndSplineSet
Validated: 524289
EndChar

StartChar: S
Encoding: 83 83 61
Width: 590
GlyphClass: 2
Flags: HMW
HStem: -29 62<184.5 188.5> 668 56<393.5 438.5>
VStem: 145 70<474 520.5> 409 71<234.5 287.5>
LayerCount: 2
Fore
SplineSet
48 117 m 0
 55 120 61 123 64 123 c 0
 67 123 71 124 72 124 c 2
 77 124 l 2
 78 124 80 122 82 119 c 0
 84 116 88 110 91 103 c 0
 99 82 112 65 132 52 c 0
 150 39 172 33 197 33 c 0
 212 33 228 36 245 41 c 0
 262 46 278 52 295 62 c 0
 312 72 328 84 343 97 c 0
 358 110 370 125 381 143 c 0
 392 161 400 180 404 200 c 0
 407 216 409 229 409 240 c 0
 409 259 406 275 399 290 c 0
 394 299 387 308 378 317 c 0
 369 326 359 334 346 341 c 0
 333 348 318 353 299 358 c 0
 280 363 259 368 236 371 c 0
 218 373 202 380 189 389 c 0
 176 398 167 409 160 422 c 0
 150 442 145 463 145 485 c 0
 145 492 145 499 147 508 c 0
 152 530 159 551 170 572 c 0
 181 593 195 612 212 631 c 0
 229 650 249 666 270 680 c 0
 291 694 316 704 344 712 c 0
 372 720 400 724 431 724 c 0
 446 724 468 722 495 719 c 0
 522 716 541 712 550 708 c 0
 557 706 562 701 564 694 c 0
 564 691 565 687 565 683 c 0
 565 679 564 673 562 667 c 0
 560 661 557 656 554 654 c 0
 551 652 547 649 543 649 c 0
 539 649 536 648 532 648 c 0
 528 648 524 649 519 650 c 0
 517 650 513 652 511 653 c 0
 500 656 492 660 485 661 c 0
 478 662 468 664 454 665 c 0
 440 667 424 668 407 668 c 0
 380 668 353 663 327 653 c 0
 301 643 277 628 256 608 c 0
 235 588 223 566 218 540 c 0
 216 532 215 524 215 517 c 0
 215 495 223 476 236 460 c 0
 253 439 281 428 319 426 c 0
 349 424 375 418 396 409 c 0
 417 400 434 389 445 376 c 0
 457 363 466 348 472 331 c 0
 478 314 480 296 480 279 c 0
 480 262 479 243 474 223 c 0
 467 192 456 164 441 137 c 0
 426 110 410 87 390 67 c 0
 370 47 349 30 326 15 c 0
 303 0 277 -11 252 -18 c 0
 227 -25 201 -29 176 -29 c 0
 136 -29 104 -20 77 -2 c 0
 50 16 33 36 27 60 c 0
 26 67 25 74 25 80 c 0
 25 86 27 92 29 97 c 0
 33 106 39 112 48 117 c 0
EndSplineSet
Validated: 1
EndChar

StartChar: T
Encoding: 84 84 62
Width: 590
GlyphClass: 2
Flags: HMW
HStem: 612 64<459 486.5 459 486.5>
LayerCount: 2
Fore
SplineSet
200 303 m 0
 228 459 246 560 255 606 c 1
 255 603 257 607 258 620 c 1
 174 625 127 628 115 630 c 0
 95 633 85 640 85 649 c 0
 85 651 86 653 86 655 c 0
 87 665 93 674 102 682 c 0
 108 687 115 690 122 690 c 0
 124 690 126 689 128 689 c 0
 161 682 278 678 481 676 c 0
 492 676 499 674 501 670 c 0
 503 666 504 662 504 657 c 0
 504 655 503 652 503 650 c 0
 501 640 495 631 487 622 c 0
 480 615 472 612 463 612 c 2
 459 612 l 2
 440.25 609.75 421.921875 608.625 404.015625 608.625 c 0
 374.171875 608.625 345.5 611.75 318 618 c 1
 290 475 253 277 208 24 c 0
 205 13 198 4 188 -3 c 0
 178 -10 168 -13 159 -13 c 2
 156 -13 l 2
 148 -13 142 -10 138 -5 c 0
 137 -3 136 1 136 6 c 0
 136 11 137 16 139 23 c 0
 148 54 169 147 200 303 c 0
EndSplineSet
Validated: 524289
EndChar

StartChar: U
Encoding: 85 85 63
Width: 590
GlyphClass: 2
Flags: HMW
HStem: -29 67<173 230>
VStem: 33 68<141.5 183.5> 133 62
LayerCount: 2
Fore
SplineSet
465 251 m 0
 458 222 449 194 436 168 c 0
 425 143 412 121 399 102 c 0
 386 83 373 66 358 51 c 0
 343 36 328 24 313 14 c 0
 298 4 283 -5 267 -11 c 0
 251 -17 237 -21 223 -24 c 0
 209 -27 194 -29 180 -29 c 0
 166 -29 151 -27 136 -22 c 0
 120 -17 104 -8 89 4 c 0
 74 16 62 31 52 49 c 0
 42 67 36 91 34 121 c 0
 34 129 33 137 33 146 c 0
 33 170 35 196 40 224 c 0
 82 427 113 564 133 637 c 0
 137 653 144 665 153 673 c 0
 162 681 171 685 180 685 c 0
 186 685 190 684 192 681 c 0
 194 678 195 673 195 667 c 0
 195 661 193 655 192 648 c 0
 142 422 113 285 106 238 c 0
 102 214 101 193 101 174 c 0
 101 160 102 146 104 131 c 0
 107 113 114 97 122 83 c 0
 130 69 142 59 157 50 c 0
 172 42 188 38 208 38 c 0
 252 38 291 54 325 88 c 0
 359 122 384 172 402 239 c 0
 411 267 421 303 430 345 c 0
 440 387 449 426 456 459 c 0
 479 566 492 623 493 629 c 0
 500 656 508 673 516 679 c 0
 520 682 523 685 526 685 c 0
 529 685 533 686 538 686 c 0
 543 686 546 685 548 684 c 0
 550 683 553 680 555 676 c 0
 557 672 558 669 558 664 c 0
 558 659 557 652 556 645 c 0
 537 541 507 410 465 251 c 0
EndSplineSet
Validated: 1
EndChar

StartChar: V
Encoding: 86 86 64
Width: 590
GlyphClass: 2
Flags: HMW
VStem: 70 64<623 664 631 664>
LayerCount: 2
Fore
SplineSet
520 674 m 2
 520 668 l 2
 519 662 514 654 507 645 c 0
 485 610 433 512 350 352 c 1
 273 193 222 85 198 27 c 0
 194 15 189 6 182 -1 c 0
 175 -8 167 -12 158 -12 c 2
 152 -12 l 2
 142 -12 134 -10 129 -5 c 0
 123 0 119 10 118 24 c 0
 109 96 98 204 87 350 c 0
 76 494 70 585 70 623 c 2
 70 631 l 2
 70 672 79 697 99 707 c 0
 104 709 107 711 111 711 c 0
 115 711 119 709 122 706 c 0
 129 700 133 686 134 664 c 0
 134 659 137 599 143 486 c 2
 151 359 l 1
 159 226 l 2
 162 184 165 151 167 126 c 0
 167 109 169 94 170 82 c 1
 177 90 183 102 190 117 c 0
 226 192 278 301 345 445 c 2
 452 664 l 2
 462 685 473 699 484 705 c 0
 489 709 494 711 499 711 c 0
 501 711 504 710 509 708 c 0
 512 704 515 699 517 692 c 0
 519 687 520 681 520 674 c 2
EndSplineSet
Validated: 1
EndChar

StartChar: W
Encoding: 87 87 65
Width: 590
GlyphClass: 2
Flags: HMW
VStem: 507 57
LayerCount: 2
Fore
SplineSet
38 27 m 2
 38 30 l 1
 38 30 39 31 39 32 c 0
 39 34 40 58 43 105 c 0
 45 136 49 168 53 199 c 0
 63 276 84 420 115 632 c 0
 121 675 133 702 153 711 c 0
 155 713 160 714 162 714 c 2
 164 714 l 2
 168 713 171 710 174 708 c 0
 176 707 178 702 178 693 c 0
 178 690 179 686 179 681 c 0
 179 679 178 676 177 672 c 0
 168 633 146 490 111 242 c 0
 108 219 105 187 100 147 c 0
 95 103 91 75 90 65 c 1
 97 55 105 53 113 59 c 1
 120 81 130 108 140 140 c 0
 149 169 170 237 203 342 c 2
 203 342 217 392 249 493 c 0
 266 545 281 588 293 622 c 0
 305 657 313 678 318 687 c 0
 325 703 340 711 361 711 c 1
 362 720 364 720 365 712 c 1
 380 712 387 703 387 685 c 0
 387 668 383 621 375 544 c 0
 373 517 368 479 362 428 c 0
 357 378 353 340 351 313 c 0
 346 273 339 208 333 116 c 0
 331 81 330 49 328 18 c 1
 337 45 346 75 355 108 c 0
 385 204 422 332 465 493 c 0
 489 572 503 623 507 645 c 0
 510 667 517 684 527 696 c 0
 536 707 544 713 552 713 c 0
 554 713 558 712 559 711 c 0
 563 708 564 697 564 678 c 0
 564 670 563 659 560 645 c 0
 552 611 537 560 515 491 c 2
 470 347 l 1
 470 347 459 303 432 217 c 0
 415 161 402 118 391 89 c 0
 380 59 371 39 364 28 c 0
 357 14 347 4 336 -3 c 0
 325 -8 317 -11 310 -11 c 2
 306 -11 l 1
 304 -11 l 2
 295 -11 288 -8 283 -3 c 0
 278 2 276 12 276 26 c 2
 276 30 l 2
 276 92 283 175 297 279 c 2
 315 411 l 2
 327 504 335 566 338 595 c 1
 331 605 323 607 316 601 c 1
 285 490 251 374 215 255 c 0
 180 137 155 61 140 26 c 0
 137 15 131 7 123 1 c 0
 115 -4 107 -8 99 -9 c 0
 91 -10 85 -11 78 -11 c 0
 67 -10 57 -9 49 -8 c 0
 46 -6 44 -4 43 -2 c 0
 41 0 40 4 39 11 c 0
 38 16 38 21 38 27 c 2
72 -11 m 1024
EndSplineSet
Validated: 1
EndChar

StartChar: X
Encoding: 88 88 66
Width: 590
GlyphClass: 2
Flags: HMW
VStem: 168 66
LayerCount: 2
Fore
SplineSet
397 -18 m 0
 390 -15 384 -7 378 5 c 0
 371 19 362 41 353 71 c 0
 344 100 333 137 321 183 c 0
 309 230 298 271 289 305 c 1
 276 288 l 2
 251 255 211 200 158 123 c 0
 102 48 71 7 64 0 c 0
 55 -11 47 -18 40 -21 c 0
 36 -23 32 -24 30 -24 c 0
 25 -24 21 -19 16 -9 c 0
 13 -3 11 4 11 11 c 0
 11 18 18 31 30 48 c 0
 37 56 73 98 137 175 c 1
 197 255 240 315 269 357 c 1
 173 627 l 2
 170 635 168 642 168 649 c 0
 168 667 174 682 185 693 c 0
 193 702 201 706 209 706 c 0
 211 706 215 704 219 702 c 0
 225 698 230 690 234 679 c 0
 247 651 274 567 316 427 c 2
 323 405 l 1
 336 424 l 2
 434 568 496 654 522 683 c 0
 530 694 538 701 546 705 c 0
 551 707 556 709 560 709 c 0
 565 709 569 707 573 700 c 0
 575 695 578 689 578 683 c 0
 578 682 579 679 579 676 c 2
 576 667 l 2
 574 661 570 655 563 648 c 2
 469 532 l 1
 410 450 371 395 350 364 c 0
 348 362 345 358 341 351 c 1
 351 321 367 269 388 195 c 0
 409 121 424 75 433 55 c 0
 438 45 440 36 440 28 c 0
 440 22 439 16 438 11 c 0
 437 6 434 1 430 -5 c 0
 422 -16 414 -22 407 -22 c 0
 405 -22 401 -20 397 -18 c 0
EndSplineSet
Validated: 1
EndChar

StartChar: Y
Encoding: 89 89 67
Width: 590
GlyphClass: 2
Flags: HMW
VStem: 102 76<613 653.5 626 653.5>
LayerCount: 2
Fore
SplineSet
525 623 m 0
 520 615 511 601.999023438 498 582.999023438 c 0
 485 563.999023438 473 546.999023438 465 533.999023438 c 0
 457 520.999023438 440 496.999023438 415 461.999023438 c 0
 393 426.999023438 373 396.999023438 359 374.999023438 c 0
 326.958007812 324.647460938 291.34765625 298.091796875 263 209 c 0
 242 143 246.8203125 95.607421875 199 -17 c 0
 193.903320312 -29.0009765625 173 -35 162 -38 c 0
 160 -38 156 -39 154 -39 c 0
 149 -39 144 -37 139 -33 c 0
 134 -28 130 -21 130 -13 c 0
 130 -10 132 -6 132 -4 c 0
 133 3 138.305664062 8.7080078125 142 18 c 0
 175 101 142 18 206 231 c 1
 200 258 192 291 181 329 c 0
 170 367 163 393 159 407 c 0
 155 421 148 443 138 475 c 0
 129 504 121 530 115 551 c 0
 109 572 104 593 102 613 c 2
 102 626 l 2
 102 634 103 641 105 647 c 0
 108 657 113 665 118 670 c 0
 123 675 128 680 135 682 c 0
 141 684 146 686 151 686 c 0
 155 686 159 685 163 684 c 0
 167 683 170 679 172 673 c 0
 174 667 178 659 178 648 c 0
 179 625 182 600 186 573 c 0
 187 564 189 552 193 536 c 0
 197 520 200 510 201 506 c 0
 212 464 219 442 219 442 c 2
 230 403 238 365 244 328 c 0
 245 311 247 301 248 300 c 0
 253 300 259 308 264 323 c 0
 266 327 275 340 288 362 c 0
 301 384 323 418 352 465 c 0
 381 512 402 548 417 574 c 0
 422 583 430 595 441 611 c 0
 453 627 463 640 468 649 c 0
 474 660 480 668 486 675 c 0
 492 682 498 686 503 688 c 0
 513 692 521 692 528 689 c 0
 530 687 534 684 536 682 c 0
 539 677 540 670 540 663 c 0
 540 661 540 656 539 651 c 0
 537 642 531 633 525 623 c 0
EndSplineSet
Validated: 524289
EndChar

StartChar: Z
Encoding: 90 90 68
Width: 590
GlyphClass: 2
Flags: HMW
HStem: 9 63 627 69<181.5 228 185 228> 629 55
LayerCount: 2
Fore
SplineSet
436 40 m 2xa0
 434 29 429 21 422 14 c 0
 415 7 406 3 392 3 c 0
 389 3 356 4 296 6 c 0
 236 8 180 9 127 9 c 0
 104 9 74 8 35 7 c 2
 34 7 l 2
 32 7 28 8 27 9 c 0
 26 10 23 15 21 20 c 0
 19 25 19 31 19 36 c 2
 19 49 l 2
 20 55 26 66 35 81 c 0
 44 96 59 117 80 144 c 0
 108 181 166 256 256 368 c 0
 345 480 413 561 457 612 c 2
 477 634 l 1
 428 632 373 630 311 629 c 0
 249 628 207 627 186 627 c 2xc0
 185 627 l 2
 178 627 172 628 171 632 c 0
 170 636 168 640 168 644 c 0
 168 648 169 651 169 655 c 0
 171 664 178 674 188 683 c 0
 198 692 210 696 222 696 c 0
 234 696 251 694 272 690 c 0
 293 686 312 684 327 684 c 2
 344 684 l 2
 383 684 434 686 498 691 c 0
 536 693 557 695 557 695 c 2
 559 695 562 694 563 693 c 0
 564 692 566 689 567 687 c 0
 569 682 572 676 572 670 c 0
 572 667 570 663 570 658 c 0
 568 654 564 648 555 639 c 0
 546 630 533 618 519 605 c 0
 505 592 496 581 489 573 c 0
 462 540 423 493 373 431 c 0
 323 369 274 308 226 247 c 0
 178 186 136 131 103 84 c 2
 88 63 l 1
 115 65 l 2
 184 70 247 72 306 72 c 0
 353 72 388 70 410 66 c 0
 422 64 430 60 434 55 c 0
 436 53 436 50 436 46 c 2
 436 40 l 2xa0
EndSplineSet
Validated: 1
EndChar

StartChar: bracketleft
Encoding: 91 91 69
Width: 590
GlyphClass: 2
Flags: HMW
HStem: -69 47 773 64<513 515>
LayerCount: 2
Fore
SplineSet
437 837 m 1
 508 837 l 2
 522 837 530 838 530 838 c 2
 539 838 545 837 547 833 c 0
 549 829 550 824 550 819 c 2
 550 812 l 2
 549 807 546 803 544 798 c 0
 538 786 531 778 522 775 c 0
 519 774 516 773 514 773 c 0
 512 773 509 774 508 774 c 0
 485 778 447 780 395 780 c 0
 372 780 342 779 307 778 c 1
 302 758 293 719 278 661 c 0
 263 603 251 555 241 516 c 0
 231 477 220 431 208 377 c 0
 201 337 185 268 161 170 c 0
 137 72 122 8 115 -22 c 1
 158 -22 l 2
 188 -22 224 -21 266 -20 c 0
 308 -19 331 -17 336 -17 c 0
 346 -17 352 -19 354 -21 c 0
 356 -25 356 -31 355 -39 c 0
 353 -49 349 -58 343 -65 c 0
 341 -68 337 -71 334 -72 c 0
 331 -73 328 -74 326 -74 c 0
 324 -74 321 -73 319 -73 c 0
 304 -71 284 -70 259 -70 c 0
 257 -70 249 -69 238 -69 c 0
 227 -69 212 -70 195 -71 c 0
 132 -75 89 -77 67 -77 c 0
 54 -77 46 -74 42 -70 c 0
 40 -68 39 -65 39 -61 c 0
 39 -55 41 -47 46 -37 c 1
 46 -36 l 1
 49 -27 l 2
 60 8 77 71 99 161 c 0
 121 251 142 341 161 431 c 0
 164 452 169 474 175 500 c 0
 181 526 193 579 213 660 c 0
 218 681 223 703 230 729 c 0
 237 755 241 772 243 781 c 2
 244 784 l 2
 244 788 243 791 243 793 c 0
 243 805 248 815 258 824 c 0
 265 831 276 835 289 835 c 0
 333 836 374 837 410 837 c 2
 437 837 l 1
EndSplineSet
Validated: 1
EndChar

StartChar: backslash
Encoding: 92 92 70
Width: 590
GlyphClass: 2
Flags: HMW
VStem: 359 71<4.29497e+09 4.29497e+09>
LayerCount: 2
Fore
SplineSet
382 -45 m 0
 371 -39 364 -29 359 -14 c 0
 357 -3 349 27 338 76 c 0
 327 125 319 160 314 181 c 0
 305 214 278 296 235 429 c 0
 192 562 166 645 158 679 c 0
 157 684 156 689 156 694 c 0
 156 702 158 709 160 715 c 0
 165 724 172 731 182 736 c 0
 190 739 197 741 204 741 c 0
 209 741 215 739 219 735 c 0
 223 731 226 726 228 718 c 0
 251 621 275 535 297 458 c 0
 332 333 377 190 431 30 c 0
 433 24 434 17 434 10 c 0
 434 3 432 -6 430 -15 c 0
 425 -31 418 -41 410 -45 c 0
 405 -47 401 -49 396 -49 c 0
 391 -49 387 -47 382 -45 c 0
EndSplineSet
Validated: 1
EndChar

StartChar: bracketright
Encoding: 93 93 71
Width: 590
GlyphClass: 2
Flags: HMW
HStem: -69 49 780 57<374 388.5>
LayerCount: 2
Fore
SplineSet
401 837 m 2
 438 837 478 836 520 835 c 0
 532 835 540 832 543 827 c 0
 545 824 547 820 547 816 c 0
 547 812 546 809 546 806 c 0
 544 801 542 796 540 792 c 2
 538 789 l 1
 538 787 l 1
 536 781 l 1
 536 780 l 2
 536 775 531 760 526 735 c 2
 496 591 l 2
 484 535 471 483 458 436 c 0
 436 346 415 256 395 166 c 0
 375 76 363 14 358 -21 c 2
 356 -30 l 1
 356 -32 l 2
 356 -39 355 -45 354 -50 c 0
 353 -58 348 -64 341 -69 c 0
 334 -74 324 -77 311 -77 c 0
 289 -77 247 -74 186 -71 c 0
 168 -71 147 -69 124 -69 c 0
 101 -69 81 -71 61 -73 c 0
 58 -73 54 -74 53 -74 c 0
 48 -74 44 -72 43 -70 c 0
 42 -63 42 -55 44 -44 c 0
 46 -35 51 -29 56 -24 c 0
 61 -19 70 -17 81 -17 c 0
 85 -17 107 -19 149 -20 c 0
 191 -21 226 -22 256 -22 c 2
 293 -22 l 1
 299 4 313 67 334 165 c 0
 355 263 371 331 382 371 c 1
 382 372 l 1
 395 425 407 472 415 511 c 0
 423 550 441 639 470 778 c 1
 431 779 400 780 377 780 c 0
 327 780 290 778 264 774 c 0
 262 774 258 773 256 773 c 0
 254 773 251 773 249 774 c 0
 247 775 245 778 245 780 c 0
 242 789 241 798 243 807 c 0
 245 816 249 823 256 830 c 0
 262 835 270 838 281 838 c 2
 282 838 l 2
 310 838 341 837 374 837 c 2
 401 837 l 2
EndSplineSet
Validated: 1
EndChar

StartChar: asciicircum
Encoding: 94 94 72
Width: 590
GlyphClass: 2
Flags: HMW
HStem: 607 326<82.5 365>
LayerCount: 2
Fore
SplineSet
475 614 m 0
 470 619 461 630 449 648 c 0
 447 650 443 654 441 658 c 0
 414 698 397 726 387 743 c 0
 377 760 365 787 348 824 c 2
 339 841 l 1
 327 828 l 2
 305 803 286 783 269 767 c 0
 252 751 239 739 229 731 c 0
 219 723 206 713 190 699 c 0
 174 685 158 670 140 653 c 0
 137 651 132 647 127 642 c 0
 109 625 96 615 89 610 c 0
 87 608 84 607 83 607 c 0
 82 607 81 609 79 609 c 0
 72 613 66 620 63 631 c 0
 63 632 62 634 62 636 c 0
 62 647 70 659 82 672 c 0
 97 689 118 709 144 734 c 0
 170 759 199 786 231 817 c 0
 263 848 295 882 328 918 c 0
 334 925 342 929 351 931 c 0
 355 932 359 933 363 933 c 0
 367 933 371 932 375 931 c 0
 380 929 385 926 386 922 c 2
 386 921 l 1
 402 886 416 857 428 834 c 0
 440 811 449 794 456 783 c 0
 463 772 473 756 486 735 c 0
 499 714 511 696 522 679 c 0
 525 674 527 668 527 663 c 0
 527 655 524 648 519 642 c 0
 509 629 498 621 486 616 c 0
 483 614 480 613 479 613 c 0
 478 613 476 614 475 614 c 0
EndSplineSet
Validated: 1
EndChar

StartChar: underscore
Encoding: 95 95 73
Width: 590
GlyphClass: 2
Flags: HMW
HStem: -87 60<90.5 112>
LayerCount: 2
Fore
SplineSet
74 -72 m 0
 74 -68 75 -64 76 -59 c 0
 78 -49 81 -41 86 -36 c 0
 91 -30 99 -27 110 -27 c 2
 112 -27 l 2
 169 -28 217 -29 257 -29 c 0
 297 -29 346 -28 407 -27 c 0
 456 -27 485 -25 496 -25 c 0
 507 -25 513 -27 514 -30 c 0
 516 -35 517 -42 516 -51 c 0
 514 -62 509 -70 504 -75 c 0
 497 -82 488 -85 477 -85 c 0
 248 -86 121 -87 94 -87 c 0
 87 -87 82 -86 79 -84 c 0
 76 -82 74 -78 74 -72 c 0
EndSplineSet
Validated: 1
EndChar

StartChar: grave
Encoding: 96 96 74
Width: 590
GlyphClass: 2
Flags: HMW
HStem: 636 161<250 350>
LayerCount: 2
Fore
SplineSet
349 636 m 0
 341 636 333 639 324 644 c 0
 295 665 276 678 269 683 c 0
 262 688 253 695 242 704 c 0
 231 713 221 721 214 728 c 0
 209 734 206 743 206 754 c 0
 206 763 209 772 214 781 c 0
 221 788 231 794 242 796 c 0
 245 796 249 797 251 797 c 0
 257 797 262 796 267 792 c 0
 269 790 285 773 314 742 c 0
 319 736 327 729 337 720 c 0
 347 711 357 703 365 698 c 0
 375 692 381 684 383 673 c 0
 383 670 384 666 384 664 c 0
 384 658 381 653 378 649 c 0
 373 642 365 638 355 637 c 0
 353 637 351 636 349 636 c 0
EndSplineSet
Validated: 1
EndChar

StartChar: a
Encoding: 97 97 75
Width: 590
GlyphClass: 2
Flags: HMW
HStem: -28 69 438 72
VStem: 424 51
LayerCount: 2
Fore
SplineSet
262 450 m 0
 287 471 322 486.999023438 365 499.999023438 c 0
 386 505.999023438 408 509.999023438 431 509.999023438 c 2
 439 509.999023438 l 2
 491 508.999023438 523 492.999023438 533 464.999023438 c 0
 540.201171875 444.74609375 543.755859375 420.64453125 543.755859375 392.51171875 c 0
 543.755859375 358.13671875 538.448242188 317.743164062 528 270.999023438 c 0
 528 268.999023438 526 260.999023438 523 247.999023438 c 0
 520 234.999023438 515 212.999023438 507 182.999023438 c 0
 499 152.999023438 496 136.999023438 496 135.999023438 c 0
 492 118.999023438 487 86.9990234375 481 36.9990234375 c 0
 480 21.9990234375 477 8.9990234375 475 -2.0009765625 c 0
 470 -26.0009765625 463 -38.0009765625 455 -38.0009765625 c 0
 434 -38.0009765625 424 -34.0009765625 424 -25.0009765625 c 0
 422.828125 -7.427734375 422.342773438 12.205078125 422.342773438 34.09765625 c 0
 422.342773438 49.578125 422.584960938 66.1884765625 422.999023438 84 c 1
 415.999023438 71 410.999023438 64 406.999023438 64 c 0
 378.999023438 29 353.999023438 5 330.999023438 -10 c 0
 311.999023438 -22 284.999023438 -28 247.999023438 -28 c 0
 231.999023438 -28 214.999023438 -23 196.999023438 -12 c 0
 177.999023438 -1 162.999023438 17 151.999023438 40 c 0
 140.999023438 63 135.999023438 87 133.999023438 111 c 1
 137.999023438 128 143.999023438 146 151.999023438 165 c 0
 160.999023438 186 172.999023438 203 188.999023438 217 c 0
 211.999023438 238 227.999023438 251 235.999023438 255 c 0
 270.999023438 273 290.999023438 284 295.999023438 285 c 0
 337.999023438 298 360.999023438 306 365.999023438 307 c 0
 394.999023438 311 412.999023438 314 420.999023438 316 c 0
 423.999023438 317 441.999023438 323 473.999023438 335 c 0
 474.999023438 339 476.999023438 340 476.999023438 340 c 2
 479.999023438 346 481.999023438 353 482.999023438 359 c 0
 483.999023438 365 485.999023438 370 485.999023438 376 c 0
 485.999023438 382 484.999023438 389 480.999023438 398 c 0
 475.999023438 410 467.999023438 419 458.999023438 425 c 0
 451.999023438 431 437.999023438 436 418.999023438 437 c 0
 415.999023438 437 412.999023438 438 409.999023438 438 c 0
 396.999023438 438 383.999023438 435 367.999023438 430 c 0
 351.999023438 425 338.999023438 417 326.999023438 409 c 0
 304.999023438 395 287.999023438 383 276.999023438 373 c 0
 256.999023438 352 241.999023438 340 228.999023438 340 c 0
 222.999023438 340 216.999023438 343 211.999023438 348 c 0
 204.764648438 354.430664062 201.407226562 361.5078125 201.407226562 369.75 c 0
 201.407226562 371.76171875 201.607421875 373.842773438 202 376 c 0
 204 387 213 401 225 415 c 0
 236 428 248 439 262 450 c 0
351 67.9990234375 m 0
 364 77.9990234375 376 89.9990234375 387 103.999023438 c 0
 399 117.999023438 411 135.999023438 422 156.999023438 c 0
 433 177.999023438 443 200.999023438 450 225.999023438 c 2
 453 236.999023438 l 1
 442 235.999023438 l 2
 327 224.999023438 248 191.999023438 205 136.999023438 c 1
 202 131.999023438 l 1
 203 126.999023438 l 2
 211 94.9990234375 221 72.9990234375 235 59.9990234375 c 0
 247 46.9990234375 262 40.9990234375 281 40.9990234375 c 0
 303 40.9990234375 327 48.9990234375 351 67.9990234375 c 0
EndSplineSet
Validated: 524289
EndChar

StartChar: b
Encoding: 98 98 76
Width: 590
GlyphClass: 2
Flags: HMW
HStem: -14 74<254 276.5> 425 65<320 394.5>
VStem: 86 60 435 69<295.5 370.5>
LayerCount: 2
Fore
SplineSet
493 263 m 0
 486 227 475 194 462 164 c 0
 449 134 433 107 417 86 c 0
 401 65 384 46 367 31 c 0
 350 16 334 4 317 -3 c 0
 300 -10 284 -14 269 -14 c 0
 227 -14 192 2 166 31 c 1
 161 29 157 34 152 47 c 1
 150 32 148 26 146 26 c 0
 141 12 136 2 129 -3 c 0
 122 -8 114 -11 105 -11 c 0
 98 -11 92 -9 90 -6 c 0
 88 -3 86 2 86 8 c 0
 86 14 87 22 89 30 c 0
 107 115 134 237 170 396 c 0
 205 555 228 663 241 722 c 0
 245 741 250 753 256 759 c 0
 262 765 270 768 280 768 c 0
 286 768 291 766 294 761 c 0
 296 759 297 754 297 748 c 0
 297 742 296 733 294 723 c 0
 287 698 280 666 273 624 c 0
 260 564 247 499 234 428 c 1
 242 437 250 443 257 445 c 0
 294 475 335 490 378 490 c 0
 411 490 439 480 460 461 c 0
 489 436 504 397 504 344 c 0
 504 319 500 292 493 263 c 0
403 397 m 0
 386 416 364 425 338 425 c 0
 302 425 265 408 226 374 c 2
 223 371 l 1
 206 288 185 201 163 109 c 1
 166 105 l 2
 177 88 191 77 209 70 c 0
 224 63 243 60 265 60 c 0
 305 60 338 78 366 113 c 0
 395 147 416 193 429 251 c 0
 433 269 435 287 435 304 c 0
 435 344 424 375 403 397 c 0
EndSplineSet
Validated: 1
EndChar

StartChar: c
Encoding: 99 99 77
Width: 590
GlyphClass: 2
Flags: HMW
HStem: -31 68<217 264> 458 69<355 411>
VStem: 105 70<123.5 126.5> 415 70<358.5 405>
LayerCount: 2
Fore
SplineSet
461 492 m 0
 478 468 485 440 485 407 c 2
 485 405 l 2
 485 389 483 376 478 365 c 0
 472 352 462 343 449 337 c 0
 443 335 438 333 433 333 c 0
 430 333 426 334 424 335 c 0
 422 335 420 338 418 343 c 0
 416 348 415 354 415 363 c 0
 415 366 413 377 413 397 c 0
 413 402 413 408 412 415 c 0
 411 422 409 428 407 432 c 0
 405 436 401 440 397 444 c 0
 389 453 377 458 360 458 c 0
 350 458 340 456 329 451 c 0
 318 446 306 438 293 426 c 0
 280 414 268 399 256 382 c 0
 244 365 232 343 221 315 c 0
 208 287 197 256 188 221 c 0
 179 189 175 161 175 137 c 0
 175 110 181 88 192 71 c 0
 207 50 228 39 255 37 c 2
 264 37 l 2
 287 37 308 42 326 52 c 0
 347 64 362 78 369 93 c 0
 375 104 381 112 387 118 c 0
 393 124 396 128 400 129 c 0
 404 130 408 131 411 131 c 0
 414 131 417 129 422 127 c 0
 425 125 428 122 430 120 c 0
 432 118 433 114 433 110 c 0
 433 100 428 86 417 69 c 0
 402 44 378 22 347 2 c 0
 332 -9 314 -17 294 -23 c 0
 274 -28 252 -31 230 -31 c 0
 204 -31 182 -26 162 -14 c 0
 144 -3 131 12 122 32 c 0
 111 57 105 85 105 116 c 0
 105 137 108 158 113 180 c 0
 124 227 138 269 155 308 c 0
 172 347 191 379 212 406 c 0
 232 433 251 455 271 474 c 0
 310 509 352 527 398 527 c 0
 424 527 445 515 461 492 c 0
EndSplineSet
Validated: 1
EndChar

StartChar: d
Encoding: 100 100 78
Width: 590
GlyphClass: 2
Flags: HMW
HStem: -14 76<174 209> 436 75<281 285 281 281>
VStem: 54 62<171 182> 325 65<20.5 50>
LayerCount: 2
Fore
SplineSet
237 65 m 0
 246 67 254 71 261 74 c 0
 268 77 274 81 281 87 c 0
 288 93 293 99 298 103 c 0
 303 107 308 113 314 121 c 0
 320 129 326 135 328 139 c 0
 330 143 333 147 336 152 c 0
 339 157 342 162 344 164 c 0
 357 226 364 261 366 268 c 0
 367 275 369 286 373 301 c 0
 377 316 379 329 381 338 c 1
 380 341 l 2
 373 368 362 391 345 409 c 0
 328 427 308 436 285 436 c 2
 281 436 l 2
 257 435 234 426 213 410 c 0
 192 394 176 373 161 348 c 0
 146 323 134 296 127 267 c 0
 119 235 116 207 116 183 c 0
 116 159 118 137 125 120 c 0
 133 99 147 83 164 74 c 0
 177 66 191 62 208 62 c 2
 209 62 l 2
 218 62 228 63 237 65 c 0
54 166 m 0
 54 198 58 233 67 271 c 0
 76 316 93 358 115 394 c 0
 137 430 163 458 194 479 c 0
 223 500 255 511 287 511 c 0
 331 511 367 498 392 472 c 1
 397 475 401 471 406 458 c 1
 437 595 459 681 470 716 c 0
 475 733 482 745 489 754 c 0
 498 764 507 769 519 769 c 0
 526 769 533 766 535 761 c 0
 536 760 537 757 537 753 c 0
 537 746 534 736 531 723 c 0
 520 681 501 606 473 495 c 0
 445 384 426 299 413 242 c 1
 413 241 l 1
 406 202 400 168 396 139 c 0
 392 110 391 89 391 77 c 0
 391 65 390 54 390 46 c 0
 390 38 389 32 387 27 c 0
 383 16 378 8 371 2 c 0
 366 -3 359 -7 350 -9 c 0
 347 -9 342 -10 340 -10 c 0
 338 -10 335 -9 333 -8 c 0
 331 -7 330 -4 329 -1 c 0
 327 6 325 15 325 26 c 0
 325 34 326 43 327 52 c 0
 328 60 330 74 332 95 c 1
 324 78 316 67 308 62 c 0
 300 51 292 42 284 34 c 0
 276 26 267 17 256 10 c 0
 235 -6 211 -14 182 -14 c 0
 166 -14 150 -10 135 -3 c 0
 120 4 105 15 93 30 c 0
 81 45 71 64 64 85 c 0
 57 106 54 134 54 166 c 0
EndSplineSet
Validated: 1
EndChar

StartChar: e
Encoding: 101 101 79
Width: 590
GlyphClass: 2
Flags: HMW
HStem: -28 60<227 260 227 260> 455 66<330 378>
VStem: 106 61<134 140.5>
LayerCount: 2
Fore
SplineSet
411 60 m 0
 399 45 387 33 376 24 c 0
 365 14 353 5 339 -4 c 0
 313 -20 278 -28 236 -28 c 2
 227 -28 l 2
 175 -27 140 -4 121 39 c 0
 111 63 106 91 106 124 c 0
 106 157 111 193 120 234 c 0
 130 279 145 320 165 356 c 0
 185 392 206 423 229 447 c 0
 250 471 272 489 296 502 c 0
 320 515 345 521 370 521 c 0
 386 521 402 516 419 505 c 0
 436 494 450 479 463 458 c 0
 476 437 483 416 484 393 c 0
 484 378 476 362 462 343 c 0
 448 324 434 310 421 300 c 0
 395 280 363 261 323 241 c 0
 303 232 287 224 273 217 c 0
 259 210 243 202 222 193 c 0
 204 184 186 178 169 173 c 1
 168 158 167 146 167 138 c 0
 167 130 168 123 168 116 c 0
 170 101 174 88 180 75 c 0
 186 62 194 51 207 44 c 0
 220 36 236 32 254 32 c 0
 266 32 279 35 293 40 c 0
 307 45 319 51 330 60 c 0
 350 77 364 89 371 98 c 0
 382 110 391 119 399 124 c 0
 404 127 410 129 414 129 c 0
 418 129 422 127 425 124 c 0
 430 119 433 112 433 105 c 0
 433 93 426 78 411 60 c 0
278 427 m 0
 267 417 256 405 246 391 c 0
 236 377 226 360 216 339 c 0
 205 318 196 295 189 270 c 2
 184 249 l 1
 204 255 l 2
 307 287 377 319 414 352 c 2
 420 357 l 1
 418 364 l 2
 411 396 402 419 389 433 c 0
 375 448 359 455 340 455 c 0
 320 455 299 446 278 427 c 0
EndSplineSet
Validated: 1
EndChar

StartChar: f
Encoding: 102 102 80
Width: 590
GlyphClass: 2
Flags: HMW
HStem: -16 63 422 65 428 61 703 62
LayerCount: 2
Fore
SplineSet
335 -5 m 0xb0
 328 -12 320.999023438 -16.0009765625 309.999023438 -16.0009765625 c 0
 253.999023438 -17.0009765625 216.999023438 -18.0009765625 198.999023438 -18.0009765625 c 0
 144.999023438 -18.0009765625 104.999023438 -16.0009765625 77.9990234375 -14.0009765625 c 1
 77.9990234375 -22.0009765625 76.9990234375 -22.0009765625 76.9990234375 -14.0009765625 c 1
 66.9990234375 -14.0009765625 59.9990234375 -11.0009765625 57.9990234375 -6.0009765625 c 0
 55.9990234375 -2.0009765625 54.9990234375 1.9990234375 54.9990234375 5.9990234375 c 0
 54.9990234375 9.9990234375 55.9990234375 13.9990234375 56.9990234375 18.9990234375 c 0
 58.9990234375 29.9990234375 62.9990234375 38.9990234375 69.9990234375 45.9990234375 c 0
 75.9990234375 51.9990234375 85.9990234375 54.9990234375 96.9990234375 54.9990234375 c 2
 101.999023438 54.9990234375 l 2
 105.999023438 54.9990234375 112.999023438 53.9990234375 124.999023438 53.9990234375 c 0
 136.999023438 53.9990234375 149.999023438 51.9990234375 162.999023438 51.9990234375 c 0
 163.999023438 48.9990234375 164.999023438 51.9990234375 164.999023438 61.9990234375 c 0
 167.999023438 74.9990234375 170.999023438 87.9990234375 171.999023438 98.9990234375 c 0
 172.999023438 109.999023438 174.999023438 123.999023438 177.999023438 137.999023438 c 0
 180.999023438 151.999023438 183.999023438 171.999023438 187.999023438 198.999023438 c 0
 205.999023438 311.999023438 218.999023438 386.999023438 224.999023438 423.999023438 c 1
 219.999023438 428.999023438 214.999023438 427.999023438 209.999023438 422.999023438 c 1
 200.999023438 422.999023438 187.999023438 421.999023438 171.999023438 421.999023438 c 0
 165.999023438 421.999023438 161.999023438 422.999023438 159.999023438 424.999023438 c 0
 157.999023438 426.999023438 155.999023438 431.999023438 155.999023438 437.999023438 c 0
 155.999023438 441.999023438 156.999023438 446.999023438 157.999023438 451.999023438 c 0
 159.999023438 462.999023438 162.999023438 471.999023438 167.999023438 477.999023438 c 0
 172.999023438 483.999023438 179.999023438 486.999023438 188.999023438 486.999023438 c 2
 235.999023438 486.999023438 l 1xd0
 237.999023438 505.999023438 242.999023438 524.999023438 246.999023438 545.999023438 c 0
 253.999023438 576.999023438 261.999023438 603.999023438 274.999023438 628.999023438 c 0
 287.999023438 653.999023438 301.999023438 673.999023438 318.999023438 690.999023438 c 0
 335.999023438 707.999023438 353.999023438 720.999023438 374.999023438 731.999023438 c 0
 395.999023438 742.999023438 416.999023438 751.999023438 438.999023438 756.999023438 c 0
 462.999023438 761.999023438 488.999023438 764.999023438 513.999023438 764.999023438 c 0
 522.999023438 764.999023438 528.999023438 761.999023438 532.999023438 757.999023438 c 0
 534.999023438 755.999023438 535.999023438 752.999023438 535.999023438 749.999023438 c 0
 535.999023438 746.999023438 534.999023438 742.999023438 534.999023438 739.999023438 c 0
 532.999023438 728.999023438 526.999023438 719.999023438 520.999023438 712.999023438 c 0
 514.999023438 705.999023438 507.999023438 702.999023438 502.999023438 702.999023438 c 0
 449.999023438 702.999023438 405.999023438 687.999023438 368.999023438 657.999023438 c 0
 332.999023438 627.999023438 308.999023438 588.999023438 298.999023438 540.999023438 c 0
 295.999023438 525.999023438 292.999023438 513.999023438 291.999023438 502.999023438 c 2
 291.999023438 502.999023438 290.999023438 500.999023438 290.999023438 488.999023438 c 1xb0
 318.87109375 492.901367188 347.053710938 494.939453125 375.720703125 494.939453125 c 0
 398.479492188 494.939453125 421.543945312 493.655273438 445 491 c 0
 454 491 459 489 460 487 c 0xd0
 462 482 463 476 462 467 c 0
 460 456 456 446 451 440 c 0
 446 434 438 431 428 431 c 0
 415 431 387 430 344 428 c 0
 322 428 301 426 280 426 c 1
 275 401 270 370 264 334 c 0
 258 298 246 226 227 116 c 0
 222 83 219 65 219 63 c 2
 219 51 l 2
 222 44 225 44 228 50 c 1
 272 48 307 47 329 47 c 0
 338 47 345 45 347 41 c 0
 349 39 350 35 350 32 c 0
 350 29 349 25 349 22 c 0
 347 11 342 2 335 -5 c 0xb0
EndSplineSet
Validated: 524289
EndChar

StartChar: g
Encoding: 103 103 81
Width: 590
GlyphClass: 2
Flags: HMW
HStem: -292 59<158 179 158 184> -258 57<66 90> -31 75<261.5 272.5> 437 72<387 449.5 393 449.5>
VStem: 144 61<85 151.5>
LayerCount: 2
Fore
SplineSet
321 55 m 0x38
 336 61 349 69 360 79 c 0
 371 89 382 99 391 112 c 0
 400 125 408 137 414 149 c 0
 421 161 426 173 431 186 c 0
 431 187 447 253 478 383 c 0
 479 390 482 397 487 403 c 2
 498 418 l 1
 478 422 l 1
 475 422 l 1
 449 432 424 437 400 437 c 2
 393 437 l 2
 381 437 369 434 357 430 c 0
 345 426 332 418 319 409 c 0
 306 400 293 388 281 375 c 0
 269 362 258 346 248 326 c 0
 238 306 231 284 224 260 c 0
 219 239 215 219 211 199 c 0
 207 179 205 161 205 142 c 0
 205 123 207 107 211 92 c 0
 215 77 222 65 233 56 c 0
 243 48 254 44 269 44 c 0
 286 44 304 48 321 55 c 0x38
530 402 m 0
 522 367 514 327 505 285 c 0
 489 208 474 144 461 91 c 0
 448 38 436 -8 424 -50 c 0
 414 -82 401 -112 387 -139 c 0
 373 -166 357 -188 340 -207 c 0
 323 -226 304 -241 284 -254 c 0
 246 -279 205 -292 163 -292 c 0xb8
 146 -292 129 -289 114 -284 c 0
 99 -279 87 -273 78 -267 c 2
 72 -263 l 2
 69 -261 67 -258 66 -258 c 2
 62 -255 l 1
 60 -251 l 2
 60 -250 59 -248 59 -247 c 2
 59 -243 l 2
 59 -242 60 -239 61 -236 c 0
 63 -225 68 -216 76 -209 c 0
 81 -204 86 -201 90 -201 c 2x78
 90 -201 92 -202 93 -202 c 0
 95 -202 100 -205 106 -210 c 0
 112 -215 121 -220 131 -225 c 0
 141 -230 152 -233 164 -233 c 0xb8
 194 -233 222 -225 250 -210 c 0
 278 -195 303 -174 325 -146 c 0
 347 -118 363 -87 374 -52 c 0
 379 -38 385 -13 394 22 c 0
 399 32 404 50 408 75 c 1
 397 53 387 38 376 33 c 1
 343 -9 299 -31 246 -31 c 0
 225 -31 208 -27 194 -19 c 0
 176 -9 163 7 155 29 c 0
 148 48 144 71 144 99 c 0
 144 119 151 159 161 221 c 0
 170 263 182 299 197 332 c 0
 212 365 227 393 245 414 c 0
 263 435 282 453 303 468 c 0
 324 483 346 494 367 500 c 0
 388 506 411 509 435 509 c 0
 464 509 485 507 496 505 c 0
 507 503 518 497 528 489 c 0
 530 487 531 483 531 478 c 0
 531 469 528 460 523 453 c 1
 523 452 l 2
 522 451 516 444 505 433 c 1
 512 437 518 435 525 427 c 0
 527 427 528 425 529 423 c 0
 530 421 531 418 531 415 c 0
 531 412 531 407 530 402 c 0
EndSplineSet
Validated: 1
EndChar

StartChar: h
Encoding: 104 104 82
Width: 590
GlyphClass: 2
Flags: HMW
HStem: 414 87<377.5 446.5 386 446.5>
VStem: 293 2<768 772> 431 68<334.5 420>
LayerCount: 2
Fore
SplineSet
487 320 m 0
 478 278 467 226 456 163 c 0
 445 100 436 55 431 33 c 0
 427 14 420 0 410 -10 c 0
 401 -19 392 -23 384 -23 c 0
 377 -23 371 -18 366 -11 c 0
 364 -6 362 -1 362 6 c 0
 362 9 363 13 363 17 c 0
 366 36 374 72 387 126 c 0
 401 180 411 224 419 259 c 0
 427 294 431 323 431 346 c 0
 431 369 427 387 419 398 c 0
 412 409 401 414 387 414 c 2
 386 414 l 2
 369 414 353 410 338 403 c 0
 323 396 310 386 299 376 c 0
 288 366 279 354 269 340 c 0
 259 326 251 314 245 301 c 0
 239 288 233 276 228 264 c 0
 223 252 220 242 218 235 c 0
 216 228 213 221 213 217 c 0
 213 213 210 207 208 199 c 0
 206 191 204 184 203 179 c 0
 200 166 195 151 191 131 c 0
 187 111 183 96 180 82 c 0
 177 68 170 46 161 16 c 0
 157 4 150 -5 140 -12 c 0
 130 -19 121 -22 112 -22 c 1
 110 -21 l 2
 107 -21 103 -21 101 -20 c 0
 99 -19 96 -16 94 -14 c 0
 92 -11 91 -7 91 -2 c 0
 91 3 92 8 94 15 c 0
 102 44 116 94 135 167 c 0
 154 240 165 288 170 313 c 0
 192 428 220 565 254 723 c 0
 257 738 263 750 270 757 c 0
 277 764 285 768 293 768 c 1
 293 776 295 776 295 768 c 1
 302 768 307 766 310 761 c 0
 314 756 314 746 312 732 c 0
 297 655 272 527 239 349 c 1
 250 367 260 384 270 401 c 0
 277 414 286 426 296 437 c 0
 306 448 318 458 331 468 c 0
 344 478 359 486 376 492 c 0
 396 498 416 501 438 501 c 0
 455 501 468 496 477 488 c 0
 486 480 493 468 496 452 c 0
 498 440 499 427 499 413 c 0
 499 387 495 356 487 320 c 0
EndSplineSet
Validated: 1
EndChar

StartChar: i
Encoding: 105 105 83
Width: 590
GlyphClass: 2
Flags: HMW
HStem: -17 62<123 283> 406 61<323 397> 581 130<389.5 436.5 393 436.5>
VStem: 354 125
LayerCount: 2
Fore
SplineSet
114 -12 m 0
 113 -10 111 -5 111 -1 c 0
 111 3 113 8 114 13 c 0
 117 23 121 31 126 37 c 0
 131 42 138 45 148 45 c 2
 283 45 l 1
 290 82 295 111 298 132 c 0
 301 153 306 173 310 194 c 0
 315 217 323 262 337 326 c 0
 345 362 351 383 352 388 c 1
 353 385 354 389 355 401 c 1
 351 394 348 395 345 404 c 0
 341 405 335 406 327 406 c 0
 319 406 309 405 297 405 c 0
 285 405 276 404 269 404 c 2
 251 404 l 1
 250 404 l 2
 245 404 243 406 241 409 c 0
 240 412 239 416 239 418 c 0
 239 420 240 424 240 427 c 0
 241 438 244 446 249 453 c 0
 253 458 259 461 266 461 c 2
 267 461 l 1
 304 465 339 467 370 467 c 2
 397 467 l 2
 403 467 408 465 411 463 c 0
 414 461 416 457 416 453 c 0
 418 442 418 432 416 424 c 0
 403 382 392 338 382 296 c 0
 372 254 363 217 357 186 c 0
 352 155 344 108 334 45 c 1
 453 45 l 2
 461 45 465 44 466 42 c 0
 467 40 468 36 468 34 c 0
 468 32 467 27 466 21 c 0
 464 10 460 3 454 -3 c 0
 448 -9 441 -12 431 -12 c 0
 421 -12 375 -12 293 -14 c 0
 210 -16 154 -17 127 -17 c 0
 119 -17 115 -15 114 -12 c 0
386 690 m 0
 403 703 419 710 436 711 c 0
 437 711 438 712 439 712 c 0
 454 712 465 706 472 696 c 0
 477 688 478 679 478 669 c 0
 478 664 478 658 477 652 c 0
 472 633 463 617 449 604 c 0
 435 591 418 583 398 581 c 2
 393 581 l 2
 386 581 380 582 375 584 c 0
 370 586 365 591 361 597 c 0
 356 606 354 616 354 627 c 0
 354 652 365 673 386 690 c 0
EndSplineSet
Validated: 1
EndChar

StartChar: j
Encoding: 106 106 84
Width: 590
GlyphClass: 2
Flags: HMW
HStem: -287 66<60 104.5> 397 68 578 129<463.5 513.5>
VStem: 426 120<621.5 670>
LayerCount: 2
Fore
SplineSet
447 582 m 0
 440 585 435 590 432 597 c 0
 428 606 426 616 426 627 c 0
 426 634 426 641 428 649 c 0
 432 666 441 680 455 690 c 0
 471 701 487 707 506 707 c 0
 521 707 532 702 539 692 c 0
 544 684 546 675 546 665 c 0
 546 660 545 654 544 647 c 0
 539 627 531 611 516 598 c 0
 501 585 485 578 468 578 c 0
 459 578 452 580 447 582 c 0
206 -193 m 0
 225 -183 241 -171 257 -156 c 0
 273 -141 286 -123 298 -102 c 0
 310 -81 320 -56 325 -29 c 0
 326 -23 330 3 338 48 c 0
 346 93 355 139 364 186 c 0
 373 233 390 303 412 398 c 1
 407 389 400 389 395 397 c 1
 382 396 345 396 283 396 c 0
 257 396 241 397 236 397 c 0
 231 397 227 398 225 399 c 0
 223 400 220 403 218 407 c 0
 216 411 214 415 214 420 c 0
 214 422 214 426 215 431 c 0
 217 438 222 445 228 451 c 0
 234 457 242 459 252 459 c 0
 272 460 300 462 337 463 c 0
 374 464 401 465 417 465 c 0
 435 465 448 464 459 464 c 2
 460 464 l 2
 465 464 470 462 473 460 c 0
 476 458 478 454 478 450 c 0
 479 439 479 430 478 423 c 0
 470 401 464 382 459 367 c 0
 457 360 455 351 453 342 c 0
 449 325 437 270 418 178 c 0
 401 87 386 15 375 -36 c 0
 369 -64 362 -90 352 -113 c 0
 342 -136 330 -156 317 -173 c 0
 304 -190 291 -205 275 -218 c 0
 259 -231 244 -242 228 -250 c 0
 212 -258 195 -265 177 -271 c 0
 157 -277 139 -282 120 -284 c 0
 101 -286 83 -287 64 -287 c 0
 56 -287 50 -284 46 -280 c 0
 44 -278 43 -275 43 -272 c 0
 43 -269 44 -265 44 -262 c 0
 46 -251 52 -241 60 -233 c 0
 68 -225 75 -221 81 -221 c 0
 128 -221 169 -212 206 -193 c 0
EndSplineSet
Validated: 1
EndChar

StartChar: k
Encoding: 107 107 85
Width: 590
GlyphClass: 2
Flags: HMW
VStem: 374 58
LayerCount: 2
Fore
SplineSet
390 -22 m 0
 388 -22 385 -20 383 -17 c 0
 380 -14 376 -7 374 4 c 0
 373 9 367 23 358 45 c 0
 349 68 340 91 331 113 c 0
 322 136 313 163 305 192 c 0
 296 219 291 242 289 261 c 2
 287 283 l 1
 196 199 l 1
 191 199 l 1
 189 190 l 2
 182 165 176 135 171 101 c 0
 165 67 160 44 157 32 c 0
 153 11 146 -3 137 -11 c 0
 129 -19 120 -23 111 -23 c 0
 110 -23 108 -22 107 -22 c 0
 99 -22 93 -18 88 -9 c 0
 86 -4 85 2 85 10 c 0
 85 13 86 18 88 23 c 0
 97 54 110 104 126 173 c 0
 155 291 185 424 217 571 c 0
 232 650 242 698 246 718 c 0
 248 735 254 748 262 756 c 0
 270 764 279 768 288 768 c 0
 295 768 301 764 304 756 c 0
 306 751 307 745 307 737 c 0
 307 733 306 729 305 724 c 0
 288 638 256 488 209 277 c 1
 235 302 l 2
 270 339 313 382 365 433 c 1
 422 480 454 506 461 512 c 0
 470 521 477 528 484 530 c 0
 487 532 491 533 493 533 c 0
 496 533 500 529 502 522 c 0
 504 516 505 510 505 504 c 0
 505 495 498 483 481 469 c 0
 466 452 415 404 329 324 c 1
 331 317 l 2
 336 292 347 257 364 212 c 0
 381 165 397 125 410 93 c 0
 424 64 432 45 433 37 c 0
 431 15 422 -2 408 -13 c 0
 400 -19 394 -22 390 -22 c 0
EndSplineSet
Validated: 1
EndChar

StartChar: l
Encoding: 108 108 86
Width: 590
GlyphClass: 2
Flags: HMW
HStem: -30 61 414 59 481 21G
VStem: 182 67<87.501 125>
LayerCount: 2
Fore
SplineSet
446 44 m 0
 446 33 442 23.0009765625 433 13.0009765625 c 0
 424 4.0009765625 413 -2.9990234375 402 -7.9990234375 c 0
 379 -19.9990234375 316 -29.9990234375 305 -29.9990234375 c 2
 296 -29.9990234375 l 2
 256 -27.9990234375 225 -12.9990234375 204 14.0009765625 c 0
 194 27.0009765625 188 45.0009765625 185 66.0009765625 c 0
 184 75.0009765625 182 83.0009765625 182 92.0009765625 c 0
 182 107.000976562 185 123.000976562 188 141.000976562 c 0
 190 156.000976562 193 172.000976562 198 192.000976562 c 0
 203 215.000976562 208 231.000976562 210 239.000976562 c 0
 212 247.000976562 215 262.000976562 221 283.000976562 c 0
 227 304.000976562 231 317.000976562 232 324.000976562 c 0
 233 331.000976562 237 344.000976562 243 364.000976562 c 0
 293.357421875 531.858398438 293.357421875 531.858398438 308 649.000976562 c 0
 308 657.000976562 312 665.000976562 317 673.000976562 c 0
 322 680.000976562 326 683.000976562 331 683.000976562 c 0
 337 683.000976562 342 680.000976562 349 673.000976562 c 0
 357.26953125 664.731445312 362.576171875 659.424804688 362.576171875 641.909179688 c 0
 362.576171875 610.530273438 345.543945312 539.969726562 298 343 c 0
 290 314 284 294 282 283 c 0
 280 272 275 254 269 228 c 0
 263 202 258 187 258 183 c 0
 258 179 256 168 252 151 c 0
 250 140 249 130 249 120 c 0
 249 99 252 82 261 67 c 0
 274 45 295 32 322 31 c 2
 329 31 l 2
 356 31 403 43 434 59 c 0
 436 59 439 60 440 60 c 0
 441 60 442 59 442 59 c 2
 444 57 446 51 446 44 c 0
EndSplineSet
Validated: 524289
EndChar

StartChar: m
Encoding: 109 109 87
Width: 590
GlyphClass: 2
Flags: HMW
HStem: 416 94<284.5 337.5>
VStem: 309 40 464 65<387.5 472.5>
LayerCount: 2
Fore
SplineSet
264 408 m 0
 255 402 245 392 234 379 c 0
 215 357 198 329 181 297 c 1
 175 275 166 234 154 177 c 0
 149 154 143 124 136 87 c 0
 129 50 124 28 122 19 c 0
 120 10 116 3 113 -3 c 0
 110 -9 106 -15 102 -17 c 0
 98 -19 94 -20 90 -21 c 0
 86 -22 83 -23 78 -23 c 0
 71 -23 65 -21 63 -17 c 0
 62 -15 61 -11 61 -5 c 0
 61 1 62 7 63 15 c 0
 64 23 68 39 73 65 c 0
 78 91 82 116 87 140 c 0
 111 251 135 360 159 467 c 0
 164 488 171 504 182 513 c 0
 191 521 199 525 207 525 c 2
 208 525 l 1
 209 525 l 2
 211 525 214 525 216 524 c 0
 221 522 223 516 223 508 c 0
 223 500 221 490 217 477 c 0
 215 472 212 464 208 453 c 2
 200 427 l 2
 191 405 182 374 172 335 c 1
 188 370 204 397 220 416 c 1
 256 478 294 510 335 510 c 0
 340 510 345 504 347 492 c 0
 350 479 352 462 352 441 c 0
 352 435 351 415 350 381 c 1
 357 401 364 412 371 415 c 1
 413 478 460 510 513 510 c 0
 517 510 520 508 522 506 c 0
 527 499 529 484 529 461 c 0
 529 449 527 433 524 413 c 0
 514 346 497 264 474 167 c 0
 463 122 453 77 445 34 c 0
 443 21 439 10 436 2 c 0
 433 -6 430 -12 427 -15 c 0
 424 -18 420 -20 418 -21 c 0
 416 -22 412 -23 409 -23 c 2
 403 -23 l 2
 401 -23 398 -22 396 -21 c 0
 394 -20 391 -18 389 -16 c 0
 387 -14 385 -7 385 3 c 0
 385 10 387 18 388 27 c 0
 392 53 397 80 403 107 c 0
 411 132 419 164 427 205 c 0
 435 240 443 272 450 301 c 0
 457 330 461 354 463 374 c 0
 463 380 464 385 464 390 c 0
 464 399 462 405 460 409 c 0
 457 414 452 416 447 416 c 2
 446 416 l 2
 426 416 408 405 389 383 c 0
 372 362 356 335 340 301 c 1
 334 262 323 212 308 150 c 0
 293 88 283 46 280 24 c 0
 278 13 275 4 273 -2 c 0
 271 -9 267 -14 264 -16 c 0
 259 -21 253 -23 248 -23 c 0
 246 -23 244 -22 244 -22 c 1
 243 -22 l 2
 237 -22 232 -20 230 -16 c 0
 229 -14 228 -9 228 -2 c 0
 228 1 229 9 230 20 c 0
 233 41 242 78 256 131 c 0
 270 184 280 226 286 256 c 0
 288 256 290 263 291 279 c 0
 303 339 309 374 309 387 c 0
 309 401 305 410 297 414 c 0
 295 415 291 416 288 416 c 0
 281 416 273 414 264 408 c 0
EndSplineSet
Validated: 1
EndChar

StartChar: n
Encoding: 110 110 88
Width: 590
GlyphClass: 2
Flags: HMW
HStem: 242 2 417 93<373.5 422>
VStem: 401 2<-26.5 -23> 429 61<352 417.5>
LayerCount: 2
Fore
SplineSet
102 17 m 0
 104 23 107 40 110 68 c 0
 113 96 117 120 120 140 c 0
 129 185 144 248 165 326 c 0
 186 404 200 449 202 462 c 0
 207 482 215 495 224 503 c 0
 232 511 240 515 248 515 c 2
 250 515 l 1
 251 515 l 2
 258 515 263 512 265 507 c 0
 266 505 267 502 267 496 c 0
 267 490 264 482 262 472 c 0
 258 455 255 445 254 440 c 0
 247 427 241 405 235 375 c 1
 248 400 260 418 272 428 c 1
 288 451 308 470 331 486 c 0
 354 502 382 510 414 510 c 0
 430 510 443 507 454 501 c 0
 467 494 475 482 481 466 c 0
 487 450 490 429 490 406 c 0
 490 383 486 355 480 324 c 0
 472 281 464 226 457 161 c 0
 450 96 445 51 442 30 c 0
 439 10 433 -3 426 -11 c 0
 419 -19 411 -22 403 -22 c 1
 403 -31 401 -31 401 -23 c 1
 393 -23 387 -20 383 -14 c 0
 380 -10 378 -4 378 5 c 0
 378 10 378 16 379 21 c 0
 380 26 385 58 393 118 c 0
 400 175 408 222 415 258 c 0
 424 306 429 341 429 363 c 0
 429 368 428 373 428 377 c 0
 426 392 420 402 410 409 c 0
 403 414 393 417 381 417 c 0
 366 417 352 415 338 409 c 0
 324 403 313 396 302 387 c 0
 291 378 280 367 269 355 c 0
 258 343 249 332 242 321 c 0
 235 310 227 299 219 286 c 0
 209 253.5 209 253.5 192 177 c 0
 187 154 182 124 177 88 c 0
 172 52 168 30 166 20 c 0
 162 4 156 -7 147 -14 c 0
 140 -20 132 -22 123 -22 c 0
 114 -22 108 -19 104 -14 c 0
 100 -9 100 2 102 17 c 0
EndSplineSet
Validated: 524289
EndChar

StartChar: o
Encoding: 111 111 89
Width: 590
GlyphClass: 2
Flags: HMW
HStem: -27 74<257 258> 472 46<314.5 369>
VStem: 89 70<156.5 163.5> 429 71<341 367>
LayerCount: 2
Fore
SplineSet
174 91 m 0
 182 78 194 68 209 61 c 0
 222 53 238 48 257 47 c 2
 264 47 l 2
 279 47 295 52 310 62 c 0
 325 72 339 85 351 104 c 0
 376 139 397 186 412 245 c 0
 423 289 429 326 429 356 c 0
 429 378 425 398 418 414 c 0
 409 435 396 451 377 461 c 0
 364 468 349 472 332 472 c 0
 297 472 267 452 242 412 c 0
 216 374 193 321 173 253 c 0
 163 214 159 183 159 161 c 0
 159 152 160 144 160 137 c 0
 162 119 166 104 174 91 c 0
479 224 m 0
 467 182 453 147 437 116 c 0
 421 85 400 59 378 37 c 0
 339 -5 289 -27 227 -27 c 0
 198 -27 173 -20 152 -5 c 0
 132 9 117 28 107 51 c 0
 95 80 89 113 89 150 c 0
 89 177 94 204 101 233 c 1
 101 234 l 1
 110 274 123 312 141 347 c 0
 159 382 180 412 204 437 c 0
 226 462 250 483 276 497 c 0
 302 511 330 518 359 518 c 0
 379 518 398 514 415 508 c 0
 432 502 448 492 462 478 c 0
 476 464 486 445 493 424 c 0
 498 406 500 384 500 358 c 0
 500 318 493 273 479 224 c 0
EndSplineSet
Validated: 1
EndChar

StartChar: p
Encoding: 112 112 90
Width: 590
GlyphClass: 2
Flags: HMW
HStem: -34 20G -31 70<234.5 279 234.5 293> 437 72<389.5 390.5>
VStem: 456 67<329 381.5>
LayerCount: 2
Fore
SplineSet
194 -20 m 1xb0
 190 -26 187 -24 182 -14 c 1
 173 -56 161 -102 150 -155 c 0
 139 -208 131 -242 128 -256 c 0
 125 -270 119 -280 112 -287 c 0
 105 -294 97 -297 89 -297 c 0
 82 -297 77 -294 74 -292 c 0
 69 -289 66 -283 66 -274 c 0
 66 -270 68 -265 68 -260 c 0
 79 -198 102 -90 134 61 c 0
 166 212 191 332 210 419 c 0
 217 454 223 478 227 492 c 0
 232 508 235 518 237 523 c 0
 242 532 249 538 257 543 c 0
 264 546 269 548 274 548 c 0
 281 548 287 545 290 539 c 0
 291 537 291 533 291 531 c 0
 291 529 291 525 290 523 c 0
 285 512 278 496 273 476 c 0
 271 473 268 462 266 443 c 1
 274 458 281 464 290 462 c 1
 332 493 372 509 407 509 c 0
 428 509 446 507 460 502 c 0
 474 497 487 489 497 477 c 0
 507 465 515 448 519 427 c 0
 522 411 523 392 523 371 c 0
 523 329 517 279 504 220 c 0
 499 198 493 174 483 151 c 0
 473 128 461 105 447 83 c 0
 433 61 417 42 400 25 c 0
 385 8 369 -6 350 -16 c 0
 331 -25 312 -31 293 -31 c 2x70
 279 -31 l 2
 239 -31 211 -27 194 -20 c 1xb0
320 419 m 0
 297 407 276 392 257 375 c 2
 253 372 l 1
 253 368 l 1
 243 311 l 2
 240 292 222 206 192 52 c 1
 200 48 l 2
 211 42 225 39 244 39 c 0
 263 39 282 39 302 40 c 0
 321 41 337 49 353 62 c 0
 369 75 383 92 394 113 c 0
 416 152 433 197 444 248 c 0
 451 285 456 316 456 342 c 0
 456 355 455 367 453 376 c 0
 451 391 445 403 438 413 c 0
 431 423 423 429 414 432 c 0
 405 435 396 437 385 437 c 0
 365 437 343 431 320 419 c 0
EndSplineSet
Validated: 1
EndChar

StartChar: q
Encoding: 113 113 91
Width: 590
GlyphClass: 2
Flags: HMW
HStem: -31 71<202 251 212 251> 417 53<336 390.5>
VStem: 91 72<112 162.5> 266 81 268 2
LayerCount: 2
Fore
SplineSet
91 122 m 0xf0
 91 142 94 161 99 181 c 0
 109 223 122 261 139 295 c 0
 156 329 173 357 193 378 c 0
 212 399 230 417 251 431 c 0
 272 445 291 455 312 461 c 0
 333 467 354 470 376 470 c 0
 405 470 429 465 450 455 c 0
 471 445 486 433 493 418 c 0
 497 411 499 403 499 395 c 0
 499 386 496 378 491 372 c 0
 486 367 481 364 475 362 c 1
 473 353 471 353 469 360 c 1
 436 218 415 129 406 92 c 0
 396 43 386 3 376 -30 c 0
 365 -83 355 -127 347 -162 c 1
 347 -163 l 1xf0
 338 -216 328 -261 319 -298 c 1
 268 -298 268 -298 268 -288 c 0xe8
 268 -284.837890625 266 -280 266 -275 c 0
 266 -270 267 -263 269 -255 c 0
 282 -205 302 -121 329 -3 c 1
 322 -15 316 -19 309 -14 c 1
 286 -25 256 -31 220 -31 c 2
 212 -31 l 2
 192 -31 174 -26 158 -18 c 0
 142 -10 130 2 120 16 c 0
 110 30 103 45 98 64 c 0
 93 83 91 102 91 122 c 0xf0
163 150 m 0
 163 135 164 122 166 109 c 0
 170 89 178 74 191 61 c 0
 204 48 220 41 238 40 c 2
 251 40 l 2
 284 40 312 46 337 61 c 2
 342 64 l 1
 351 106 377 216 419 394 c 1
 413 399 l 2
 403 406 393 411 382 413 c 0
 372 415 358 417 341 417 c 0
 331 417 320 415 309 411 c 0
 298 407 286 401 273 392 c 0
 260 383 248 371 237 357 c 0
 226 343 214 326 203 304 c 0
 191 282 181 257 174 230 c 0
 167 202 163 175 163 150 c 0
EndSplineSet
Validated: 524289
EndChar

StartChar: r
Encoding: 114 114 92
Width: 590
GlyphClass: 2
Flags: HMW
HStem: 441 65
LayerCount: 2
Fore
SplineSet
103 62 m 0
 107 94 111 120 114 140 c 0
 123 184 137 245 158 320 c 0
 179 395 192 443 197 463 c 0
 202 482 209 495 218 503 c 0
 227 511 236 515 245 515 c 0
 252 515 257 512 259 507 c 0
 260 505 261 501 261 495 c 0
 261 489 260 481 258 472 c 0
 245 431 233 386 221 335 c 1
 234 359 246 379 259 396 c 0
 267 409 277 421 291 434 c 0
 305 447 320 459 339 470 c 0
 358 481 380 490 405 496 c 0
 432 503 457 506 482 506 c 2
 490 506 l 2
 491 503 492 498 493 492 c 0
 494 486 495 480 495 473 c 0
 495 466 494 458 494 451 c 0
 492 434 489 417 486 400 c 0
 483 383 479 370 474 360 c 0
 469 349 463 340 457 335 c 0
 451 330 444 325 435 323 c 2
 431 323 l 2
 426 323 422 325 420 328 c 0
 417 333 415 338 415 345 c 2
 415 349 l 2
 415 356 416 365 419 377 c 0
 422 389 424 400 424 409 c 0
 424 418 421 427 417 435 c 0
 417 443 415 445 414 441 c 1
 407 441 l 2
 386 441 367 436 348 427 c 0
 329 418 312 407 298 394 c 0
 284 381 270 366 257 350 c 0
 235 323 217 297 205 272 c 1
 196 235 189 207 186 187 c 0
 180 160 174 125 168 83 c 0
 165 54 161 31 158 14 c 0
 156 2 151 -7 146 -13 c 0
 140 -20 131 -24 119 -24 c 0
 109 -24 102 -22 98 -17 c 0
 96 -15 95 -11 95 -6 c 0
 95 -1 97 4 97 10 c 0
 99 21 101 38 103 62 c 0
EndSplineSet
Validated: 1
EndChar

StartChar: s
Encoding: 115 115 93
Width: 590
GlyphClass: 2
Flags: HMW
HStem: -35 63<200.5 246.5> 405 64<399 484 408 484>
VStem: 100 72 178 61<282.5 313> 398 65<140 162> 420 70<393 428 405 428>
LayerCount: 2
Fore
SplineSet
156 -26 m 0xf8
 140 -20 126 -10 116 3 c 0
 106 16 100 32 100 51 c 0
 100 81 109 101 128 110 c 0
 135 113 142 115 149 115 c 0
 154 115 160 112 164 108 c 0
 168 104 171 98 172 89 c 0
 173 80 175 74 176 69 c 0
 177 64 179 59 182 52 c 0
 185 45 190 40 196 37 c 0
 207 31 222 28 239 28 c 0
 254 28 272 33 293 42 c 0
 314 51 335 63 355 79 c 0
 376 96 390 113 396 131 c 0
 397 134 398 138 398 142 c 0xf8
 398 151 395 158 389 165 c 0
 382 173 371 180 358 185 c 0
 346 190 334 195 321 199 c 0
 318.1875 198.4375 315.41015625 198.15625 312.654296875 198.15625 c 0
 300.71484375 198.15625 289.1875 203.4375 277 214 c 1
 259 220 245 226 233 231 c 0
 207 242 190 253 183 264 c 0
 180 270 178 278 178 287 c 0
 178 296 179 306 181 317 c 0
 192 363 222 400 271 427 c 0
 318 455 389 469 484 469 c 1
 484 469 486 466 486 464 c 0
 486 462 488 457 489 449 c 0
 490 441 490 432 490 424 c 0
 490 416 490 407 489 396 c 0
 488 385 486 375 485 367 c 0
 483 359 481 352 480 346 c 0
 479 340 476 334 472 329 c 0
 468 324 462 321 456 319 c 0
 453 318 449 317 445 317 c 0
 441 317 438 318 435 320 c 0
 430 324 426 329 426 334 c 0
 422 354 420 373 420 393 c 2
 420 405 l 1xf4
 408 405 l 2
 390 405 373 403 355 400 c 0
 338 397 322 392 305 386 c 0
 288 380 274 370 262 359 c 0
 249 346 241 332 239 316 c 2
 239 313 l 2
 239 302 245 293 258 285 c 0
 271 277 290 268 317 261 c 0
 336 256 352 251 367 246 c 0
 383 241 399 234 414 226 c 0
 429 218 440 210 448 201 c 0
 456 192 460 182 462 171 c 0
 462 168 463 164 463 160 c 0
 463 151 461 142 458 132 c 0
 447 98 427 68 399 42 c 0
 372 17 343 -3 311 -16 c 0
 279 -29 246 -35 211 -35 c 0
 190 -35 172 -32 156 -26 c 0xf8
EndSplineSet
Validated: 524289
EndChar

StartChar: t
Encoding: 116 116 94
Width: 590
GlyphClass: 2
Flags: HMW
HStem: -22 61<246 279 246 279> 422 59<421 442.5> 489 21G
VStem: 132 67<95.5 133>
LayerCount: 2
Fore
SplineSet
379 48 m 0
 379 37 375 27 366 17 c 0
 357 8 346 1 335 -4 c 0
 312 -16 285 -22 255 -22 c 2
 246 -22 l 2
 206 -20 175 -5 154 22 c 0
 144 35 138 53 135 74 c 0
 134 83 132 91 132 100 c 0
 132 115 135 131 138 149 c 0
 140 164 143 180 148 200 c 0
 153 223 158 239 160 247 c 0
 162 255 165 270 171 291 c 0
 177 312 181 325 182 332 c 0
 183 339 187 352 193 372 c 0
 199 392 204 409 209 426 c 1
 150 426 l 2
 144 426 140 427 138 429 c 0
 136 431 135 434 135 439 c 0
 135 444 136 450 137 456 c 0
 139 467 143 476 148 482 c 0
 153 488 161 491 171 491 c 0
 189 491 204 490 215 490 c 1
 218 494 223 494 226 489 c 1
 227 497 228 500 228 499 c 1
 241 548 251 601 258 657 c 0
 258 665 262 673 267 681 c 0
 272 688 276 691 281 691 c 0
 287 691 292 688 299 681 c 0
 304 676 308 671 308 666 c 0
 297 612 286 552 276 487 c 1
 373 483 427 481 439 481 c 0
 446 481 452 480 454 478 c 0
 456 476 457 472 457 465 c 0
 457 461 457 456 456 451 c 0
 454 442 448 434 443 429 c 0
 438 424 431 422 421 422 c 0
 362 424 311 424 264 424 c 1
 261 404 255 380 248 351 c 0
 240 322 234 302 232 291 c 0
 230 280 225 262 219 236 c 0
 213 210 208 195 208 191 c 0
 208 187 206 176 202 159 c 0
 200 148 199 138 199 128 c 0
 199 107 202 90 211 75 c 0
 224 53 245 40 272 39 c 2
 279 39 l 2
 306 39 336 47 367 63 c 0
 369 63 372 64 373 64 c 0
 374 64 375 63 375 63 c 2
 377 61 379 55 379 48 c 0
EndSplineSet
Validated: 1
EndChar

StartChar: u
Encoding: 117 117 95
Width: 590
GlyphClass: 2
Flags: HMW
HStem: -17 69<174.5 227>
VStem: 91 69<80 107.5>
LayerCount: 2
Fore
SplineSet
497 446 m 0
 497 436 492 414 485 381 c 0
 478 348 474 329 473 322 c 0
 461 264 439 164 406 23 c 0
 402 6 396 -5 389 -12 c 0
 382 -19 374 -23 366 -23 c 0
 364 -23 361 -24 361 -24 c 2
 354 -24 349 -22 346 -17 c 0
 343.856445312 -14.3203125 342.861328125 -9.91796875 342.861328125 -3.7919921875 c 0
 342.861328125 1.5126953125 343.607421875 8.1103515625 345 16 c 0
 349 28 352 48 356 77 c 1
 348.5 62.9375 341 55.90625 333.5 55.90625 c 2
 332 56 l 1
 317 43 303 31 286 20 c 0
 269 9 250 -1 228 -8 c 0
 211 -14 194 -17 177 -17 c 0
 172 -17 168 -16 163 -16 c 0
 147 -15 133 -7 120 6 c 0
 107 19 99 35 95 55 c 0
 93 66 91 75 91 85 c 0
 91 95 93 105 94 114 c 0
 101 160 111 213 125 274 c 0
 130 295 138 324 148 362 c 0
 158 400 165 426 167 441 c 0
 170 454 176 464 184 470 c 0
 192 476 199 479 208 479 c 0
 217 479 224 476 228 471 c 0
 230 469 230 464 230 458 c 0
 230 455 230 450 229 444 c 0
 228 438 223 418 214 381 c 0
 204 343 196 311 191 284 c 0
 175 215 166 163 162 126 c 0
 161 118 160 111 160 104 c 0
 160 86 163 73 171 65 c 0
 178 60 185 56 192 55 c 0
 199 54 207 52 216 52 c 0
 238 52 264 58 290 72 c 0
 316 86 342 102 365 122 c 1
 365 115 367 116 368 125 c 0
 378 167 388 218 400 278 c 0
 417 352 430 407 435 442 c 0
 437 453 442 462 450 468 c 0
 458 474 466 479 474 479 c 0
 482 479 489 477 494 471 c 0
 497 467 498 462 498 457 c 0
 498 454 498 450 497 446 c 0
EndSplineSet
Validated: 524289
EndChar

StartChar: v
Encoding: 118 118 96
Width: 590
GlyphClass: 2
Flags: HMW
VStem: 107 70<415 453.5 421 453.5>
LayerCount: 2
Fore
SplineSet
482 462 m 2
 481 453 476 443 469 430 c 1
 469 436 468 436 468 430 c 0
 455 403 439 375 420 345 c 0
 401 313 372 261 331 188 c 0
 293 117 259 52 228 -7 c 0
 225 -16 219 -22 211 -25 c 0
 207 -26 204 -27 200 -27 c 0
 196 -27 192 -26 188 -24 c 0
 183 -20 179 -14 178 -7 c 0
 143 144 119 285 107 415 c 1
 107 421 l 2
 107 449 114 470 127 484 c 0
 131 488 136 492 141 494 c 0
 145 497 149 499 153 499 c 0
 156 499 160 497 163 495 c 0
 166 493 170 486 172 477 c 0
 175 470 177 460 177 447 c 0
 179 392 183 346 187 306 c 2
 191 264 l 2
 192 253 196 225 202 182 c 0
 209 135 213 110 213 107 c 0
 214 90 216 77 216 66 c 1
 222 71 228 81 234 95 c 0
 310 232 372 352 421 455 c 0
 431 477 441 491 452 498 c 0
 458 502 463 504 466 504 c 0
 469 504 473 503 475 501 c 0
 480 496 482 487 482 472 c 2
 482 462 l 2
EndSplineSet
Validated: 1
EndChar

StartChar: w
Encoding: 119 119 97
Width: 590
GlyphClass: 2
Flags: HMW
HStem: -6 21G<112 112>
VStem: 74 84 272 45<48.5 78> 298 43
LayerCount: 2
Fore
SplineSet
76 3 m 0xd0
 75 43 74 81 74 118 c 0
 74 239 82 347 97 442 c 0
 99 459 102 472 109 480 c 0
 117 491 128 496 139 496 c 0
 145 496 149 493 152 488 c 0
 155 483 158 475 158 462 c 2
 158 455 l 1
 146 371 133 246 120 80 c 0
 118 49 114 21 112 -6 c 1
 191 200 l 1
 237 335 269 422 285 460 c 0
 289 471 293 480 299 487 c 0
 305 495 312 499 320 499 c 0
 327 499 332 495 335 489 c 0
 338 485 341 475 341 459 c 0
 341 454 339 429 335 385 c 0
 332 341 329 288 325 226 c 0
 320 165 317 116 317 78 c 2xe0
 317 10 l 1
 324 27 331 47 338 69 c 0
 361 135 403 263 463 452 c 0
 468 471 475 483 482 489 c 0
 487 493 493 495 498 495 c 0
 500 495 502 494 504 494 c 0
 508 492 512 488 514 482 c 0
 516 478 517 472 517 465 c 0
 517 461 515 453 512 441 c 0
 490 373 461 295 427 208 c 0
 395 120 369 54 349 10 c 0
 343 -4 336 -14 328 -20 c 0
 321 -25 314 -27 305 -27 c 2
 302 -27 l 1
 301 -27 l 2
 294 -27 288 -24 283 -19 c 0
 279 -14 275 -5 274 9 c 0
 273 24 272 40 272 57 c 0
 272 99 278 165 288 252 c 0
 295 307 298 341 298 353 c 0
 299 380 302 405 304 428 c 1
 295 410 286 388 277 363 c 0
 267 337 255 301 240 255 c 0
 225 211 208 165 191 120 c 0
 172 76 155 34 135 -4 c 0
 131 -15 125 -23 118 -28 c 0
 111 -33 104 -36 99 -36 c 0
 94 -36 88 -33 83 -27 c 0
 78 -22 76 -12 76 3 c 0xd0
EndSplineSet
Validated: 1
EndChar

StartChar: x
Encoding: 120 120 98
Width: 590
GlyphClass: 2
Flags: HMW
HStem: -22 21G<395.5 401> 483 20G<220.5 222.5>
LayerCount: 2
Fore
SplineSet
82 -23 m 0
 79 -21 75 -17 72 -10 c 0
 70 -3 67 4 67 12 c 0
 67 22 73 34 86 48 c 0
 95 60 111 76 133 96 c 2
 206 175 l 2
 231 201 251 226 268 248 c 2
 272 254 l 1
 269 261 l 2
 258 290 245 322 226 359 c 0
 207 392 195 414 191 424 c 0
 187 432 186 439 186 446 c 0
 186 457 187 466 190 473 c 0
 192 479 197 485 202 491 c 0
 207 496 211 500 216 502 c 0
 217 502 220 503 221 503 c 0
 224 503 227 501 230 499 c 0
 235 495 241 488 245 477 c 0
 253 462 263 438 277 405 c 0
 291 372 303 340 313 311 c 2
 320 292 l 1
 337 315 367 356 409 413 c 0
 437 446 458 468 471 481 c 0
 486 498 498 506 508 506 c 0
 511 506 515 503 517 498 c 0
 521 490 522 481 522 471 c 0
 522 469 521 466 520 463 c 0
 518 458 513 452 506 447 c 2
 345 256 l 2
 343 254 338 250 335 248 c 2
 338 240 l 2
 347 216 358 192 369 170 c 0
 381 145 391 123 401 102 c 0
 412 84 422 69 427 56 c 0
 431 47 433 38 433 30 c 0
 433 23 432 17 431 12 c 0
 430 7 426 1 421 -6 c 0
 416 -13 412 -18 407 -20 c 0
 405 -21 402 -22 400 -22 c 0
 391 -22 383 -13 376 5 c 0
 344 71 317 132 296 188 c 2
 290 205 l 1
 278 191 l 2
 258 165 229 128 190 80 c 1
 148 36 123 9 115 0 c 0
 107 -11 100 -18 93 -21 c 0
 90 -23 86 -24 85 -24 c 0
 84 -24 82 -24 82 -23 c 0
EndSplineSet
Validated: 1
EndChar

StartChar: y
Encoding: 121 121 99
Width: 590
GlyphClass: 2
Flags: HMW
VStem: 156 64<430 470.5 442 470.5> 219 1<448.5 472.5>
LayerCount: 2
Fore
SplineSet
535 441 m 0x80
 513 401 480 348 438 280 c 0
 398 212 361 148 326 88 c 0
 269 -13 213 -109 156 -200 c 2
 92 -296 l 2
 85 -306 76 -313 67 -316 c 0
 65 -316 62 -317 60 -317 c 0
 56 -317 52 -316 48 -312 c 0
 43 -307 41 -300 41 -292 c 0
 41 -289 42 -285 42 -282 c 0
 42 -275 46 -268 52 -260 c 0
 111 -177 167 -88 222 6 c 1
 189 169 167 310 156 430 c 1
 156 442 l 2
 156 451 157 459 159 466 c 0
 162 476 166 484 170 489 c 0
 174 494 180 499 185 501 c 0
 190 504 194 506 199 506 c 0
 201 506 204 505 207 504 c 0
 210 503 213 499 215 493 c 0
 217 487 219 478 219 467 c 1x40
 219 474 220 474 220 467 c 0
 220 430 224 387 229 340 c 0
 234 293 240 256 244 228 c 0
 248 200 256 151 267 84 c 1
 272 92 278 101 283 110 c 0
 367 255 434 374 484 468 c 0
 490 479 496 488 502 495 c 0
 508 502 513 506 518 508 c 0
 523 510 527 511 530 511 c 0
 533 511 537 510 539 509 c 0
 541 507 544 504 545 502 c 0
 547 497 549 490 549 482 c 0
 549 480 548 475 547 469 c 0
 545 460 541 451 535 441 c 0x80
EndSplineSet
Validated: 1
EndChar

StartChar: z
Encoding: 122 122 100
Width: 590
GlyphClass: 2
Flags: HMW
HStem: 9 57<168.5 199> 417 61<283 409>
LayerCount: 2
Fore
SplineSet
403 13 m 0
 397 6 388 3 375 3 c 0
 371 3 348 4 305 6 c 0
 262 8 220 9 178 9 c 0
 159 9 133 8 98 7 c 0
 96 7 93 8 92 9 c 0
 91 10 88 15 87 20 c 0
 86 25 84 31 84 37 c 0
 84 46 86 54 90 61 c 0
 92 65 98 73 107 83 c 0
 116 93 129 106 147 122 c 0
 158 133 186 157 228 197 c 0
 267 237 303 275 340 313 c 0
 377 350 405 379 424 399 c 2
 445 421 l 1
 415 420 l 2
 372 418 335 417 305 417 c 0
 261 417 227 419 207 424 c 0
 201 425 197 428 194 430 c 0
 191 432 189 437 189 442 c 0
 189 444 190 448 190 452 c 0
 192 464 198 474 205 482 c 0
 209 487 214 490 220 490 c 0
 221 490 223 489 224 489 c 0
 280 482 336 478 392 478 c 0
 426 478 460 479 493 481 c 2
 494 481 l 2
 496 481 497 480 498 479 c 0
 499 478 501 475 502 473 c 0
 504 468 505 463 505 456 c 0
 505 452 504 448 504 444 c 0
 504 440 500 433 494 423 c 0
 488 413 476 399 461 379 c 0
 439 350 414 322 386 295 c 0
 361 268 339 245 319 226 c 2
 248 159 l 2
 220 132 195 108 173 87 c 2
 151 66 l 1
 394 66 l 2
 405 64 413 60 415 56 c 0
 417 54 418 50 418 48 c 0
 418 46 417 43 417 40 c 0
 415 29 410 20 403 13 c 0
EndSplineSet
Validated: 1
EndChar

StartChar: braceleft
Encoding: 123 123 101
Width: 590
GlyphClass: 2
Flags: HMW
HStem: -87 60<281.5 316> 332 76<71.5 98.5> 778 60<481 494.5>
VStem: 112 68<13.5 47> 222 65<271 292.5 275 292.5> 245 69<571.5 615> 263 69<472 488 481 483.5>
LayerCount: 2
Fore
SplineSet
339 -46 m 0xf8
 339 -48 338 -50 338 -52 c 0
 336 -61 330 -70 323 -77 c 0
 317 -84 308 -87 296 -87 c 0
 267 -87 240 -85 216 -79 c 0
 192 -73 171 -65 154 -54 c 0
 137 -43 125 -30 118 -13 c 0
 114 -3 112 8 112 19 c 0
 112 27 113 35 115 44 c 0
 119 62 124 79 132 96 c 0
 140 113 148 128 156 141 c 2
 156 141 164 155 181 182 c 0
 190 195 198 210 205 225 c 0
 212 240 218 256 222 271 c 1
 222 275 l 2
 222 285 214 295 196 306 c 0
 178 316 154 323 125 328 c 0
 108 330 91 332 73 332 c 0
 70 332 66 333 63 334 c 0
 60 335 58 339 55 344 c 0
 52 349 50 354 50 361 c 0
 50 364 51 368 51 371 c 0
 53 382 58 391 65 398 c 0
 72 405 81 408 90 408 c 0
 107 408 122 409 135 410 c 0
 148 411 162 413 177 415 c 0
 192 417 204 420 215 424 c 0
 226 428 237 435 246 443 c 0
 255 451 261 461 263 472 c 2xf2
 263 481 l 2
 263 486 261 494 259 503 c 0
 257 512 254 523 250 534 c 0
 246 545 245 561 245 582 c 0xf4
 245 601 247 621 252 642 c 0
 266 702 296 750 343 785 c 0
 390 820 447 838 515 838 c 0
 524 838 531 836 536 831 c 0
 538 828 540 824 540 821 c 0
 540 812 534 802 520 791 c 0
 508 782 498 778 491 778 c 0
 447 778 409 768 378 746 c 0
 336 716 314 672 314 615 c 2
 314 601 l 2
 315 580 317 562 321 547 c 0
 325 532 329 520 330 509 c 0
 331 498 332 491 332 488 c 2xf2
 332 481 l 2
 330 470 323 459 314 449 c 0xf4
 305 439 294 429 281 421 c 0
 254 404 225 393 194 386 c 2
 151 377 l 1
 193 363 l 2
 224 352 248 339 266 322 c 0
 280 309 287 297 287 288 c 0
 287 287 286 285 286 284 c 0
 284 270 278 256 271 241 c 0
 264 226 256 213 248 200 c 0
 240 187 232 173 224 159 c 0
 216 145 207 129 199 111 c 0
 191 93 185 76 181 57 c 0
 181 53 180 49 180 45 c 0
 180 35 183 26 189 17 c 0
 197 6 208 -2 221 -8 c 0
 234 -14 249 -19 264 -22 c 0
 279 -25 295 -27 311 -27 c 0
 321 -27 329 -30 334 -35 c 0
 337 -37 339 -41 339 -46 c 0xf8
EndSplineSet
Validated: 1
EndChar

StartChar: bar
Encoding: 124 124 102
Width: 590
GlyphClass: 2
Flags: HMW
VStem: 153 284
LayerCount: 2
Fore
SplineSet
435 789 m 2
 333 367 l 2
 266 92 227 -76 214 -138 c 0
 210 -150 204 -160 195 -166 c 0
 186 -172 178 -175 169 -175 c 2
 167 -175 l 2
 164 -175 161 -174 159 -173 c 0
 157 -172 155 -171 154 -169 c 0
 153 -167 153 -164 153 -159 c 0
 153 -154 155 -148 157 -139 c 0
 165 -112 185 -34 216 96 c 2
 315 513 l 2
 350 661 371 750 378 780 c 0
 382 795 388 805 394 813 c 0
 400 821 408 825 417 825 c 2
 420 825 l 2
 427 825 432 823 434 820 c 0
 436 817 437 813 437 808 c 0
 437 803 436 796 435 789 c 2
EndSplineSet
Validated: 1
EndChar

StartChar: braceright
Encoding: 125 125 103
Width: 590
GlyphClass: 2
Flags: HMW
HStem: -87 60<93.5 107> 353 77 778 60<272.5 307.5>
VStem: 259 69<268.5 281.5> 275 69<130.5 184.5> 304 65<468.5 487> 409 68<704 737.5>
LayerCount: 2
Fore
SplineSet
336 109 m 0xea
 322 49 292 1 245 -34 c 0
 198 -69 141 -87 73 -87 c 0
 64 -87 58 -85 53 -80 c 0
 51 -77 49 -73 49 -70 c 2
 49 -66 l 2
 51 -57 58 -49 69 -40 c 0
 80 -31 90 -27 97 -27 c 0
 142 -27 180 -16 211 5 c 0
 242 26 261 56 270 92 c 0
 273 107 275 122 275 139 c 0
 275 142 274 146 274 151 c 0
 274 172 271 191 268 208 c 0
 262 243 259 264 259 273 c 0xf2
 259 277 260 280 260 281 c 0
 262 292 267 303 276 313 c 0
 285 323 297 332 310 340 c 0
 337 356 366 368 397 375 c 2
 439 385 l 1
 399 399 l 2
 368 410 343 423 325 440 c 0
 311 453 304 464 304 473 c 0xe6
 304 474 305 476 305 477 c 0
 308 492 313 506 320 520 c 0
 327 534 333 546 341 558 c 0
 349 570 357 583 365 596 c 0
 373 609 382 624 389 641 c 0
 396 658 402 675 407 694 c 0
 408 698 409 702 409 706 c 0
 409 716 406 725 400 734 c 0
 393 745 382 753 368 759 c 0
 354 765 340 770 324 773 c 0
 308 776 293 778 277 778 c 0
 268 778 260 781 255 786 c 0
 252 789 250 793 250 797 c 0
 250 799 251 801 251 803 c 0
 253 812 258 821 265 828 c 0
 272 835 282 838 293 838 c 0
 322 838 348 835 372 829 c 0
 396 823 417 815 435 804 c 0
 452 794 464 781 471 764 c 0
 475 754 477 743 477 732 c 0
 477 724 476 716 474 707 c 0
 470 689 464 672 457 656 c 0
 450 640 442 625 434 613 c 0
 426 601 418 589 409 576 c 0
 400 563 392 550 385 536 c 0
 378 522 372 506 369 491 c 2
 369 487 l 2
 369 481 371 476 376 471 c 0
 381 466 387 461 395 456 c 0
 403 451 413 447 424 443 c 0
 435 439 449 436 466 434 c 0
 483 432 500 430 518 430 c 0
 521 430 525 429 528 428 c 0
 531 427 534 423 537 418 c 0
 540 413 542 408 542 401 c 2
 540 391 l 2
 538 380 532 371 526 364 c 0
 520 357 512 354 502 354 c 0
 485 354 469 354 456 353 c 0
 443 352 429 350 414 348 c 0
 399 346 386 341 375 337 c 0
 364 333 355 327 346 319 c 0
 337 311 331 301 329 290 c 0
 329 288 328 284 328 279 c 0xf2
 328 274 329 267 331 257 c 0
 333 247 336 236 339 224 c 0
 342 212 344 195 344 174 c 0
 344 153 341 131 336 109 c 0xea
EndSplineSet
Validated: 1
EndChar

StartChar: asciitilde
Encoding: 126 126 104
Width: 590
GlyphClass: 2
Flags: HMW
HStem: 276 81<342.5 373> 437 82<208 238.5>
LayerCount: 2
Fore
SplineSet
540 496 m 2
 540 493 l 2
 540 485 535 472 526 452 c 0
 522 444 518 434 511 423 c 0
 478 368 446 328 415 304 c 0
 391 285 369 276 348 276 c 0
 337 276 327 278 319 282 c 0
 311 286 303 291 297 299 c 0
 291 307 286 317 282 327 c 0
 278 337 273 350 268 367 c 0
 263 384 260 394 259 396 c 0
 258 398 256 403 254 409 c 0
 252 415 249 420 247 422 c 0
 245 422 243 425 241 427 c 0
 236 432 231 435 226 436 c 0
 222 436 217 437 211 437 c 0
 205 437 200 436 194 434 c 0
 188 432 183 427 177 422 c 0
 171 417 167 412 163 407 c 0
 155 397 137 369 112 324 c 0
 105 312 96 301 82 292 c 0
 71 285 63 282 57 282 c 2
 55 282 l 2
 54 282 52 286 51 292 c 0
 51 294 49 297 49 300 c 0
 49 303 52 310 55 320 c 0
 86 383 117 433 151 468 c 0
 184 502 212 519 234 519 c 0
 243 519 251 519 257 518 c 0
 263 517 269 515 275 513 c 0
 281 511 286 506 290 501 c 0
 294 496 298 489 302 479 c 0
 306 469 310 458 314 444 c 2
 318 426 l 2
 319 419 322 413 323 409 c 0
 327 394 330 385 333 380 c 0
 335 377 338 373 340 370 c 0
 344 365 348 360 353 359 c 0
 358 358 364 357 369 357 c 2
 373 357 l 1
 387 357 l 2
 390 357 394 359 400 360 c 0
 406 361 411 365 415 369 c 0
 419 373 425 378 430 384 c 0
 440 395 453 413 470 440 c 0
 481 457 492 472 505 485 c 0
 512 492 518 498 525 500 c 0
 527 500 531 501 533 501 c 0
 538 501 540 500 540 496 c 2
55 282 m 1024
EndSplineSet
Validated: 1
EndChar

StartChar: lambda
Encoding: 955 955 113
Width: 590
GlyphClass: 2
Flags: HMW
HStem: -28.1074 21G
LayerCount: 2
Fore
SplineSet
91.4248046875 -28.107421875 m 0
 86.091796875 -28.107421875 80.7744140625 -26.4423828125 75.470703125 -23.109375 c 0
 69.3603515625 -20.4423828125 64.994140625 -16.609375 62.3720703125 -11.609375 c 0
 59.75 -6.609375 59.1494140625 0.890625 60.5712890625 10.890625 c 0
 60.9892578125 12.890625 61.07421875 14.890625 60.8251953125 16.890625 c 0
 62.6357421875 25.5576171875 66.98828125 35.224609375 73.8837890625 45.8916015625 c 0
 141.58984375 162.55859375 231.473632812 299.225585938 343.536132812 455.892578125 c 1
 322.228515625 548.559570312 298.194335938 634.559570312 271.435546875 713.892578125 c 0
 268.966796875 721.225585938 268.360351562 727.892578125 269.61328125 733.892578125 c 2
 270.03125 735.892578125 l 2
 272.23046875 743.225585938 275.38671875 749.55859375 279.5 754.891601562 c 0
 283.614257812 760.224609375 288.756835938 764.891601562 294.924804688 768.891601562 c 0
 303.372070312 774.224609375 310.859375 776.557617188 317.387695312 775.890625 c 0
 320.720703125 775.890625 323.983398438 775.557617188 327.177734375 774.890625 c 0
 336.481445312 771.557617188 342.3515625 764.557617188 344.790039062 753.890625 c 0
 350.194335938 731.890625 358.579101562 700.223632812 369.944335938 658.890625 c 0
 395.170898438 572.223632812 418.7421875 479.223632812 440.658203125 379.890625 c 0
 455.208007812 321.890625 471.325195312 260.223632812 489.008789062 194.890625 c 0
 506.693359375 129.557617188 519.56640625 77.890625 527.627929688 39.890625 c 0
 530.06640625 29.2236328125 530.450195312 19.890625 528.778320312 11.890625 c 0
 527.107421875 3.890625 524.381835938 -2.7763671875 520.600585938 -8.109375 c 0
 513.84375 -18.109375 505.381835938 -25.109375 495.212890625 -29.109375 c 0
 485.044921875 -33.109375 475.044921875 -33.109375 465.212890625 -29.109375 c 0
 460.297851562 -27.109375 456.203125 -22.7763671875 452.928710938 -16.109375 c 0
 448.849609375 -10.109375 445.922851562 -1.7763671875 444.151367188 8.890625 c 0
 428.42578125 99.5576171875 403.256835938 215.224609375 368.64453125 355.891601562 c 0
 368.623046875 368.55859375 367.209960938 374.55859375 364.403320312 373.891601562 c 0
 327.092773438 316.55859375 299.58203125 274.225585938 281.872070312 246.892578125 c 0
 264.162109375 219.559570312 241.834960938 182.892578125 214.891601562 136.892578125 c 0
 187.420898438 91.5595703125 164.258789062 50.892578125 145.404296875 14.892578125 c 0
 139.564453125 2.892578125 133.31640625 -6.2744140625 126.66015625 -12.607421875 c 0
 120.004882812 -18.9404296875 113.80078125 -23.107421875 108.049804688 -25.107421875 c 0
 102.299804688 -27.107421875 96.7578125 -28.107421875 91.4248046875 -28.107421875 c 0
EndSplineSet
Validated: 524289
EndChar

StartChar: endash
Encoding: 8211 8211 114
Width: 590
GlyphClass: 2
Flags: HMW
HStem: 261 63<142.5 188.5>
LayerCount: 2
Fore
SplineSet
127 276 m 0
 127 280 128 285 129 290 c 0
 131 301 134 309 139 314 c 0
 145 321 154 324 165 324 c 0
 212 324 267 323 332 322 c 0
 397 321 435 320 445 320 c 0
 455 320 460 318 461 316 c 0
 463 312 463 306 462 298 c 0
 460 287 455 278 450 273 c 0
 444 267 436 264 425 264 c 0
 258 262 165 261 146 261 c 0
 139 261 135 262 132 264 c 0
 129 266 127 270 127 276 c 0
EndSplineSet
Validated: 1
EndChar

StartChar: emdash
Encoding: 8212 8212 115
Width: 590
GlyphClass: 2
Flags: HMW
HStem: 261 61<88.5 110>
LayerCount: 2
Fore
SplineSet
72 276 m 0
 72 280 73 284 74 289 c 0
 76 300 79 308 84 313 c 0
 89 319 97 322 108 322 c 2
 110 322 l 2
 167 322 214 321 253 321 c 0
 292 321 343 322 407 322 c 0
 457 322 488 323 498 323 c 0
 508 323 514 321 516 318 c 0
 518 313 518 307 517 298 c 0
 515 287 510 278 505 273 c 0
 499 267 490 264 479 264 c 0
 248 262 119 261 92 261 c 0
 85 261 80 262 77 264 c 0
 74 266 72 270 72 276 c 0
EndSplineSet
Validated: 1
EndChar

StartChar: quoteleft
Encoding: 8216 8216 116
Width: 590
GlyphClass: 2
Flags: HMW
HStem: 495 235<291 293 288 294.5>
VStem: 240 69<684.5 718.5> 240 111
LayerCount: 2
Fore
SplineSet
272 512 m 0xc0
 266 533 260 560 254 594 c 0
 248 628 243 657 241 680 c 0
 241 682 240 684 240 685 c 0
 240 693 243 700 248 707 c 0
 254 716 260 722 269 725 c 0
 278 728 285 730 291 730 c 0
 295 730 300 729 303 727 c 0
 306 725 309 721 309 716 c 0
 313 681 327 624 350 547 c 0
 350 545 351 541 351 539 c 0xa0
 351 526 338 514 312 501 c 0
 304 497 297 495 292 495 c 0
 290 495 289 496 287 496 c 0
 285 496 282 498 279 500 c 0
 276 502 273 507 272 512 c 0xc0
EndSplineSet
Validated: 1
EndChar

StartChar: quoteright
Encoding: 8217 8217 117
Width: 590
GlyphClass: 2
Flags: HMW
HStem: 467 252<226.5 361.5>
VStem: 203 184
LayerCount: 2
Fore
SplineSet
203 502 m 0
 203 510 206 518 212 526 c 0
 227 546 247 574 272 611 c 0
 297 648 315 679 328 701 c 0
 333 708 338 713 343 715 c 0
 348 717 354 719 359 719 c 0
 364 719 370 717 376 714 c 0
 381 712 385 707 387 700 c 2
 387 694 l 2
 387 690 385 683 381 674 c 0
 332 588 296 530 273 499 c 0
 263 485 252 476 241 471 c 0
 236 469 231 467 228 467 c 0
 225 467 222 468 220 469 c 0
 213 473 207 481 204 493 c 0
 204 496 203 500 203 502 c 0
EndSplineSet
Validated: 1
EndChar

StartChar: quotesinglbase
Encoding: 8218 8218 118
Width: 590
GlyphClass: 2
Flags: HMW
VStem: 253 83 269 68<502 528.001 523.001 528.001 523.001 528.5>
LayerCount: 2
Fore
SplineSet
269 512 m 2x40
 269 545 264 601.001953125 253 683.001953125 c 0x80
 253 686.001953125 252 689.001953125 252 689.001953125 c 2
 252 691.001953125 253 693.001953125 254 696.001953125 c 0
 255 699.001953125 258 703.001953125 260 706.001953125 c 0
 262 709.001953125 266 712.001953125 270 714.001953125 c 0
 274 716.001953125 279 720.001953125 283 721.001953125 c 0
 287 722.001953125 290 724.001953125 295 724.001953125 c 0
 303 726.001953125 310 728.001953125 315 728.001953125 c 0
 317 728.001953125 321 727.001953125 324 724.001953125 c 0
 327 721.001953125 330 715.001953125 331 708.001953125 c 0
 333 684.001953125 335 654.001953125 336 618.001953125 c 0
 336.70703125 592.545898438 337.4140625 569.58984375 337.4140625 550.194335938 c 0
 337.4140625 542.16015625 337.29296875 534.737304688 337 528.000976562 c 0
 337 518.000976562 334 509.000976562 327 502.000976562 c 0
 320 495.000976562 312 490.000976562 304 488.000976562 c 0
 297.452148438 486.69140625 291.666992188 485.953125 286.810546875 485.953125 c 0
 280.540039062 485.953125 275.817382812 487.182617188 273 490 c 0
 271 492 269 497 269 502 c 2
 269 512 l 2x40
EndSplineSet
Validated: 524289
EndChar

StartChar: quotedblleft
Encoding: 8220 8220 119
Width: 590
GlyphClass: 2
Flags: HMW
VStem: 163 69<673.5 707.5> 163 112 315 69<723 761.5 728 761.5>
LayerCount: 2
Fore
SplineSet
348 554 m 0x20
 342 575 336 603 329 637 c 0
 322 671 317 700 315 723 c 2
 315 728 l 2
 315 736 318 743 323 750 c 0
 329 759 337 765 345 768 c 0
 353 771 360 773 366 773 c 0
 370 773 373 772 377 770 c 0
 381 768 384 764 384 759 c 0
 388 724 402 667 425 590 c 0
 426 588 427 584 427 582 c 0
 427 569 413 557 387 544 c 0
 380 540 373 538 367 538 c 0
 365 538 363 539 361 539 c 0
 359 539 356 540 354 542 c 0
 352 544 350 549 348 554 c 0x20
196 501 m 0
 190 522 184 549 178 583 c 0
 172 617 166 647 164 670 c 0
 164 671 163 673 163 674 c 0xa0
 163 682 166 689 171 696 c 0
 177 705 184 711 193 714 c 0
 202 717 209 719 215 719 c 0
 219 719 223 718 226 716 c 0
 229 714 232 710 232 705 c 0
 237 670 251 613 274 536 c 0
 274 534 275 530 275 528 c 0x60
 275 515 262 503 236 490 c 0
 228 487 221 485 216 485 c 2
 210 485 l 2
 208 485 206 487 203 489 c 0
 200 491 197 496 196 501 c 0
EndSplineSet
Validated: 1
EndChar

StartChar: quotedblright
Encoding: 8221 8221 120
Width: 590
GlyphClass: 2
Flags: HMW
HStem: 467 306<292.5 301.5> 699 20G<422.5 427.5>
VStem: 137 316<548 695>
LayerCount: 2
Fore
SplineSet
327 748 m 0xa0
 327 742 325 735 320 728 c 0
 271 642 235 583 213 552 c 0
 206 543 199 537 191 532 c 0
 183 527 176 524 171 524 c 0
 166 524 161 525 157 527 c 0
 144 536 137 544 137 552 c 0
 137 557 140 563 145 570 c 0
 160 589 181 618 208 660 c 0
 235 700 254 732 267 755 c 0
 271 762 276 767 282 769 c 0
 288 771 294 773 299 773 c 0
 304 773 310 771 316 768 c 0
 321 766 324 761 326 754 c 0
 326 752 327 750 327 748 c 0xa0
409 715 m 0
 415 717 420 719 425 719 c 0x60
 430 719 436 717 442 714 c 0
 447 712 451 707 453 700 c 2
 453 695 l 2
 453 691 451 684 447 674 c 0
 398 588 362 529 340 498 c 0
 329 485 318 476 307 471 c 0
 302 469 297 467 294 467 c 0
 291 467 288 468 286 469 c 0
 279 473 273 481 270 493 c 0
 270 496 269 500 269 502 c 0
 269 507 273 515 278 526 c 0
 294 546 314 574 338 611 c 0
 362 648 381 679 394 701 c 0
 398 708 403 713 409 715 c 0
EndSplineSet
Validated: 1
EndChar

StartChar: bullet
Encoding: 8226 8226 121
Width: 590
GlyphClass: 2
Flags: HMW
HStem: 348 159<256 322 265 322>
VStem: 213 164<397 460.5>
LayerCount: 2
Fore
SplineSet
213 404 m 0
 213 435 227 460 255 481 c 0
 276 497 298 506 319 507 c 2
 322 507 l 2
 342 507 357 500 366 487 c 0
 373 478 377 467 377 454 c 0
 377 447 376 440 374 433 c 0
 369 411 357 391 339 375 c 0
 321 359 299 350 274 348 c 2
 265 348 l 2
 247 348 234 354 225 367 c 0
 217 378 213 390 213 404 c 0
EndSplineSet
Validated: 1
EndChar
